<svg width="22" height="17" viewBox="0 0 22 17" fill="none" xmlns="http://www.w3.org/2000/svg">
<g id="Iconly/Light/3-User">
<g id="3-User">
<path id="Stroke-1" d="M16.8877 7.95111C18.2827 7.76478 19.3567 6.62775 19.3597 5.25019C19.3597 3.8926 18.3187 2.76697 16.9537 2.55402" stroke="#0B1215" stroke-width="1.5" stroke-linecap="round" stroke-linejoin="round"/>
<path id="Stroke-3" d="M18.7285 11.1393C20.0795 11.3314 21.0225 11.7811 21.0225 12.708C21.0225 13.3459 20.5785 13.7604 19.8605 14.0209" stroke="#0B1215" stroke-width="1.5" stroke-linecap="round" stroke-linejoin="round"/>
<path id="Stroke-5" fill-rule="evenodd" clip-rule="evenodd" d="M10.8867 11.5325C7.67267 11.5325 4.92767 11.9955 4.92767 13.8446C4.92767 15.6927 7.65567 16.169 10.8867 16.169C14.1007 16.169 16.8447 15.7108 16.8447 13.8607C16.8447 12.0107 14.1177 11.5325 10.8867 11.5325Z" stroke="#0B1215" stroke-width="1.5" stroke-linecap="round" stroke-linejoin="round"/>
<path id="Stroke-7" fill-rule="evenodd" clip-rule="evenodd" d="M10.8867 8.89343C12.9957 8.89343 14.7057 7.26869 14.7057 5.26273C14.7057 3.25771 12.9957 1.63202 10.8867 1.63202C8.77768 1.63202 7.06765 3.25771 7.06765 5.26273C7.05968 7.26109 8.75668 8.88678 10.8587 8.89343H10.8867Z" stroke="#0B1215" stroke-width="1.5" stroke-linecap="round" stroke-linejoin="round"/>
<path id="Stroke-9" d="M4.88478 7.95111C3.48878 7.76478 2.41578 6.62775 2.41278 5.25019C2.41278 3.8926 3.45378 2.76697 4.81878 2.55402" stroke="#0B1215" stroke-width="1.5" stroke-linecap="round" stroke-linejoin="round"/>
<path id="Stroke-11" d="M3.04388 11.1393C1.69288 11.3314 0.749878 11.7811 0.749878 12.708C0.749878 13.3459 1.19388 13.7604 1.91188 14.0209" stroke="#0B1215" stroke-width="1.5" stroke-linecap="round" stroke-linejoin="round"/>
</g>
</g>
</svg>
