<svg width="20" height="20" viewBox="0 0 20 20" fill="none" xmlns="http://www.w3.org/2000/svg">
<g id="icon">
<path id="Form_9-4" fill-rule="evenodd" clip-rule="evenodd" d="M8.76079 19.5178C4.48019 18.9521 1.10116 15.6099 0.495545 11.3428C-0.110117 7.07553 2.20597 2.92805 6.16064 1.19793C6.60336 1.0057 7.11838 1.20808 7.31108 1.64997C7.50378 2.09175 7.30118 2.60591 6.85851 2.79836C3.61408 4.20414 1.7086 7.59837 2.2012 11.0943C2.69385 14.5902 5.46344 17.328 8.97052 17.786C12.4776 18.244 15.8596 16.3094 17.2367 13.0577C17.3561 12.7678 17.6224 12.5641 17.934 12.5245C18.2455 12.4849 18.5544 12.6154 18.7429 12.8662C18.9313 13.1171 18.9701 13.4497 18.8446 13.7371C17.1709 17.7107 13.0429 20.0775 8.76079 19.5188V19.5178ZM10.0012 10.8744C9.76941 10.8742 9.54727 10.7822 9.38354 10.6184C9.21981 10.4546 9.12796 10.2327 9.12817 10.0013V1.27313C9.12796 1.04168 9.21981 0.819741 9.38354 0.656059C9.54727 0.492272 9.76946 0.400234 10.0013 0.400024C15.3073 0.408496 19.6032 4.70606 19.5999 10.0021C19.6002 10.2336 19.5083 10.4555 19.3446 10.6192C19.1809 10.783 18.9587 10.875 18.7269 10.8753L10.0012 10.8744ZM10.8742 9.1283H17.8084C17.4036 5.48389 14.5246 2.60497 10.8742 2.19425V9.1283Z" fill="#0B1215"/>
</g>
</svg>
