<svg width="29" height="28" viewBox="0 0 29 28" fill="none" xmlns="http://www.w3.org/2000/svg">
<g id="k&#196;&#177;zg&#196;&#177;n">
<g clip-path="url(#clip0_3345_8730)">
<path id="Vector" d="M32.3721 0H0.37207V32H32.3721V0Z" fill="#FE7575"/>
<g id="Group 48095586">
<path id="Vector_2" d="M9.84209 13.9122C9.84209 15.2071 9.10162 16.2601 8.18627 16.2601C7.27092 16.2601 6.53418 15.2071 6.53418 13.9122C6.53418 12.6173 7.27464 11.5643 8.18627 11.5643C9.0979 11.5643 9.84209 12.6136 9.84209 13.9122Z" fill="#0B1215"/>
<path id="Vector_3" d="M22.2063 13.9122C22.2063 15.2071 21.4659 16.2601 20.5543 16.2601C19.6426 16.2601 18.8984 15.2071 18.8984 13.9122C18.8984 12.6173 19.6389 11.5643 20.5543 11.5643C21.4696 11.5643 22.2063 12.6136 22.2063 13.9122Z" fill="#0B1215"/>
<path id="Vector_4" d="M10.8204 12.368C10.6232 12.368 10.4446 12.2415 10.3851 12.0406C9.90136 10.3885 8.24554 9.1308 6.27345 8.90755C6.02415 8.8815 5.84554 8.65452 5.87531 8.40522C5.90508 8.15592 6.12834 7.97359 6.37764 8.00708C8.70694 8.27127 10.6679 9.78941 11.2595 11.7875C11.3302 12.0294 11.1925 12.2787 10.9507 12.3531C10.906 12.3643 10.8651 12.3717 10.8204 12.3717V12.368Z" fill="#0B1215"/>
<path id="Vector_5" d="M17.9243 12.3679C17.8834 12.3679 17.8387 12.3642 17.7941 12.3493C17.5522 12.2786 17.4145 12.0256 17.489 11.7837C18.0769 9.78557 20.0378 8.26743 22.3671 8.00324C22.6201 7.97347 22.8397 8.15208 22.8694 8.40138C22.8992 8.65068 22.7206 8.87394 22.4713 8.90371C20.4992 9.12696 18.8471 10.3884 18.3597 12.0367C18.3001 12.2339 18.1215 12.3642 17.9243 12.3642V12.3679Z" fill="#0B1215"/>
<path id="Vector_6" d="M17.6149 21.5102C17.4363 21.5102 17.2577 21.447 17.1163 21.313C16.4428 20.6842 15.52 20.3158 14.5228 20.2786C13.4177 20.2302 12.3647 20.6097 11.6354 21.3056C11.3414 21.5846 10.88 21.5735 10.6009 21.2832C10.3219 20.9893 10.333 20.5279 10.6233 20.2488C11.6354 19.2814 13.0791 18.7604 14.5786 18.8163C15.9256 18.8684 17.1833 19.3744 18.1135 20.2414C18.4075 20.5167 18.4261 20.9818 18.1507 21.2758C18.0056 21.4321 17.8121 21.5102 17.6149 21.5102Z" fill="#0B1215"/>
</g>
</g>
</g>
<defs>
<clipPath id="clip0_3345_8730">
<rect x="0.37207" width="32" height="32" rx="8" fill="white"/>
</clipPath>
</defs>
</svg>
