<svg width="24" height="24" viewBox="0 0 24 24" fill="none" xmlns="http://www.w3.org/2000/svg">
<g id="icon">
<path id="Vector" d="M4 6.29586C4 5.79158 4.21071 5.30795 4.58579 4.95137C4.96086 4.59479 5.46957 4.39447 6 4.39447H8C8.53043 4.39447 9.03914 4.59479 9.41421 4.95137C9.78929 5.30795 10 5.79158 10 6.29586V8.19725C10 8.70153 9.78929 9.18516 9.41421 9.54174C9.03914 9.89832 8.53043 10.0986 8 10.0986H6C5.46957 10.0986 4.96086 9.89832 4.58579 9.54174C4.21071 9.18516 4 8.70153 4 8.19725V6.29586ZM14 6.29586C14 5.79158 14.2107 5.30795 14.5858 4.95137C14.9609 4.59479 15.4696 4.39447 16 4.39447H18C18.5304 4.39447 19.0391 4.59479 19.4142 4.95137C19.7893 5.30795 20 5.79158 20 6.29586V8.19725C20 8.70153 19.7893 9.18516 19.4142 9.54174C19.0391 9.89832 18.5304 10.0986 18 10.0986H16C15.4696 10.0986 14.9609 9.89832 14.5858 9.54174C14.2107 9.18516 14 8.70153 14 8.19725V6.29586ZM4 15.8028C4 15.2985 4.21071 14.8149 4.58579 14.4583C4.96086 14.1017 5.46957 13.9014 6 13.9014H8C8.53043 13.9014 9.03914 14.1017 9.41421 14.4583C9.78929 14.8149 10 15.2985 10 15.8028V17.7042C10 18.2085 9.78929 18.6921 9.41421 19.0487C9.03914 19.4053 8.53043 19.6056 8 19.6056H6C5.46957 19.6056 4.96086 19.4053 4.58579 19.0487C4.21071 18.6921 4 18.2085 4 17.7042V15.8028ZM14 15.8028C14 15.2985 14.2107 14.8149 14.5858 14.4583C14.9609 14.1017 15.4696 13.9014 16 13.9014H18C18.5304 13.9014 19.0391 14.1017 19.4142 14.4583C19.7893 14.8149 20 15.2985 20 15.8028V17.7042C20 18.2085 19.7893 18.6921 19.4142 19.0487C19.0391 19.4053 18.5304 19.6056 18 19.6056H16C15.4696 19.6056 14.9609 19.4053 14.5858 19.0487C14.2107 18.6921 14 18.2085 14 17.7042V15.8028Z" stroke="#0B1215" stroke-width="1.5" stroke-linecap="round" stroke-linejoin="round"/>
</g>
</svg>
