<svg width="24" height="24" viewBox="0 0 24 24" fill="none" xmlns="http://www.w3.org/2000/svg">
<g id="clarity:close-line" clip-path="url(#clip0_4200_8326)">
<path id="Vector" d="M12.94 12L18.4667 6.47336C18.5759 6.34582 18.633 6.18177 18.6265 6.01399C18.62 5.8462 18.5504 5.68704 18.4317 5.56831C18.313 5.44958 18.1538 5.38003 17.986 5.37355C17.8183 5.36707 17.6542 5.42414 17.5267 5.53336L12 11.06L6.47334 5.52669C6.3478 5.40115 6.17754 5.33063 6 5.33063C5.82247 5.33063 5.6522 5.40115 5.52667 5.52669C5.40113 5.65222 5.33061 5.82249 5.33061 6.00002C5.33061 6.17756 5.40113 6.34782 5.52667 6.47336L11.06 12L5.52667 17.5267C5.45688 17.5865 5.4002 17.66 5.36019 17.7427C5.32017 17.8254 5.29768 17.9155 5.29414 18.0073C5.29059 18.0991 5.30606 18.1907 5.33958 18.2762C5.37309 18.3618 5.42393 18.4395 5.4889 18.5045C5.55387 18.5694 5.63157 18.6203 5.71712 18.6538C5.80267 18.6873 5.89423 18.7028 5.98604 18.6992C6.07785 18.6957 6.16794 18.6732 6.25065 18.6332C6.33336 18.5932 6.4069 18.5365 6.46667 18.4667L12 12.94L17.5267 18.4667C17.6542 18.5759 17.8183 18.633 17.986 18.6265C18.1538 18.62 18.313 18.5505 18.4317 18.4317C18.5504 18.313 18.62 18.1538 18.6265 17.9861C18.633 17.8183 18.5759 17.6542 18.4667 17.5267L12.94 12Z" fill="#0D1717"/>
</g>
<defs>
<clipPath id="clip0_4200_8326">
<rect width="24" height="24" fill="white"/>
</clipPath>
</defs>
</svg>
