<svg width="29" height="28" viewBox="0 0 29 28" fill="none" xmlns="http://www.w3.org/2000/svg">
<g id="depresyon">
<g clip-path="url(#clip0_3345_8745)">
<path id="Vector" d="M32.6973 -2H0.697266V30H32.6973V-2Z" fill="#C179FF"/>
<g id="Group 48095592">
<path id="Vector_2" d="M4.72252 9.51437C4.57368 9.51437 4.42857 9.45112 4.32438 9.33205C4.13461 9.11251 4.16066 8.78135 4.38019 8.59158C5.4295 7.69112 6.76531 7.12554 8.14577 7.00275C8.43973 6.97298 8.68903 7.18879 8.71508 7.47902C8.74112 7.76926 8.52903 8.02228 8.2388 8.04833C7.07415 8.15251 5.9467 8.62879 5.06112 9.38786C4.96066 9.47344 4.84159 9.51437 4.7188 9.51437H4.72252Z" fill="#0B1215"/>
<path id="Vector_3" d="M24.1752 9.51437C24.0524 9.51437 23.9333 9.47344 23.8329 9.38786C22.9473 8.62879 21.8161 8.15251 20.6552 8.04833C20.365 8.02228 20.1529 7.76554 20.1789 7.47902C20.205 7.18879 20.4543 6.97298 20.7482 7.00275C22.1287 7.12554 23.4645 7.69112 24.5175 8.59158C24.7371 8.78135 24.7631 9.11251 24.5733 9.33205C24.4692 9.45484 24.324 9.51437 24.1752 9.51437Z" fill="#0B1215"/>
<path id="Vector_4" d="M9.3958 15.3488C9.3958 16.6437 8.65533 17.6967 7.73998 17.6967C6.82463 17.6967 6.08789 16.6474 6.08789 15.3488C6.08789 14.0502 6.82836 13.0009 7.73998 13.0009C8.65161 13.0009 9.3958 14.0539 9.3958 15.3488Z" fill="#0B1215"/>
<path id="Vector_5" d="M22.8099 15.3488C22.8099 16.6437 22.0694 17.6967 21.1578 17.6967C20.2461 17.6967 19.502 16.6474 19.502 15.3488C19.502 14.0502 20.2424 13.0009 21.1578 13.0009C22.0731 13.0009 22.8099 14.0539 22.8099 15.3488Z" fill="#0B1215"/>
<path id="Vector_6" d="M19.2635 24.2455C19.6802 24.3311 19.9704 23.706 19.6914 23.3004C18.4709 21.5032 16.577 20.346 14.4486 20.346C12.3202 20.346 10.4263 21.5032 9.20208 23.3004C8.92301 23.7097 9.21324 24.3311 9.62999 24.2455C11.0737 23.9479 12.7109 23.7841 14.4449 23.7841C16.1788 23.7841 17.816 23.9516 19.2635 24.2455Z" fill="#0B1215"/>
</g>
</g>
</g>
<defs>
<clipPath id="clip0_3345_8745">
<rect x="0.697266" y="-2" width="32" height="32" rx="8" fill="white"/>
</clipPath>
</defs>
</svg>
