<svg width="24" height="24" viewBox="0 0 24 24" fill="none" xmlns="http://www.w3.org/2000/svg">
<g id="solar:dislike-broken">
<path id="Vector" d="M2.79999 13.5658L3.54699 13.6298C3.52977 13.8219 3.43922 14 3.29415 14.127C3.14908 14.2541 2.96063 14.3204 2.76795 14.3122C2.57527 14.3039 2.39317 14.2218 2.25947 14.0828C2.12577 13.9438 2.05075 13.7587 2.04999 13.5658H2.79999ZM20.036 11.7428L19.33 7.6628L20.809 7.4068L21.514 11.4868L20.036 11.7428ZM13.045 2.5498H8.39599V1.0498H13.045V2.5498ZM7.48499 3.3878L6.67299 12.7798L5.17799 12.6508L5.99099 3.2578L7.48499 3.3878ZM19.33 7.6628C18.823 4.7328 16.181 2.5498 13.045 2.5498V1.0498C16.871 1.0498 20.171 3.7188 20.809 7.4068L19.33 7.6628ZM13.055 18.6998L12.392 14.6548L13.872 14.4128L14.535 18.4568L13.055 18.6998ZM6.98799 13.5538L8.42699 14.7938L7.44699 15.9308L6.00799 14.6908L6.98799 13.5538ZM11.044 18.8278L11.52 20.6618L10.068 21.0378L9.59199 19.2048L11.044 18.8278ZM12.238 21.0218L12.383 20.9748L12.842 22.4028L12.697 22.4498L12.238 21.0218ZM10.323 16.9838C10.635 17.5678 10.878 18.1868 11.044 18.8278L9.59199 19.2048C9.45528 18.6782 9.25656 18.1696 8.99999 17.6898L10.323 16.9838ZM12.383 20.9748C12.5257 20.9316 12.6551 20.853 12.7593 20.7463C12.8635 20.6397 12.9391 20.5085 12.979 20.3648L14.431 20.7408C14.3277 21.1293 14.1278 21.4854 13.85 21.7759C13.5722 22.0665 13.2255 22.2821 12.842 22.4028L12.383 20.9748ZM11.52 20.6618C11.5398 20.7339 11.5751 20.8008 11.6235 20.8578C11.6719 20.9148 11.7321 20.9605 11.8 20.9918L11.149 22.3428C10.8848 22.2169 10.6512 22.0349 10.4646 21.8095C10.2779 21.5842 10.1425 21.3208 10.068 21.0378L11.52 20.6618ZM11.8 20.9918C11.9369 21.0572 12.0935 21.0679 12.238 21.0218L12.697 22.4498C12.1863 22.6135 11.6323 22.5752 11.149 22.3428L11.8 20.9918ZM13.954 12.8158H19.134V14.3158H13.954V12.8158ZM4.51899 2.3938L3.54699 13.6298L2.05299 13.5008L3.02299 2.2648L4.51899 2.3938ZM3.54999 2.2868V13.5658H2.04999V2.2868H3.54999ZM3.02299 2.2648C3.01994 2.30115 3.02548 2.33773 3.03732 2.37222C3.04917 2.40671 3.06805 2.43836 3.09279 2.46517C3.11752 2.49197 3.14756 2.51333 3.18099 2.5279C3.21442 2.54247 3.25052 2.54993 3.28699 2.5498V1.0498C4.01299 1.0498 4.58099 1.6718 4.51899 2.3938L3.02299 2.2648ZM14.535 18.4568C14.66 19.2168 14.625 19.9948 14.431 20.7408L12.979 20.3638C13.119 19.8208 13.146 19.2538 13.055 18.6998L14.535 18.4568ZM8.39599 2.5498C8.16684 2.55022 7.94617 2.63651 7.77753 2.79165C7.60888 2.94678 7.5045 3.15949 7.48499 3.3878L5.99099 3.2578C6.04302 2.65564 6.31887 2.09485 6.76409 1.6861C7.20932 1.27734 7.79158 1.05031 8.39599 1.0498V2.5498ZM8.42699 14.7938C9.10699 15.3798 9.83899 16.0768 10.324 16.9838L8.99999 17.6908C8.65399 17.0418 8.10299 16.4948 7.44699 15.9308L8.42699 14.7938ZM21.514 11.4868C21.5742 11.8338 21.5578 12.1898 21.466 12.5298C21.3741 12.8698 21.2091 13.1856 20.9823 13.4552C20.7556 13.7247 20.4727 13.9413 20.1534 14.09C19.8341 14.2387 19.4862 14.3157 19.134 14.3158V12.8158C19.2675 12.8157 19.3994 12.7865 19.5205 12.7301C19.6415 12.6736 19.7488 12.5915 19.8347 12.4892C19.9206 12.387 19.9832 12.2672 20.018 12.1383C20.0527 12.0094 20.0589 11.8744 20.036 11.7428L21.514 11.4868ZM3.28699 2.5498C3.35674 2.5498 3.42363 2.5221 3.47296 2.47277C3.52228 2.42345 3.54999 2.35656 3.54999 2.2868H2.04999C2.04999 1.6048 2.60299 1.0498 3.28699 1.0498V2.5498ZM12.392 14.6548C12.3547 14.4282 12.3672 14.1962 12.4285 13.975C12.4898 13.7537 12.5986 13.5484 12.7472 13.3733C12.8958 13.1983 13.0807 13.0577 13.2891 12.9612C13.4975 12.8648 13.7244 12.8158 13.954 12.8158V14.3158C13.904 14.3158 13.864 14.3608 13.872 14.4128L12.392 14.6548ZM6.67299 12.7798C6.66063 12.9246 6.68183 13.0703 6.73676 13.2049C6.7917 13.3394 6.8778 13.459 6.98799 13.5538L6.00799 14.6908C5.718 14.4408 5.49154 14.1254 5.34724 13.7708C5.20295 13.4161 5.14494 13.0323 5.17799 12.6508L6.67299 12.7798Z" fill="#0B1215"/>
</g>
</svg>
