<svg width="18" height="16" viewBox="0 0 18 16" fill="none" xmlns="http://www.w3.org/2000/svg">
<g id="Iconly/Light/Filter">
<g id="Filter">
<path id="Stroke-1" d="M7.4417 12.2867H1.56104" stroke="#0B1215" stroke-width="1.5" stroke-linecap="round" stroke-linejoin="round"/>
<path id="Stroke-3" d="M10.0645 3.24036H15.9451" stroke="#0B1215" stroke-width="1.5" stroke-linecap="round" stroke-linejoin="round"/>
<path id="Stroke-5" fill-rule="evenodd" clip-rule="evenodd" d="M5.94465 3.18984C5.94465 1.98056 4.95703 1 3.73905 1C2.52106 1 1.53345 1.98056 1.53345 3.18984C1.53345 4.39912 2.52106 5.37967 3.73905 5.37967C4.95703 5.37967 5.94465 4.39912 5.94465 3.18984Z" stroke="#0B1215" stroke-width="1.5" stroke-linecap="round" stroke-linejoin="round"/>
<path id="Stroke-7" fill-rule="evenodd" clip-rule="evenodd" d="M16.4669 12.2502C16.4669 11.0409 15.48 10.0603 14.262 10.0603C13.0433 10.0603 12.0557 11.0409 12.0557 12.2502C12.0557 13.4594 13.0433 14.44 14.262 14.44C15.48 14.44 16.4669 13.4594 16.4669 12.2502Z" stroke="#0B1215" stroke-width="1.5" stroke-linecap="round" stroke-linejoin="round"/>
</g>
</g>
</svg>
