<svg width="148" height="57" viewBox="0 0 148 57" fill="none" xmlns="http://www.w3.org/2000/svg">
<path d="M68.174 38.4141V43.7456C67.7396 46.6753 60.7896 46.5304 60.5 43.7456V24.6147C60.5 20.8775 64.9885 18.4136 68.174 21.861L73.2417 29.1385L78.3094 36.53C81.9292 42.6172 88.3 40.4432 88.3 35.9503V31.3125V26.5298V18.6725C88.3 13.7758 77.5854 13.7758 77.5854 18.6725V25.6292" stroke="#0A6EBD" stroke-width="3" stroke-linecap="round"/>
<circle cx="83.4999" cy="6" r="5.5" fill="#0A6EBD" stroke="white"/>
<path d="M77.9442 5.91157C79.9336 6.72661 84.4098 7.57426 88.3887 4.44449" stroke="#F5F5F7" stroke-linecap="round"/>
<circle cx="83.8333" cy="6.33327" r="1.44444" fill="white"/>
<circle cx="83.4999" cy="6" r="5.5" stroke="#F5F5F7"/>
<mask id="path-6-outside-1_4211_4475" maskUnits="userSpaceOnUse" x="2.5" y="20" width="55" height="27" fill="black">
<rect fill="white" x="2.5" y="20" width="55" height="27"/>
<path d="M6.332 36.48V45.624H3.092V21.612H6.332V24.096C7.592 22.368 9.68 21.18 12.02 21.18C16.556 21.18 19.76 24.6 19.76 30.288C19.76 35.976 16.556 39.432 12.02 39.432C9.752 39.432 7.736 38.388 6.332 36.48ZM16.376 30.288C16.376 26.688 14.396 24.06 11.156 24.06C9.176 24.06 7.196 25.212 6.332 26.616V33.996C7.196 35.364 9.176 36.552 11.156 36.552C14.396 36.552 16.376 33.924 16.376 30.288ZM22.3573 36.732L23.9053 34.356C25.0933 35.652 27.3973 36.84 29.7373 36.84C32.1853 36.84 33.4813 35.832 33.4813 34.356C33.4813 32.628 31.5013 32.052 29.2693 31.548C26.3173 30.864 22.8613 30.072 22.8613 26.328C22.8613 23.556 25.2373 21.18 29.4853 21.18C32.4733 21.18 34.6333 22.26 36.1093 23.664L34.6693 25.932C33.6613 24.708 31.7173 23.808 29.5213 23.808C27.3253 23.808 25.9573 24.672 25.9573 26.076C25.9573 27.588 27.8293 28.092 29.9893 28.596C33.0133 29.28 36.6133 30.108 36.6133 34.104C36.6133 37.092 34.1653 39.432 29.5933 39.432C26.6773 39.432 24.1213 38.532 22.3573 36.732ZM39.8452 45.804L40.3492 42.888C40.7452 43.068 41.3572 43.176 41.7892 43.176C42.9772 43.176 43.7692 42.78 44.3092 41.484L45.3172 39.18L38.1532 21.612H41.6092L47.0452 35.256L52.4812 21.612H55.9732L47.4052 42.312C46.2892 45.048 44.3812 46.02 41.8612 46.056C41.3212 46.056 40.3492 45.948 39.8452 45.804Z"/>
</mask>
<path d="M6.332 36.48V45.624H3.092V21.612H6.332V24.096C7.592 22.368 9.68 21.18 12.02 21.18C16.556 21.18 19.76 24.6 19.76 30.288C19.76 35.976 16.556 39.432 12.02 39.432C9.752 39.432 7.736 38.388 6.332 36.48ZM16.376 30.288C16.376 26.688 14.396 24.06 11.156 24.06C9.176 24.06 7.196 25.212 6.332 26.616V33.996C7.196 35.364 9.176 36.552 11.156 36.552C14.396 36.552 16.376 33.924 16.376 30.288ZM22.3573 36.732L23.9053 34.356C25.0933 35.652 27.3973 36.84 29.7373 36.84C32.1853 36.84 33.4813 35.832 33.4813 34.356C33.4813 32.628 31.5013 32.052 29.2693 31.548C26.3173 30.864 22.8613 30.072 22.8613 26.328C22.8613 23.556 25.2373 21.18 29.4853 21.18C32.4733 21.18 34.6333 22.26 36.1093 23.664L34.6693 25.932C33.6613 24.708 31.7173 23.808 29.5213 23.808C27.3253 23.808 25.9573 24.672 25.9573 26.076C25.9573 27.588 27.8293 28.092 29.9893 28.596C33.0133 29.28 36.6133 30.108 36.6133 34.104C36.6133 37.092 34.1653 39.432 29.5933 39.432C26.6773 39.432 24.1213 38.532 22.3573 36.732ZM39.8452 45.804L40.3492 42.888C40.7452 43.068 41.3572 43.176 41.7892 43.176C42.9772 43.176 43.7692 42.78 44.3092 41.484L45.3172 39.18L38.1532 21.612H41.6092L47.0452 35.256L52.4812 21.612H55.9732L47.4052 42.312C46.2892 45.048 44.3812 46.02 41.8612 46.056C41.3212 46.056 40.3492 45.948 39.8452 45.804Z" fill="#0A6EBD"/>
<path d="M6.332 36.48L6.73472 36.1837L5.832 34.9569V36.48H6.332ZM6.332 45.624V46.124H6.832V45.624H6.332ZM3.092 45.624H2.592V46.124H3.092V45.624ZM3.092 21.612V21.112H2.592V21.612H3.092ZM6.332 21.612H6.832V21.112H6.332V21.612ZM6.332 24.096H5.832V25.6304L6.736 24.3906L6.332 24.096ZM6.332 26.616L5.90617 26.354L5.832 26.4745V26.616H6.332ZM6.332 33.996H5.832V34.1407L5.90926 34.263L6.332 33.996ZM5.832 36.48V45.624H6.832V36.48H5.832ZM6.332 45.124H3.092V46.124H6.332V45.124ZM3.592 45.624V21.612H2.592V45.624H3.592ZM3.092 22.112H6.332V21.112H3.092V22.112ZM5.832 21.612V24.096H6.832V21.612H5.832ZM6.736 24.3906C7.9087 22.7823 9.85098 21.68 12.02 21.68V20.68C9.50902 20.68 7.2753 21.9537 5.928 23.8014L6.736 24.3906ZM12.02 21.68C14.1547 21.68 15.9484 22.4807 17.2144 23.9299C18.4855 25.385 19.26 27.5357 19.26 30.288H20.26C20.26 27.3523 19.4325 24.949 17.9676 23.2721C16.4976 21.5893 14.4213 20.68 12.02 20.68V21.68ZM19.26 30.288C19.26 33.0404 18.4854 35.2007 17.2135 36.6651C15.9468 38.1236 14.153 38.932 12.02 38.932V39.932C14.423 39.932 16.4992 39.0124 17.9685 37.3209C19.4326 35.6353 20.26 33.2236 20.26 30.288H19.26ZM12.02 38.932C9.91859 38.932 8.04909 37.9699 6.73472 36.1837L5.92928 36.7763C7.42291 38.8061 9.58541 39.932 12.02 39.932V38.932ZM16.876 30.288C16.876 28.4008 16.3571 26.7241 15.369 25.5086C14.3726 24.283 12.9242 23.56 11.156 23.56V24.56C12.6278 24.56 13.7894 25.151 14.593 26.1394C15.4049 27.1379 15.876 28.5752 15.876 30.288H16.876ZM11.156 23.56C9.01054 23.56 6.86537 24.7953 5.90617 26.354L6.75783 26.878C7.52663 25.6287 9.34146 24.56 11.156 24.56V23.56ZM5.832 26.616V33.996H6.832V26.616H5.832ZM5.90926 34.263C6.86515 35.7765 9.00497 37.052 11.156 37.052V36.052C9.34703 36.052 7.52685 34.9515 6.75474 33.729L5.90926 34.263ZM11.156 37.052C12.9243 37.052 14.3731 36.3288 15.3696 35.0981C16.3577 33.8778 16.876 32.1922 16.876 30.288H15.876C15.876 32.0198 15.4043 33.4662 14.5924 34.4689C13.7889 35.4612 12.6277 36.052 11.156 36.052V37.052ZM22.3573 36.732L21.9384 36.4591L21.7193 36.7953L22.0002 37.082L22.3573 36.732ZM23.9053 34.356L24.2739 34.0181L23.8383 33.5429L23.4864 34.0831L23.9053 34.356ZM29.2693 31.548L29.1565 32.0351L29.1592 32.0357L29.2693 31.548ZM36.1093 23.664L36.5315 23.932L36.7518 23.585L36.454 23.3017L36.1093 23.664ZM34.6693 25.932L34.2834 26.2499L34.7218 26.7822L35.0915 26.2L34.6693 25.932ZM29.9893 28.596L29.8757 29.0829L29.879 29.0837L29.9893 28.596ZM22.7763 37.0049L24.3243 34.6289L23.4864 34.0831L21.9384 36.4591L22.7763 37.0049ZM23.5368 34.6939C24.8147 36.088 27.2503 37.34 29.7373 37.34V36.34C27.5444 36.34 25.372 35.216 24.2739 34.0181L23.5368 34.6939ZM29.7373 37.34C31.0208 37.34 32.0693 37.0771 32.8121 36.5625C33.5744 36.0343 33.9813 35.261 33.9813 34.356H32.9813C32.9813 34.927 32.7403 35.3957 32.2426 35.7405C31.7254 36.0989 30.9019 36.34 29.7373 36.34V37.34ZM33.9813 34.356C33.9813 33.2442 33.3201 32.5286 32.4521 32.0542C31.6076 31.5927 30.4873 31.3104 29.3795 31.0603L29.1592 32.0357C30.2834 32.2896 31.269 32.5473 31.9726 32.9318C32.6526 33.3034 32.9813 33.7398 32.9813 34.356H33.9813ZM29.3822 31.0609C27.8855 30.7141 26.3694 30.3599 25.2186 29.6586C24.6532 29.314 24.1944 28.8953 23.8752 28.368C23.5576 27.8433 23.3613 27.1834 23.3613 26.328H22.3613C22.3613 27.3446 22.5971 28.1877 23.0197 28.8859C23.4408 29.5815 24.0305 30.1055 24.6981 30.5124C26.0133 31.3141 27.7012 31.6979 29.1565 32.0351L29.3822 31.0609ZM23.3613 26.328C23.3613 25.0929 23.8876 23.9454 24.901 23.0981C25.9182 22.2477 27.453 21.68 29.4853 21.68V20.68C27.2697 20.68 25.4924 21.3003 24.2596 22.3309C23.0231 23.3646 22.3613 24.7911 22.3613 26.328H23.3613ZM29.4853 21.68C32.3413 21.68 34.3789 22.7081 35.7647 24.0263L36.454 23.3017C34.8877 21.8119 32.6054 20.68 29.4853 20.68V21.68ZM35.6872 23.396L34.2472 25.664L35.0915 26.2L36.5315 23.932L35.6872 23.396ZM35.0553 25.6141C33.9353 24.2541 31.8377 23.308 29.5213 23.308V24.308C31.597 24.308 33.3874 25.1619 34.2834 26.2499L35.0553 25.6141ZM29.5213 23.308C28.3674 23.308 27.372 23.5335 26.6478 23.9934C25.9039 24.4658 25.4573 25.1836 25.4573 26.076H26.4573C26.4573 25.5644 26.6948 25.1482 27.1839 24.8376C27.6927 24.5145 28.4793 24.308 29.5213 24.308V23.308ZM25.4573 26.076C25.4573 27.1006 26.1174 27.7401 26.9354 28.159C27.7378 28.57 28.8085 28.8339 29.8757 29.0829L30.103 28.1091C29.0102 27.8541 28.0648 27.614 27.3913 27.269C26.7333 26.9319 26.4573 26.5634 26.4573 26.076H25.4573ZM29.879 29.0837C31.4103 29.43 32.9785 29.7934 34.172 30.533C34.7587 30.8966 35.2384 31.3423 35.5733 31.9084C35.907 32.4724 36.1133 33.1833 36.1133 34.104H37.1133C37.1133 33.0267 36.8697 32.1356 36.4339 31.3991C35.9993 30.6647 35.39 30.1114 34.6987 29.683C33.3362 28.8386 31.5924 28.446 30.0997 28.1083L29.879 29.0837ZM36.1133 34.104C36.1133 35.451 35.5665 36.6388 34.5032 37.4999C33.4315 38.3678 31.7981 38.932 29.5933 38.932V39.932C31.9606 39.932 33.8372 39.3262 35.1325 38.2771C36.4362 37.2212 37.1133 35.745 37.1133 34.104H36.1133ZM29.5933 38.932C26.7771 38.932 24.3627 38.0639 22.7145 36.382L22.0002 37.082C23.88 39.0001 26.5776 39.932 29.5933 39.932V38.932ZM39.8452 45.804L39.3525 45.7188L39.276 46.1614L39.7078 46.2848L39.8452 45.804ZM40.3492 42.888L40.5561 42.4328L39.9667 42.1649L39.8565 42.8028L40.3492 42.888ZM44.3092 41.484L43.851 41.2836L43.8476 41.2917L44.3092 41.484ZM45.3172 39.18L45.7753 39.3804L45.86 39.1868L45.7802 38.9912L45.3172 39.18ZM38.1532 21.612V21.112H37.4093L37.6902 21.8008L38.1532 21.612ZM41.6092 21.612L42.0737 21.4269L41.9482 21.112H41.6092V21.612ZM47.0452 35.256L46.5807 35.4411L47.0452 36.6069L47.5097 35.4411L47.0452 35.256ZM52.4812 21.612V21.112H52.1422L52.0167 21.4269L52.4812 21.612ZM55.9732 21.612L56.4352 21.8032L56.7213 21.112H55.9732V21.612ZM47.4052 42.312L46.9432 42.1208L46.9422 42.1232L47.4052 42.312ZM41.8612 46.056V46.5561L41.8683 46.5559L41.8612 46.056ZM40.3379 45.8892L40.8419 42.9732L39.8565 42.8028L39.3525 45.7188L40.3379 45.8892ZM40.1423 43.3432C40.6166 43.5588 41.3021 43.676 41.7892 43.676V42.676C41.4123 42.676 40.8738 42.5772 40.5561 42.4328L40.1423 43.3432ZM41.7892 43.676C42.4354 43.676 43.0356 43.5688 43.5588 43.239C44.0852 42.9071 44.4743 42.3877 44.7707 41.6763L43.8476 41.2917C43.6041 41.8763 43.3272 42.2029 43.0255 42.393C42.7208 42.5852 42.331 42.676 41.7892 42.676V43.676ZM44.7673 41.6844L45.7753 39.3804L44.8591 38.9796L43.8511 41.2836L44.7673 41.6844ZM45.7802 38.9912L38.6162 21.4232L37.6902 21.8008L44.8542 39.3688L45.7802 38.9912ZM38.1532 22.112H41.6092V21.112H38.1532V22.112ZM41.1447 21.7971L46.5807 35.4411L47.5097 35.0709L42.0737 21.4269L41.1447 21.7971ZM47.5097 35.4411L52.9457 21.7971L52.0167 21.4269L46.5807 35.0709L47.5097 35.4411ZM52.4812 22.112H55.9732V21.112H52.4812V22.112ZM55.5112 21.4208L46.9432 42.1208L47.8672 42.5032L56.4352 21.8032L55.5112 21.4208ZM46.9422 42.1232C46.4153 43.4151 45.719 44.2508 44.8923 44.774C44.0616 45.2997 43.0532 45.5389 41.854 45.5561L41.8683 46.5559C43.1892 46.5371 44.3948 46.2723 45.4271 45.619C46.4633 44.9632 47.2791 43.9449 47.8682 42.5008L46.9422 42.1232ZM41.8612 45.556C41.3538 45.556 40.4303 45.4512 39.9825 45.3232L39.7078 46.2848C40.2681 46.4448 41.2886 46.556 41.8612 46.556V45.556Z" fill="#0A6EBD" mask="url(#path-6-outside-1_4211_4475)"/>
<mask id="path-8-outside-2_4211_4475" maskUnits="userSpaceOnUse" x="92.5" y="20" width="53" height="20" fill="black">
<rect fill="white" x="92.5" y="20" width="53" height="20"/>
<path d="M93.012 30.288C93.012 25.248 96.648 21.18 101.724 21.18C106.944 21.18 110.184 25.248 110.184 30.576V31.368H96.432C96.684 34.32 98.844 36.768 102.336 36.768C104.172 36.768 106.188 36.048 107.484 34.716L108.996 36.84C107.268 38.532 104.82 39.432 102.012 39.432C96.828 39.432 93.012 35.76 93.012 30.288ZM101.724 23.844C98.232 23.844 96.576 26.652 96.396 29.028H107.016C106.944 26.724 105.396 23.844 101.724 23.844ZM127.732 39H124.06L119.2 32.232L114.304 39H110.632L117.148 30.072L111.028 21.612H114.7L119.2 27.876L123.664 21.612H127.336L121.18 30.072L127.732 39ZM144.587 39H141.347V37.092C139.979 38.604 137.999 39.432 135.659 39.432C132.779 39.432 129.611 37.488 129.611 33.672C129.611 29.712 132.743 27.984 135.659 27.984C137.999 27.984 140.015 28.74 141.347 30.288V27.408C141.347 25.248 139.583 23.952 137.099 23.952C135.119 23.952 133.427 24.708 131.879 26.256L130.475 24.024C132.419 22.116 134.795 21.18 137.603 21.18C141.383 21.18 144.587 22.836 144.587 27.264V39ZM141.347 35.184V32.232C140.375 30.936 138.683 30.252 136.883 30.252C134.543 30.252 132.887 31.656 132.887 33.708C132.887 35.76 134.543 37.164 136.883 37.164C138.683 37.164 140.375 36.48 141.347 35.184Z"/>
</mask>
<path d="M93.012 30.288C93.012 25.248 96.648 21.18 101.724 21.18C106.944 21.18 110.184 25.248 110.184 30.576V31.368H96.432C96.684 34.32 98.844 36.768 102.336 36.768C104.172 36.768 106.188 36.048 107.484 34.716L108.996 36.84C107.268 38.532 104.82 39.432 102.012 39.432C96.828 39.432 93.012 35.76 93.012 30.288ZM101.724 23.844C98.232 23.844 96.576 26.652 96.396 29.028H107.016C106.944 26.724 105.396 23.844 101.724 23.844ZM127.732 39H124.06L119.2 32.232L114.304 39H110.632L117.148 30.072L111.028 21.612H114.7L119.2 27.876L123.664 21.612H127.336L121.18 30.072L127.732 39ZM144.587 39H141.347V37.092C139.979 38.604 137.999 39.432 135.659 39.432C132.779 39.432 129.611 37.488 129.611 33.672C129.611 29.712 132.743 27.984 135.659 27.984C137.999 27.984 140.015 28.74 141.347 30.288V27.408C141.347 25.248 139.583 23.952 137.099 23.952C135.119 23.952 133.427 24.708 131.879 26.256L130.475 24.024C132.419 22.116 134.795 21.18 137.603 21.18C141.383 21.18 144.587 22.836 144.587 27.264V39ZM141.347 35.184V32.232C140.375 30.936 138.683 30.252 136.883 30.252C134.543 30.252 132.887 31.656 132.887 33.708C132.887 35.76 134.543 37.164 136.883 37.164C138.683 37.164 140.375 36.48 141.347 35.184Z" fill="#0A6EBD"/>
<path d="M110.184 31.368V31.868H110.684V31.368H110.184ZM96.432 31.368V30.868H95.8875L95.9338 31.4105L96.432 31.368ZM107.484 34.716L107.891 34.426L107.544 33.9377L107.126 34.3673L107.484 34.716ZM108.996 36.84L109.346 37.1973L109.651 36.8982L109.403 36.55L108.996 36.84ZM96.396 29.028L95.8974 28.9902L95.8567 29.528H96.396V29.028ZM107.016 29.028V29.528H107.532L107.516 29.0124L107.016 29.028ZM93.512 30.288C93.512 25.4931 96.9542 21.68 101.724 21.68V20.68C96.3418 20.68 92.512 25.0029 92.512 30.288H93.512ZM101.724 21.68C104.194 21.68 106.17 22.638 107.534 24.208C108.904 25.7849 109.684 28.0109 109.684 30.576H110.684C110.684 27.8131 109.844 25.3411 108.289 23.552C106.728 21.756 104.474 20.68 101.724 20.68V21.68ZM109.684 30.576V31.368H110.684V30.576H109.684ZM110.184 30.868H96.432V31.868H110.184V30.868ZM95.9338 31.4105C96.2056 34.5947 98.5585 37.268 102.336 37.268V36.268C99.1295 36.268 97.1624 34.0453 96.9302 31.3255L95.9338 31.4105ZM102.336 37.268C104.284 37.268 106.437 36.5086 107.842 35.0647L107.126 34.3673C105.939 35.5874 104.06 36.268 102.336 36.268V37.268ZM107.077 35.006L108.589 37.13L109.403 36.55L107.891 34.426L107.077 35.006ZM108.646 36.4827C107.028 38.0674 104.714 38.932 102.012 38.932V39.932C104.926 39.932 107.508 38.9966 109.346 37.1973L108.646 36.4827ZM102.012 38.932C99.5407 38.932 97.4217 38.0586 95.9216 36.5584C94.422 35.0589 93.512 32.9042 93.512 30.288H92.512C92.512 33.1438 93.51 35.5611 95.2144 37.2656C96.9183 38.9694 99.2993 39.932 102.012 39.932V38.932ZM101.724 23.344C99.8286 23.344 98.406 24.1123 97.4415 25.216C96.4876 26.3075 95.9944 27.7104 95.8974 28.9902L96.8946 29.0658C96.9776 27.9696 97.4024 26.7804 98.1945 25.874C98.976 24.9797 100.127 24.344 101.724 24.344V23.344ZM96.396 29.528H107.016V28.528H96.396V29.528ZM107.516 29.0124C107.477 27.7646 107.04 26.3551 106.101 25.2486C105.151 24.128 103.706 23.344 101.724 23.344V24.344C103.414 24.344 104.579 25 105.339 25.8954C106.11 26.8049 106.483 27.9874 106.516 29.0436L107.516 29.0124ZM127.732 39V39.5H128.719L128.135 38.7042L127.732 39ZM124.06 39L123.654 39.2916L123.803 39.5H124.06V39ZM119.2 32.232L119.606 31.9404L119.201 31.3769L118.795 31.9389L119.2 32.232ZM114.304 39V39.5H114.559L114.709 39.2931L114.304 39ZM110.632 39L110.228 38.7052L109.648 39.5H110.632V39ZM117.148 30.072L117.552 30.3668L117.766 30.0733L117.553 29.7789L117.148 30.072ZM111.028 21.612V21.112H110.049L110.623 21.9051L111.028 21.612ZM114.7 21.612L115.106 21.3203L114.956 21.112H114.7V21.612ZM119.2 27.876L118.794 28.1677L119.201 28.7353L119.607 28.1662L119.2 27.876ZM123.664 21.612V21.112H123.406L123.257 21.3218L123.664 21.612ZM127.336 21.612L127.74 21.9062L128.318 21.112H127.336V21.612ZM121.18 30.072L120.775 29.7778L120.56 30.0733L120.777 30.3678L121.18 30.072ZM127.732 38.5H124.06V39.5H127.732V38.5ZM124.466 38.7084L119.606 31.9404L118.794 32.5236L123.654 39.2916L124.466 38.7084ZM118.795 31.9389L113.899 38.7069L114.709 39.2931L119.605 32.5251L118.795 31.9389ZM114.304 38.5H110.632V39.5H114.304V38.5ZM111.036 39.2948L117.552 30.3668L116.744 29.7772L110.228 38.7052L111.036 39.2948ZM117.553 29.7789L111.433 21.3189L110.623 21.9051L116.743 30.3651L117.553 29.7789ZM111.028 22.112H114.7V21.112H111.028V22.112ZM114.294 21.9037L118.794 28.1677L119.606 27.5843L115.106 21.3203L114.294 21.9037ZM119.607 28.1662L124.071 21.9022L123.257 21.3218L118.793 27.5858L119.607 28.1662ZM123.664 22.112H127.336V21.112H123.664V22.112ZM126.931 21.3178L120.775 29.7778L121.584 30.3662L127.74 21.9062L126.931 21.3178ZM120.777 30.3678L127.329 39.2958L128.135 38.7042L121.583 29.7762L120.777 30.3678ZM144.587 39V39.5H145.087V39H144.587ZM141.347 39H140.847V39.5H141.347V39ZM141.347 37.092H141.847V35.7941L140.977 36.7565L141.347 37.092ZM141.347 30.288L140.968 30.6141L141.847 31.6357V30.288H141.347ZM131.879 26.256L131.456 26.5222L131.79 27.0527L132.233 26.6096L131.879 26.256ZM130.475 24.024L130.125 23.6672L129.838 23.9493L130.052 24.2902L130.475 24.024ZM141.347 35.184L141.747 35.484L141.847 35.3507V35.184H141.347ZM141.347 32.232H141.847V32.0653L141.747 31.932L141.347 32.232ZM144.587 38.5H141.347V39.5H144.587V38.5ZM141.847 39V37.092H140.847V39H141.847ZM140.977 36.7565C139.716 38.1502 137.877 38.932 135.659 38.932V39.932C138.121 39.932 140.243 39.0578 141.718 37.4275L140.977 36.7565ZM135.659 38.932C132.968 38.932 130.111 37.1317 130.111 33.672H129.111C129.111 37.8443 132.591 39.932 135.659 39.932V38.932ZM130.111 33.672C130.111 31.8395 130.829 30.5618 131.856 29.7319C132.898 28.8903 134.292 28.484 135.659 28.484V27.484C134.11 27.484 132.481 27.9417 131.228 28.9541C129.96 29.9782 129.111 31.5445 129.111 33.672H130.111ZM135.659 28.484C137.894 28.484 139.755 29.2038 140.968 30.6141L141.726 29.9619C140.276 28.2762 138.105 27.484 135.659 27.484V28.484ZM141.847 30.288V27.408H140.847V30.288H141.847ZM141.847 27.408C141.847 26.1775 141.338 25.1681 140.465 24.4777C139.604 23.7969 138.423 23.452 137.099 23.452V24.452C138.26 24.452 139.203 24.7551 139.845 25.2623C140.474 25.7599 140.847 26.4785 140.847 27.408H141.847ZM137.099 23.452C134.97 23.452 133.155 24.2733 131.526 25.9024L132.233 26.6096C133.7 25.1427 135.269 24.452 137.099 24.452V23.452ZM132.303 25.9898L130.899 23.7578L130.052 24.2902L131.456 26.5222L132.303 25.9898ZM130.826 24.3808C132.671 22.5693 134.919 21.68 137.603 21.68V20.68C134.671 20.68 132.167 21.6627 130.125 23.6672L130.826 24.3808ZM137.603 21.68C139.431 21.68 141.055 22.0819 142.21 22.9596C143.343 23.8205 144.087 25.1851 144.087 27.264H145.087C145.087 24.9149 144.229 23.2375 142.815 22.1634C141.424 21.1061 139.556 20.68 137.603 20.68V21.68ZM144.087 27.264V39H145.087V27.264H144.087ZM141.847 35.184V32.232H140.847V35.184H141.847ZM141.747 31.932C140.658 30.479 138.797 29.752 136.883 29.752V30.752C138.569 30.752 140.093 31.393 140.947 32.532L141.747 31.932ZM136.883 29.752C135.615 29.752 134.494 30.1329 133.682 30.8314C132.864 31.5349 132.387 32.5378 132.387 33.708H133.387C133.387 32.8262 133.739 32.1011 134.334 31.5896C134.935 31.0731 135.811 30.752 136.883 30.752V29.752ZM132.387 33.708C132.387 34.8782 132.864 35.8811 133.682 36.5846C134.494 37.2831 135.615 37.664 136.883 37.664V36.664C135.811 36.664 134.935 36.3429 134.334 35.8264C133.739 35.3149 133.387 34.5898 133.387 33.708H132.387ZM136.883 37.664C138.797 37.664 140.658 36.937 141.747 35.484L140.947 34.884C140.093 36.023 138.569 36.664 136.883 36.664V37.664Z" fill="#0A6EBD" mask="url(#path-8-outside-2_4211_4475)"/>
</svg>
