<svg width="29" height="28" viewBox="0 0 29 28" fill="none" xmlns="http://www.w3.org/2000/svg">
<g id="mutlu">
<g clip-path="url(#clip0_3345_8721)">
<path id="Vector" d="M28.5693 0H0.569336V28H28.5693V0Z" fill="#FEE278"/>
<g id="Group 48095585">
<path id="Vector_2" d="M22.7425 12.0512C22.889 12.1423 23.0811 12.0381 23.0811 11.8656C23.0811 10.8335 22.2476 10 21.2188 10C20.1899 10 19.3564 10.8335 19.3564 11.8623C19.3564 12.0381 19.5485 12.1391 19.6951 12.0512C20.1378 11.7777 20.6588 11.6181 21.2155 11.6181C21.7723 11.6181 22.2964 11.7777 22.736 12.0512H22.7425Z" fill="#0B1215"/>
<path id="Vector_3" d="M9.45538 12.0512C9.60189 12.1423 9.79399 12.0381 9.79399 11.8656C9.79399 10.8335 8.9605 10 7.93166 10C6.90282 10 6.06934 10.8335 6.06934 11.8623C6.06934 12.0381 6.26143 12.1391 6.40794 12.0512C6.85073 11.7777 7.37166 11.6181 7.93166 11.6181C8.49166 11.6181 9.01259 11.7777 9.45538 12.0512Z" fill="#0B1215"/>
<path id="Vector_4" d="M14.6549 20.2852C12.2977 20.2852 9.96326 19.3735 8.25396 17.7847C7.97396 17.5242 7.96093 17.0912 8.21814 16.8112C8.47535 16.5312 8.91163 16.5149 9.19163 16.7754C10.6502 18.1298 12.6395 18.9079 14.6549 18.9079C16.6702 18.9079 18.5358 18.1786 19.9781 16.9024C20.2647 16.6517 20.6977 16.6777 20.9516 16.961C21.2023 17.2475 21.1763 17.6805 20.893 17.9345C19.1805 19.4517 16.9633 20.2852 14.6581 20.2852H14.6549Z" fill="#0B1215"/>
</g>
</g>
</g>
<defs>
<clipPath id="clip0_3345_8721">
<rect x="0.569336" width="28" height="28" rx="14" fill="white"/>
</clipPath>
</defs>
</svg>
