<svg width="24" height="24" viewBox="0 0 24 24" fill="none" xmlns="http://www.w3.org/2000/svg">
<g id="hugeicons:customer-support">
<g id="Group">
<path id="Vector" d="M17 10.3967C17 10.0507 17 9.87767 17.052 9.72367C17.203 9.27567 17.602 9.10267 18.002 8.92067C18.45 8.71567 18.674 8.61367 18.897 8.59567C19.149 8.57567 19.402 8.62967 19.618 8.75067C19.904 8.91067 20.104 9.21667 20.308 9.46467C21.251 10.6107 21.723 11.1837 21.895 11.8147C22.035 12.3247 22.035 12.8587 21.895 13.3677C21.644 14.2897 20.849 15.0617 20.26 15.7777C19.959 16.1427 19.808 16.3257 19.618 16.4327C19.3983 16.5545 19.1474 16.6085 18.897 16.5877C18.674 16.5697 18.45 16.4677 18.001 16.2627C17.601 16.0807 17.203 15.9077 17.052 15.4597C17 15.3057 17 15.1327 17 14.7867V10.3967ZM7.00003 10.3967C7.00003 9.96067 6.98803 9.56967 6.63603 9.26367C6.50803 9.15267 6.33803 9.07567 5.99903 8.92067C5.55003 8.71667 5.32603 8.61367 5.10303 8.59567C4.43603 8.54167 4.07703 8.99767 3.69303 9.46567C2.74903 10.6107 2.27703 11.1837 2.10403 11.8157C1.96483 12.324 1.96483 12.8604 2.10403 13.3687C2.35603 14.2897 3.15203 15.0627 3.74003 15.7777C4.11103 16.2277 4.46603 16.6387 5.10303 16.5877C5.32603 16.5697 5.55003 16.4677 5.99903 16.2627C6.33903 16.1087 6.50803 16.0307 6.63603 15.9197C6.98803 15.6137 7.00003 15.2227 7.00003 14.7877V10.3967Z" stroke="#0B1215" stroke-width="1.5" stroke-linecap="round" stroke-linejoin="round"/>
<path id="Vector_2" d="M5 8.59167C5 5.27767 8.134 2.59167 12 2.59167C15.866 2.59167 19 5.27767 19 8.59167M19 16.5917V17.3917C19 19.1587 17.21 20.5917 15 20.5917H13" stroke="#0B1215" stroke-width="1.5" stroke-linecap="round" stroke-linejoin="round"/>
</g>
</g>
</svg>
