<svg width="24" height="24" viewBox="0 0 24 24" fill="none" xmlns="http://www.w3.org/2000/svg">
<g id="solar:like-broken">
<path id="Vector" d="M2.79999 10.0338L3.54699 9.96982C3.52977 9.77773 3.43922 9.59966 3.29415 9.47259C3.14908 9.34552 2.96063 9.27922 2.76795 9.28746C2.57527 9.29569 2.39317 9.37784 2.25947 9.51683C2.12577 9.65582 2.05075 9.84097 2.04999 10.0338H2.79999ZM20.036 11.8568L19.33 15.9368L20.809 16.1928L21.514 12.1128L20.036 11.8568ZM13.045 21.0498H8.39599V22.5498H13.045V21.0498ZM7.48499 20.2128L6.67299 10.8198L5.17799 10.9488L5.99099 20.3418L7.48499 20.2128ZM19.33 15.9368C18.823 18.8668 16.181 21.0498 13.045 21.0498V22.5498C16.871 22.5498 20.171 19.8808 20.809 16.1928L19.33 15.9368ZM13.055 4.89982L12.392 8.94482L13.872 9.18682L14.535 5.14282L13.055 4.89982ZM6.98799 10.0458L8.42699 8.80582L7.44699 7.66982L6.00999 8.90982L6.98799 10.0458ZM11.044 4.77182L11.52 2.93782L10.068 2.56182L9.59199 4.39482L11.044 4.77182ZM12.238 2.57782L12.383 2.62482L12.842 1.19682L12.697 1.14982L12.238 2.57782ZM10.323 6.61582C10.6354 6.03181 10.8774 5.41283 11.044 4.77182L9.59199 4.39482C9.45527 4.92146 9.25655 5.43001 8.99999 5.90982L10.323 6.61582ZM12.383 2.62482C12.5257 2.66806 12.6551 2.74665 12.7593 2.85329C12.8635 2.95994 12.9391 3.09117 12.979 3.23482L14.431 2.85882C14.3277 2.47033 14.1278 2.11425 13.85 1.82368C13.5722 1.53312 13.2255 1.31748 12.842 1.19682L12.383 2.62482ZM11.52 2.93782C11.5399 2.86579 11.5753 2.79897 11.6236 2.74198C11.672 2.685 11.7322 2.63922 11.8 2.60782L11.149 1.25682C10.617 1.51282 10.217 1.98682 10.068 2.56182L11.52 2.93782ZM11.8 2.60782C11.9369 2.54245 12.0935 2.53172 12.238 2.57782L12.697 1.14982C12.1863 0.98614 11.6323 1.02443 11.149 1.25682L11.8 2.60782ZM13.954 10.7838H19.134V9.28382H13.954V10.7838ZM4.51899 21.2058L3.54699 9.96982L2.05299 10.0988L3.02299 21.3348L4.51899 21.2058ZM3.54999 21.3128V10.0338H2.04999V21.3128H3.54999ZM3.02299 21.3348C3.01994 21.2985 3.02548 21.2619 3.03732 21.2274C3.04917 21.1929 3.06805 21.1613 3.09279 21.1345C3.11752 21.1077 3.14756 21.0863 3.18099 21.0717C3.21442 21.0572 3.25052 21.0497 3.28699 21.0498V22.5498C4.01299 22.5498 4.58099 21.9278 4.51899 21.2058L3.02299 21.3348ZM14.535 5.14282C14.6597 4.38255 14.6243 3.60461 14.431 2.85882L12.979 3.23582C13.1199 3.77914 13.1458 4.34591 13.055 4.89982L14.535 5.14282ZM8.39599 21.0498C8.167 21.0494 7.94646 20.9633 7.77784 20.8083C7.60922 20.6534 7.50474 20.441 7.48499 20.2128L5.99099 20.3418C6.04302 20.944 6.31887 21.5048 6.76409 21.9135C7.20932 22.3223 7.79158 22.5493 8.39599 22.5498V21.0498ZM8.42699 8.80582C9.10699 8.21982 9.83899 7.52282 10.324 6.61582L8.99999 5.90982C8.65399 6.55882 8.10299 7.10582 7.44699 7.66982L8.42699 8.80582ZM21.514 12.1128C21.5742 11.7658 21.5578 11.4098 21.466 11.0698C21.3741 10.7298 21.2091 10.414 20.9823 10.1445C20.7556 9.87497 20.4727 9.65829 20.1534 9.50962C19.8341 9.36095 19.4862 9.28389 19.134 9.28382V10.7838C19.701 10.7838 20.134 11.2958 20.036 11.8568L21.514 12.1128ZM3.28699 21.0498C3.43299 21.0498 3.54999 21.1678 3.54999 21.3128H2.04999C2.04999 21.9948 2.60299 22.5498 3.28699 22.5498V21.0498ZM12.392 8.94482C12.3547 9.1714 12.3672 9.40338 12.4285 9.62466C12.4898 9.84594 12.5986 10.0512 12.7472 10.2263C12.8958 10.4013 13.0807 10.542 13.2891 10.6384C13.4975 10.7349 13.7244 10.7838 13.954 10.7838V9.28382C13.9418 9.28388 13.9297 9.28224 13.9187 9.2771C13.9076 9.27196 13.8978 9.26444 13.89 9.25508C13.8821 9.24573 13.8765 9.23476 13.8734 9.22296C13.8703 9.21116 13.8698 9.19882 13.872 9.18682L12.392 8.94482ZM6.67299 10.8198C6.66063 10.675 6.68183 10.5293 6.73676 10.3948C6.7917 10.2602 6.8778 10.1406 6.98799 10.0458L6.00799 8.90882C5.718 9.15885 5.49154 9.47418 5.34724 9.82884C5.20295 10.1835 5.14494 10.5674 5.17799 10.9488L6.67299 10.8198Z" fill="#0B1215"/>
</g>
</svg>
