<svg width="29" height="28" viewBox="0 0 29 28" fill="none" xmlns="http://www.w3.org/2000/svg">
<g id="mutlu">
<g clip-path="url(#clip0_3345_8755)">
<path id="Vector" d="M28.6973 0H0.697266V28H28.6973V0Z" fill="#AFF06E"/>
<path id="Vector_2" d="M14.8115 18.8446C13.8194 18.8446 12.9263 19.2743 12.2949 19.9581C13.0455 20.1827 13.8514 20.3064 14.6952 20.3064C15.6087 20.3064 16.4786 20.1599 17.2758 19.8962C16.6474 19.245 15.7746 18.8413 14.8115 18.8413V18.8446Z" fill="#E55725"/>
<g id="Group 48095591">
<path id="Vector_3" d="M27.4481 13.7913C27.9805 14.1364 28.4053 14.6117 28.6089 15.2759C28.8068 15.9141 28.6904 16.7117 28.2104 17.122C27.7827 17.4899 27.1572 17.4703 26.68 17.1936C25.9003 16.7443 25.3824 15.6731 25.0682 14.7941C24.8122 14.0745 24.4543 13.5731 23.9365 13.1466C23.8172 13.049 23.8841 12.8406 24.0296 12.8569C25.1148 12.9741 26.4676 13.1629 27.4481 13.7945V13.7913Z" fill="#61C0EB"/>
<g id="Group 48095590">
<path id="Vector_4" d="M1.95005 13.7915C1.41763 14.1366 0.995768 14.6119 0.789201 15.2761C0.591362 15.9143 0.707738 16.7119 1.18779 17.1222C1.61547 17.4901 2.24099 17.4705 2.71813 17.1938C3.49785 16.7445 4.01572 15.6733 4.32993 14.7943C4.58596 14.0747 4.94381 13.5733 5.46169 13.1468C5.58097 13.0491 5.51406 12.8408 5.36859 12.857C4.28338 12.9743 2.92761 13.1631 1.95005 13.7947V13.7915Z" fill="#61C0EB"/>
<g id="Group 48095589">
<path id="Vector_5" d="M8.29972 15.4453C7.92731 15.4453 7.66838 15.8458 7.7673 16.2495C8.42773 18.9355 11.276 20.9607 14.6975 20.9607C18.1189 20.9607 21.005 18.9128 21.6393 16.2007C21.7295 15.8165 21.4502 15.4486 21.0981 15.4486H8.29972V15.4453Z" fill="#0B1215"/>
<g id="Group 48095588">
<path id="Vector_6" d="M23.0248 12.6845C23.1557 12.7756 23.3274 12.6714 23.3274 12.4989C23.3274 11.4668 22.5826 10.6333 21.6632 10.6333C20.7439 10.6333 20.002 11.4668 20.002 12.4956C20.002 12.6714 20.1736 12.7756 20.3045 12.6845C20.7002 12.411 21.1657 12.2514 21.6661 12.2514C22.1665 12.2514 22.632 12.411 23.0277 12.6845H23.0248Z" fill="#0B1215"/>
<path id="Vector_7" d="M9.09999 12.6845C9.23091 12.7756 9.40256 12.6714 9.40256 12.4989C9.40256 11.4668 8.65776 10.6333 7.73839 10.6333C6.81902 10.6333 6.07422 11.4668 6.07422 12.4956C6.07422 12.6714 6.24587 12.7756 6.3768 12.6845C6.77247 12.411 7.23798 12.2514 7.73839 12.2514C8.23881 12.2514 8.70431 12.411 9.09999 12.6845Z" fill="#0B1215"/>
<path id="Vector_8" d="M6.59114 9.49372C6.56205 9.49372 6.53004 9.49046 6.50095 9.48395C6.27984 9.4286 6.14018 9.18442 6.18964 8.93697C6.34675 8.15232 6.78898 7.54349 7.43777 7.22767C8.08366 6.9086 8.85465 6.93465 9.40452 7.29279C9.59945 7.41977 9.66637 7.69977 9.5529 7.92116C9.43944 8.1393 9.18923 8.21418 8.99139 8.08721C8.66845 7.87884 8.17676 7.86907 7.76654 8.07093C7.48142 8.21093 7.11774 8.51046 6.99264 9.13883C6.949 9.35372 6.78025 9.50023 6.59405 9.50023L6.59114 9.49372Z" fill="#0B1215"/>
<path id="Vector_9" d="M22.811 9.49381C22.6248 9.49381 22.4532 9.3473 22.4124 9.13241C22.2873 8.50078 21.9207 8.20451 21.6385 8.06451C21.2312 7.8659 20.7366 7.87241 20.4137 8.08078C20.2158 8.20776 19.9656 8.13288 19.8522 7.91474C19.7387 7.6966 19.8056 7.41334 20.0005 7.28637C20.5475 6.92823 21.3214 6.90544 21.9673 7.22125C22.6161 7.54032 23.0583 8.1459 23.2154 8.93055C23.2649 9.17799 23.1252 9.42218 22.9041 9.47753C22.8721 9.48404 22.843 9.4873 22.8139 9.4873L22.811 9.49381Z" fill="#0B1215"/>
</g>
</g>
</g>
</g>
<g id="Group">
<path id="Vector_10" d="M15.6845 16.8333C16.3973 16.8757 17.1043 17.0026 17.82 16.9864C17.7706 16.384 17.7356 15.8208 17.6542 15.1696H15.7136C15.6787 15.8208 15.6787 16.2831 15.6845 16.8333Z" fill="#FEFEFE"/>
<path id="Vector_11" d="M12.3662 16.9116C13.1866 16.8335 13.9984 16.9963 14.8188 16.9865C14.8304 16.3809 14.8304 15.8177 14.8188 15.1665H12.4767C12.4535 15.8177 12.4098 16.3321 12.3633 16.9084L12.3662 16.9116Z" fill="#FEFEFE"/>
</g>
</g>
</g>
<defs>
<clipPath id="clip0_3345_8755">
<rect x="0.697266" width="28" height="28" rx="14" fill="white"/>
</clipPath>
</defs>
</svg>
