<svg width="24" height="24" viewBox="0 0 24 24" fill="none" xmlns="http://www.w3.org/2000/svg">
<g id="mynaui:rows">
<path id="Vector" d="M2.7998 6.29999C2.7998 6.03477 2.90516 5.78042 3.0927 5.59288C3.28023 5.40534 3.53459 5.29999 3.7998 5.29999H19.7998C20.065 5.29999 20.3194 5.40534 20.5069 5.59288C20.6944 5.78042 20.7998 6.03477 20.7998 6.29999V9.29999C20.7998 9.5652 20.6944 9.81956 20.5069 10.0071C20.3194 10.1946 20.065 10.3 19.7998 10.3H3.7998C3.53459 10.3 3.28023 10.1946 3.0927 10.0071C2.90516 9.81956 2.7998 9.5652 2.7998 9.29999V6.29999ZM2.7998 14.3C2.7998 14.0348 2.90516 13.7804 3.0927 13.5929C3.28023 13.4053 3.53459 13.3 3.7998 13.3H19.7998C20.065 13.3 20.3194 13.4053 20.5069 13.5929C20.6944 13.7804 20.7998 14.0348 20.7998 14.3V17.3C20.7998 17.5652 20.6944 17.8196 20.5069 18.0071C20.3194 18.1946 20.065 18.3 19.7998 18.3H3.7998C3.53459 18.3 3.28023 18.1946 3.0927 18.0071C2.90516 17.8196 2.7998 17.5652 2.7998 17.3V14.3Z" stroke="#0B1215" stroke-width="1.5" stroke-linecap="round" stroke-linejoin="round"/>
</g>
</svg>
