<svg width="29" height="28" viewBox="0 0 29 28" fill="none" xmlns="http://www.w3.org/2000/svg">
<g id="sad">
<g clip-path="url(#clip0_3345_8741)">
<path id="Vector" d="M30.6523 -2H-1.34766V30H30.6523V-2Z" fill="#64C6EA"/>
<g id="Group 48095587">
<path id="Vector_2" d="M20.7094 20.1032C20.5159 20.1032 20.3261 20.0369 20.1736 19.9044C18.8638 18.7605 17.0815 18.091 15.154 18.0212C13.0108 17.9445 10.9717 18.628 9.55403 19.8974C9.24147 20.1799 8.73915 20.1659 8.44147 19.873C8.14008 19.5801 8.15124 19.1093 8.46752 18.8303C10.1903 17.2889 12.6536 16.4554 15.2136 16.5461C17.5168 16.6298 19.6601 17.4353 21.2489 18.8233C21.5689 19.1023 21.5838 19.5696 21.2898 19.866C21.1336 20.023 20.9252 20.0997 20.7131 20.0997L20.7094 20.1032Z" fill="#0B1215"/>
<path id="Vector_3" d="M24.5837 15.7858C24.5354 15.7858 24.487 15.7788 24.4349 15.7649L21.0154 14.8303C20.8107 14.7745 20.6619 14.6071 20.6395 14.4048C20.6172 14.206 20.7288 14.0142 20.9186 13.9201C20.9186 13.9201 23.5791 12.6298 24.3754 12.2322C24.6321 12.1032 24.9484 12.1938 25.0861 12.4345C25.2237 12.6751 25.127 12.9715 24.8702 13.1006C24.4237 13.3237 23.3893 13.8294 22.567 14.227L24.7288 14.8198C25.0079 14.8965 25.1679 15.1686 25.0861 15.4301C25.0191 15.6463 24.8107 15.7858 24.5837 15.7858Z" fill="#0B1215"/>
<path id="Vector_4" d="M5.28668 15.7858C5.0597 15.7858 4.85133 15.6463 4.78435 15.4301C4.70249 15.1686 4.86249 14.8965 5.14156 14.8198L7.30342 14.227C6.4811 13.8259 5.44668 13.3237 5.00017 13.1006C4.74342 12.9715 4.64668 12.6751 4.78435 12.4345C4.92203 12.1938 5.23831 12.1032 5.49505 12.2322C6.29133 12.6298 8.95179 13.9201 8.95179 13.9201C9.14156 14.0142 9.25319 14.206 9.23458 14.4048C9.21226 14.6036 9.06342 14.7745 8.85877 14.8303L5.43924 15.7649C5.39086 15.7788 5.34249 15.7858 5.2904 15.7858H5.28668Z" fill="#0B1215"/>
<path id="Vector_5" d="M25.3571 10.5442C25.331 10.5442 25.305 10.5442 25.2752 10.5372C22.6557 10.1571 21.3422 8.1693 21.2864 8.08212C21.1375 7.84847 21.2157 7.54855 21.4613 7.40557C21.7106 7.26259 22.0306 7.33931 22.1831 7.56948C22.2017 7.59738 23.318 9.25387 25.4352 9.56076C25.7217 9.60261 25.9189 9.8537 25.8743 10.1222C25.8334 10.3663 25.6101 10.5407 25.3571 10.5407V10.5442Z" fill="#0B1215"/>
<path id="Vector_6" d="M4.50887 10.5443C4.25585 10.5443 4.02887 10.3699 3.99166 10.1258C3.94701 9.85726 4.14422 9.60617 4.43073 9.56432C6.57026 9.25394 7.66794 7.59048 7.6791 7.57304C7.82794 7.33939 8.15166 7.26615 8.40096 7.40913C8.65026 7.55211 8.7284 7.85203 8.57585 8.08568C8.52003 8.16938 7.20654 10.1607 4.58701 10.5408C4.56096 10.5443 4.53492 10.5478 4.50515 10.5478L4.50887 10.5443Z" fill="#0B1215"/>
</g>
</g>
</g>
<defs>
<clipPath id="clip0_3345_8741">
<rect x="-1.34766" y="-2" width="32" height="32" rx="8" fill="white"/>
</clipPath>
</defs>
</svg>
