<svg xmlns="http://www.w3.org/2000/svg" width="16" height="17" viewBox="0 0 16 17" fill="none">
  <path d="M15.9562 8.33183C15.9562 7.7782 15.9114 7.22159 15.8157 6.67694H8.13867V9.81315H12.5349C12.3525 10.8246 11.7663 11.7194 10.908 12.288V14.3229H13.5308C15.071 12.9045 15.9562 10.8097 15.9562 8.33183Z" fill="#4285F4"/>
  <path d="M8.13948 16.2891C10.3346 16.2891 12.1858 15.5679 13.5346 14.323L10.9118 12.2881C10.1821 12.7849 9.24004 13.0662 8.14247 13.0662C6.01911 13.0662 4.21873 11.6327 3.57275 9.70551H0.866211V11.8033C2.24789 14.5535 5.0621 16.2891 8.13948 16.2891Z" fill="#34A853"/>
  <path d="M3.56935 9.70542C3.22841 8.69393 3.22841 7.59865 3.56935 6.58717V4.48938H0.865794C-0.288598 6.79066 -0.288598 9.50192 0.865794 11.8032L3.56935 9.70542Z" fill="#FBBC04"/>
  <path d="M8.13948 3.22354C9.29986 3.20558 10.4214 3.6425 11.2617 4.4445L13.5855 2.11928C12.1141 0.736719 10.1612 -0.0233917 8.13948 0.000548832C5.0621 0.000548832 2.24789 1.73623 0.866211 4.48939L3.56976 6.58718C4.21275 4.65697 6.01612 3.22354 8.13948 3.22354Z" fill="#EA4335"/>
</svg>