<svg width="510" height="1024" viewBox="0 0 510 1024" fill="none" xmlns="http://www.w3.org/2000/svg">
<rect width="510" height="1024" fill="#0A6EBD"/>
<path opacity="0.15" d="M821.438 604.083C821.438 604.039 821.393 604.039 821.393 604.039C821.393 603.994 821.438 603.994 821.393 603.949L809.761 562.934L820.315 499.098C820.315 499.053 820.27 499.053 820.27 499.053L820.315 499.009L813.039 442.9C813.039 442.855 812.994 442.855 812.994 442.855C812.994 442.81 812.994 442.765 812.994 442.765L791.527 399.324C791.527 399.279 791.482 399.324 791.437 399.279V399.235C791.437 399.235 791.437 399.235 791.437 399.19L760.897 368.238H760.852V368.193C760.852 368.193 760.852 368.193 760.807 368.193L720.387 345.147L714.369 286.478C714.369 286.433 714.324 286.433 714.324 286.433C714.324 286.388 714.324 286.343 714.324 286.298L688.5 237.332C688.5 237.287 688.455 237.332 688.41 237.287C688.41 237.287 688.41 237.242 688.41 237.197H688.365V237.152L649.742 206.29C649.742 206.29 649.742 206.29 649.697 206.29H649.652C649.607 206.29 649.607 206.245 649.607 206.245L598.902 189.264L573.842 134.234C573.842 134.189 573.797 134.234 573.797 134.189C573.752 134.144 573.797 134.099 573.752 134.054L527.089 89.7599H527.044C526.999 89.7599 526.999 89.715 526.954 89.67L482.762 68.691H482.717C482.672 68.691 482.672 68.6461 482.672 68.6461L417.775 56.2473L347.848 15.2326C347.803 15.2326 347.803 15.2326 347.758 15.2326C347.713 15.2326 347.668 15.1428 347.623 15.1428L276.349 8C276.304 8 276.259 8 276.259 8C276.259 8 276.259 8 276.214 8C276.169 8 276.169 8 276.125 8C276.08 8 276.035 8.00001 276.035 8.04493L206.826 35.4929L140.762 16.1311C140.717 16.1311 140.717 16.1311 140.672 16.1311C140.627 16.1311 140.627 16.0862 140.627 16.0862H89.9222C89.8773 16.0862 89.8773 16.1311 89.8324 16.1311H89.7875L27.5854 32.3034C27.5404 32.3034 27.5404 32.3483 27.5404 32.3483C27.4955 32.3932 27.4057 32.3932 27.3608 32.3932L-15.5295 72.1501L-85.0522 70.9821C-85.0971 70.9821 -85.0971 71.027 -85.1421 71.027C-85.187 71.027 -85.2319 70.9821 -85.2768 71.027L-144.425 95.51C-144.47 95.51 -144.425 95.555 -144.47 95.555C-144.515 95.555 -144.56 95.555 -144.605 95.5999L-189.74 140.927L-223.199 149.283C-223.244 149.283 -223.244 149.328 -223.244 149.328H-223.289L-267.123 172.643C-267.168 172.643 -267.123 172.688 -267.168 172.688C-267.212 172.688 -267.213 172.688 -267.257 172.733L-298.111 203.999C-298.156 204.044 -298.111 204.089 -298.156 204.089C-298.156 204.134 -298.201 204.134 -298.201 204.134L-325.013 269.362L-356.99 296.72V296.765C-357.035 296.81 -357.08 296.81 -357.08 296.855L-384.431 346.54C-384.431 346.585 -384.431 346.585 -384.431 346.63C-384.431 346.63 -384.431 346.63 -384.476 346.675C-384.476 346.675 -384.521 346.675 -384.521 346.719L-390 392.586C-390 392.631 -389.955 392.631 -389.955 392.676C-389.955 392.721 -390 392.721 -390 392.766L-381.287 438.991C-381.287 439.036 -381.242 439.036 -381.242 439.036V439.081L-357.125 493.258L-331.66 545.459C-331.66 545.504 -331.615 545.459 -331.615 545.504C-331.615 545.549 -331.615 545.549 -331.615 545.594L-298.111 582.431C-298.067 582.475 -298.067 582.431 -298.022 582.476C-298.022 582.476 -298.022 582.52 -297.977 582.52L-243.14 613.203C-243.095 613.248 -243.05 613.248 -242.96 613.248L-153.138 622.951L-129.29 674.388C-129.29 674.388 -129.245 674.388 -129.245 674.433V674.478C-129.245 674.478 -129.245 674.478 -129.2 674.478C-129.2 674.478 -129.2 674.478 -129.2 674.523L-91.2051 717.245C-91.2051 717.245 -91.1602 717.245 -91.1153 717.289C-91.1153 717.289 -91.0704 717.334 -91.0704 717.379L-30.7993 753.632C-30.7544 753.632 -30.7545 753.632 -30.7096 753.677C-30.7096 753.677 -30.7095 753.677 -30.6646 753.722L28.0794 770.029H28.1243C28.1692 770.029 28.1692 770.029 28.1692 770.029L112.468 774.162C112.468 774.162 112.468 774.162 112.513 774.162H112.558L185.898 765.177L200.18 808.214C200.18 808.259 200.224 808.259 200.269 808.304C200.269 808.348 200.269 808.393 200.314 808.393L223.893 833.326C223.938 833.371 223.982 833.371 224.027 833.371C224.072 833.371 224.027 833.415 224.072 833.415L243.16 840.603L273.43 893.253L306.17 950.215L325.617 984.042L348.477 1023.8C348.566 1023.93 348.746 1024.02 348.926 1024.02H348.971H415.35C415.439 1024.02 415.529 1023.98 415.619 1023.93C415.664 1023.89 415.664 1023.8 415.709 1023.75C415.754 1023.71 415.844 1023.71 415.844 1023.66C415.844 1023.62 415.799 1023.57 415.799 1023.53C415.799 1023.48 415.888 1023.44 415.844 1023.39L403.313 964.366L393.118 916.478L449.841 930.314C449.931 930.359 449.931 930.359 449.976 930.359H524.349C524.439 930.359 524.484 930.359 524.529 930.314L590.459 902.777C590.459 902.777 590.459 902.732 590.504 902.732C590.549 902.732 590.594 902.732 590.638 902.687C590.638 902.687 590.638 902.687 590.638 902.642H590.683L629.756 855.877C629.801 855.832 629.756 855.832 629.801 855.787C629.801 855.742 629.846 855.742 629.846 855.742L649.427 799.454L728.516 772.32C728.516 772.32 728.516 772.275 728.561 772.275C728.606 772.275 728.651 772.275 728.651 772.23L782.185 733.417C782.23 733.417 782.23 733.372 782.23 733.327C782.23 733.327 782.275 733.327 782.32 733.282L808.054 697.299C808.099 697.254 808.054 697.209 808.054 697.209C808.054 697.164 808.099 697.209 808.099 697.164L821.527 652.51C821.527 652.466 821.527 652.466 821.527 652.421L821.573 652.376V604.083H821.438ZM-297.797 581.397L-330.313 545.639L-244.532 526.142L-262.093 544.381L-297.797 581.397ZM-356.496 297.753L-266.584 331.131L-341.631 340.79L-383.084 346.136L-356.496 297.753ZM-297.617 205.212L-228.993 266.128L-264.203 267.251L-323.891 269.137L-297.617 205.212ZM307.473 949.362L339.18 894.241L352.698 933.953L356.381 944.78L332.219 947.026L307.473 949.362ZM256.633 783.192L261.977 774.836L273.115 807.809L225.599 831.708L256.633 783.192ZM140.133 17.7483L146.645 86.0762L80.6256 79.8319L132.094 26.1489L140.133 17.7483ZM347.444 17.0745L370.349 95.7347L324.404 72.3747L342.548 28.8892L347.444 17.0745ZM482.312 70.1735L500.187 127.585L480.157 124.351L449.168 119.364L470.456 87.7833L482.312 70.1735ZM748.502 402.649L741.63 422.999L718.007 405.524L759.46 370.08L748.502 402.649ZM818.024 499.143L767.005 518.056V487.553L794.671 493.842L818.024 499.143ZM647.811 798.555L555.922 807.45L566.791 786.156L592.255 736.247L609.456 755.519L647.811 798.555ZM415.844 842.67L399.406 854.799L331.904 776.363L330.288 774.476L468.794 803.587L415.844 842.67ZM126.345 628.836L161.87 706.463L141.031 701.521L82.1526 687.595L95.7158 669.581L126.345 628.836ZM-138.092 159.795L-143.751 96.5433L-27.97 115.007L-135.667 158.807L-138.092 159.795ZM147.678 87.1094L155.223 86.6602L251.199 80.8651L138.561 140.433L142.873 115.186L147.678 87.1094ZM553.991 807.495L470.77 802.868L497.852 731.845L525.697 769.4L553.991 807.495ZM174.086 633.104L181.407 633.823L165.059 696.49L162.679 705.654L127.333 628.432L174.086 633.104ZM549.006 213.118L547.569 215.634L475.172 340.161L448.898 227L485.771 221.878L549.006 213.118ZM426.847 730.497L330.108 772.545L386.337 675.691L399.226 653.499L400.619 657.407L426.847 730.497ZM-322.633 376.279L-264.608 332.164L-206.582 429.602L-322.633 376.279ZM-105.262 226.73L-161.357 268.733L-172.225 205.077L-105.262 226.73ZM-25.1405 116.13L79.9519 193.218L-0.214752 203.775L-16.1134 147.8L-25.1405 116.13ZM240.555 120.352L238.264 127.765L140.582 140.478L252.636 81.2245L240.555 120.352ZM740.912 424.212L689.892 484.004L668.964 508.532L607.929 400.178L659.083 409.432L694.518 415.856L740.912 424.212ZM760.179 455.074L765.927 486.475L671.973 508.128L760.179 455.074ZM427.161 646.491L481.459 634.137L427.61 729.553L399.99 652.69L427.161 646.491ZM328.806 772.769L286.679 724.612L397.834 653.858L331.231 768.592L328.806 772.769ZM286.185 723.713L269.029 667.964L397.161 653.094L372.639 668.683L286.185 723.713ZM125.672 627.174L43.7983 616.258L48.02 609.744L92.2576 541.416L98.3207 557.004L125.672 627.174ZM-9.87073 503.681L-20.6943 611.181L-59.7222 545.369L-9.87073 503.681ZM712.977 613.652L624.726 588.855L629.352 580.634L668.829 510.509L692.273 565.36L712.977 613.652ZM233.594 653.184L183.203 633.238L238.444 596.671L267.412 666.526L233.594 653.184ZM149.07 471.111L185.269 578.118L93.1558 540.068L149.07 471.111ZM-159.56 479.108L-140.742 456.107L-125.607 514.687L-183.992 508.981L-159.56 479.108ZM-184.71 508.263L-204.561 431.579L-141.326 455.209L-147.524 462.801L-184.71 508.263ZM530.547 510.239L622.885 588.989L483.345 632.565L530.547 510.239ZM-6.50238 504.04L91.539 540.562L42.9899 615.629L-8.25391 503.411L-6.50238 504.04ZM-8.88266 501.3L-25.3651 401.66L54.3974 430.95L46.7176 439.486L-8.88266 501.3ZM-57.9707 397.483L-26.8022 401.346L-60.351 471.516L-91.8339 393.305L-57.9707 397.483ZM42.5408 349.954L54.6219 430.007L-24.9609 400.762L42.5408 349.954ZM42.5408 348.337L-24.7812 325.381L60.9095 277.089L42.5408 348.337ZM-25.949 400.178L-107.822 298.158L41.8222 349.19L-25.949 400.178ZM43.4839 349.415L114.983 332.209L55.5651 429.333L43.4839 349.415ZM275.226 374.886L213.922 325.785L305.631 307.412L276.035 375.56L275.226 374.886ZM192.23 327.268L211.946 326.055L149.43 468.461L116.734 331.85L192.23 327.268ZM150.508 468.506L212.934 326.324L244.148 351.347L275.361 376.369L226.992 412.083L150.508 468.506ZM272.217 453.097L276.708 377.627L388.762 498.604L268.894 508.847L272.217 453.097ZM213.428 324.842L216.437 310.646L231.123 241.15L305.452 306.379L213.428 324.842ZM211.587 325.067L116.689 330.862L135.103 246.451L162.274 274.393L211.587 325.067ZM-27.2514 400.223L-59.2732 396.27L-92.238 392.227L-108.496 299.011L-27.2514 400.223ZM-140.203 453.771L-160.997 347.932L-93.4057 392.811L-140.203 453.771ZM6.07281 486.205L55.071 431.759L91.4941 539.439L-8.34369 502.243L6.07281 486.205ZM76.2692 397.483L115.881 332.749L148.531 469.225L56.0142 430.546L76.2692 397.483ZM275.675 377.447L267.861 508.667L150.373 469.898L275.675 377.447ZM268.535 510.374L397.565 651.118L239.342 595.593L268.535 510.374ZM529.604 508.802L390.693 498.514L474.857 342.811L491.879 394.473L529.604 508.802ZM474.004 342.227L389.75 498.11L330.871 434.544L277.292 376.728L369.226 360.601L474.004 342.227ZM212.44 324.438L136.046 245.822L230.135 240.746L212.44 324.438ZM115.073 331.086L43.6187 348.292L61.9425 277.044L93.8295 309.523L115.073 331.086ZM60.3706 276.19L-25.904 324.842L-102.702 227.539L60.3706 276.19ZM-108.81 296.765L-103.735 227.943L-27.5208 324.438L-108.81 296.765ZM-141.146 454.175L-204.561 430.456L-161.94 348.337L-141.146 454.175ZM-139.575 454.67L-92.7769 393.709L-61.2492 472.055L-67.8063 470.617L-139.575 454.67ZM-59.7222 472.594L-26.2633 402.604L-9.91562 501.479L-59.7222 472.594ZM267.277 509.61L186.392 578.163L150.103 470.887L267.277 509.61ZM267.232 511.003L259.193 534.498L238.354 595.279L187.2 578.837L197.754 569.897L267.232 511.003ZM398.732 650.848L269.433 509.79L389.391 499.548L391.367 531.578L398.732 650.848ZM529.604 509.835L482.357 632.25L390.873 499.593L529.604 509.835ZM606.896 400.402L668.021 508.892H531.311L547.703 485.352L606.896 400.402ZM668.021 509.925L623.783 588.405L531.715 509.925H668.021ZM580.309 436.745L530.457 508.263L475.8 342.497L606.133 399.684L580.309 436.745ZM472.207 341.508L277.113 375.695L306.844 307.277L328.222 311.68L472.207 341.508ZM307.113 306.289L329.389 205.347L473.285 340.655L307.113 306.289ZM134.16 246.227L115.791 330.368L62.6161 276.235L114.309 254.538L134.16 246.227ZM-109.664 298.158L-106.385 316.846L-93.3159 391.598L-160.863 346.719L-156.057 342.137L-109.664 298.158ZM-124.574 514.417L-139.754 455.658L-61.6983 472.998L-116.266 508.937L-124.574 514.417ZM-59.9019 473.672L-10.1402 502.513L-59.9019 544.156V473.672ZM92.5271 539.26L56.104 431.714L109.369 453.996L148.442 470.348L107.707 520.572L92.5271 539.26ZM237.501 596.087L182.664 632.34L186.616 579.735L214.731 588.765L237.501 596.087ZM607.705 399.055L649.248 314.105L673.724 411.004L607.705 399.055ZM328.401 205.167L306.215 305.75L231.752 240.387L249.986 233.738L328.401 205.167ZM231.348 239.443L233.055 215.499L239.162 129.337L328.132 204.224L231.348 239.443ZM238.13 128.843L230.36 238.949L163.667 168.016L138.92 141.736L182.08 136.12L238.13 128.843ZM138.292 142.634L229.596 239.713L135.372 244.789L136.046 221.744L138.292 142.634ZM133.935 245.194L90.7307 263.297L62.4365 275.157L81.5687 194.565L113.905 225.832L133.935 245.194ZM-0.753723 204.898L60.1461 275.022L-102.074 226.64L-44.138 214.197L-0.753723 204.898ZM-109.798 296.271L-160.773 269.587L-104.768 227.629L-109.798 296.271ZM-161.222 270.53L-110.203 297.214L-161.222 345.596V270.53ZM-205.37 429.692L-263.485 332.03L-162.524 347.169L-205.37 429.692ZM-88.9146 492.18L-60.89 473.717V544.471L-98.0316 527.175L-123.811 515.181L-88.9146 492.18ZM-61.2043 545.504L-98.7502 594.829L-124.035 516.259L-61.2043 545.504ZM183.068 634.317L218.414 648.288L267.502 667.694L222.006 723.489L218.099 714.594L183.068 634.317ZM268.669 666.931L256.498 637.596L239.567 596.761L397.026 652.016L365.363 655.7L268.669 666.931ZM399.81 651.657L390.469 500.85L481.594 633.059L455.68 638.944L399.81 651.657ZM591.806 734.36L483.48 633.598L511.505 624.838L623.244 589.933L603.708 679.734L591.806 734.36ZM671.344 507.319L741.81 424.751L759.819 454.13L671.344 507.319ZM674.308 409.028L650.73 315.678L681.09 364.599L674.308 409.028ZM648.844 312.533L608.199 395.686L633.394 264.196L636.762 274.663L648.844 312.533ZM475.98 341.419L598.049 248.338L606.402 398.651L475.98 341.419ZM447.821 227L474.049 339.981L339.36 213.298L330.737 205.167L352.159 209.165L447.821 227ZM134.384 244.16L82.0627 193.577L137.304 142.589L134.384 244.16ZM80.6256 194.161L61.4485 274.933L0.458893 204.718L24.9805 201.483L80.6256 194.161ZM-162.255 270.171V345.372L-226.568 267.206L-162.255 270.171ZM-257.332 463.744L-270.356 472.145L-315.133 431.265H-207.076L-257.332 463.744ZM-60.4408 546.223L-21.4129 612.08L-98.0765 595.593L-60.4408 546.223ZM-19.5266 613.383L42.0917 617.156L8.4082 678.296L-19.5266 613.383ZM-19.7961 612.349L-8.92755 504.444L42.0917 616.168L22.8247 615L-19.7961 612.349ZM125.537 628.207L81.3891 686.922L43.8881 617.336L125.537 628.207ZM126.705 626.949L117.273 602.781L93.2906 541.236L164.61 570.706L185.179 579.196L133.307 621.559L126.705 626.949ZM182.215 634.946L220.973 723.713L163.442 706.822L182.215 634.946ZM482.222 634.901L497.133 730.227H428.419L482.222 634.901ZM498.166 730.272L483.255 634.766L590.324 734.36L590.728 734.765L580.668 734.27L498.166 730.272ZM624.861 590.023L665.55 601.433L713.246 614.82L686.883 729.149L631.508 604.847L624.861 590.023ZM714.594 614.146L733.142 576.591L784.61 635.709L772.844 632.115L714.594 614.146ZM732.379 575.737L727.169 586.294L713.875 613.248L670.446 511.767L713.471 556.24L732.379 575.737ZM677.677 411.678L717.064 406.063L739.834 422.909L677.677 411.678ZM675.027 411.049L677.138 397.348L681.988 365.722L716.166 405.209L704.309 406.916L675.027 411.049ZM476.698 339.532L550.128 213.208L597.6 247.305L476.698 339.532ZM447.237 225.832L392.22 215.589L329.794 203.954L371.247 97.9359L403.718 152.562L447.237 225.832ZM328.491 202.382L326.246 198.698L254.343 80.5956L323.192 73.1833L328.491 202.382ZM327.009 201.933L263.325 148.34L239.297 128.124L239.387 127.855L253.669 81.4941L283.445 130.415L327.009 201.933ZM-26.398 115.501L-21.1883 133.874L-1.38248 203.55L-77.597 179.336L-137.015 160.469L-26.398 115.501ZM-2.59503 204.269L-103.87 225.966L-137.464 161.412L-22.4009 197.935L-2.59503 204.269ZM-105.173 225.697L-110.697 223.9L-172.001 204.089L-138.586 161.502L-105.173 225.697ZM-226.568 266.128L-173.213 205.482L-162.345 269.093L-226.568 266.128ZM-207.705 430.231H-316.031L-323.037 377.222L-207.705 430.231ZM-269.323 472.684L-205.684 431.579L-185.788 508.487L-255.94 478.434L-269.323 472.684ZM-186.552 509.296L-242.736 524.615L-269.278 473.852L-186.552 509.296ZM-167.464 554.938L-184.216 509.97L-126.101 515.63L-158.976 546.852L-167.464 554.938ZM-152.868 542.494L-125.158 516.169L-99.873 594.784L-166.836 555.746L-152.868 542.494ZM127.738 627.399L185.538 580.184L181.586 632.789L178.308 632.475L127.738 627.399ZM268.13 668.548L278.37 701.881L285.152 723.983H222.905L268.13 668.548ZM286.005 725.421L327.728 773.129H262.965L286.005 725.421ZM334.913 771.601L427.296 731.44L468.974 802.598L330.557 773.488L334.913 771.601ZM428.419 731.305H496.953L469.917 802.149L433 739.167L428.419 731.305ZM592.749 734.809L624.097 590.876L652.436 654.532L686.21 730.317L632.586 732.923L592.749 734.809ZM691.689 712.932L714.01 616.213L747.199 703.184L687.782 729.868L691.689 712.932ZM778.233 634.811L785.464 637.012L764.804 677.308L715.312 615.449L778.233 634.811ZM670.266 510.06L765.658 519.224L732.917 574.794L670.266 510.06ZM672.108 509.161L765.972 487.508V518.191L672.108 509.161ZM650.146 312.848L712.887 287.286L681.494 363.386L650.146 312.848ZM649.517 311.23L633.888 262.444L686.883 238.5L649.517 311.23ZM632.675 262.489L607.211 395.236L599.037 248.158L614.935 254.942L632.675 262.489ZM525.966 170.397L449.752 224.843L500.906 129.292L517.703 156.875L525.966 170.397ZM448.764 224.484V120.352L500.097 128.618L448.764 224.484ZM447.731 224.664L378.926 108.852L372.235 97.6214L447.731 120.128V224.664ZM344.3 163.973L329.479 201.843L327.593 155.662L324.225 73.4528L370.483 96.9925L344.3 163.973ZM137.483 140.253L111.659 113.165L80.8052 80.8202L146.6 87.0645L137.483 140.253ZM137.079 141.332L100.207 175.383L81.7933 192.409L80.0417 81.539L86.6886 88.5021L137.079 141.332ZM80.7603 192.499L20.5791 148.384L-24.9609 115.007L78.9638 80.91L80.7603 192.499ZM-227.511 265.634L-266 173.901L-173.797 204.583L-227.511 265.634ZM-227.601 267.52L-162.973 346.091L-263.62 330.996L-245.61 299.281L-227.601 267.52ZM-316.345 431.579L-293.665 452.244L-271.434 472.504L-355.598 492.27L-338.038 465.092L-316.345 431.579ZM-270.671 473.402L-243.993 524.39L-354.7 493.124L-270.671 473.402ZM-241.388 525.289L-185.294 510.015L-176.581 533.42L-168.587 554.938L-241.388 525.289ZM-60.351 669.806L-98.0316 596.626L-21.2782 613.113L-26.4879 620.705L-60.351 669.806ZM-45.0363 649.456L-20.4698 613.877L7.46506 678.835L-59.4977 670.39L-45.0363 649.456ZM42.9001 617.785L80.3561 687.281L9.1268 679.06L42.9001 617.785ZM222.95 725.016H285.062L270.915 754.351L262.067 772.724L255.78 765.043L222.95 725.016ZM262.876 774.162H327.099L274.059 807.27L263.774 776.812L262.876 774.162ZM328.446 774.521L338.596 891.276L274.508 808.169L328.446 774.521ZM391.322 915.984L357.279 944.375L340.123 893.972L391.322 915.984ZM329.524 775.195L398.508 855.383L339.674 892.13L329.524 775.195ZM554.979 807.091L498.795 731.35L591.312 735.843L568.318 780.901L554.979 807.091ZM593.243 735.798L686.12 731.305L648.799 798.061L593.243 735.798ZM808.503 563.608L785.958 635.664L733.995 576.007L798.982 565.225L808.503 563.608ZM733.995 574.973L739.969 564.821L766.556 519.673L808.144 562.664L733.995 574.973ZM810.884 443.798L766.87 485.891L761.167 454.714L793.413 447.662L810.884 443.798ZM760.538 453.232L742.663 424.077L789.865 400.672L779.086 419.989L760.538 453.232ZM716.749 404.221L682.482 364.644L719.354 346.136L718.77 358.714L716.749 404.221ZM600.025 247.395L599.486 247.17L648.439 207.952L632.945 261.456L600.025 247.395ZM597.959 246.317L587.405 238.725L550.982 212.535L597.959 190.298V246.317ZM549.185 212.04L450.291 225.742L526.505 171.295L541.101 197.485L549.185 212.04ZM526.146 168.735L521.206 160.604L501.534 128.259L526.146 91.6467V168.735ZM254.253 79.6073L276.439 9.52738L322.742 72.195L254.253 79.6073ZM76.8979 80.5058L-25.3202 114.018L-15.0355 73.1833L76.8979 80.5058ZM-157.853 184.323L-172.674 203.191L-188.797 142.185L-139.395 160.783L-157.853 184.323ZM-228.589 267.161L-264.608 330.547L-323.486 270.171L-273.41 268.598L-228.589 267.161ZM-266.314 332.164L-323.666 375.785L-382.275 347.124L-266.314 332.164ZM-324.07 376.998L-317.109 429.827L-388.114 392.855L-324.07 376.998ZM-242.466 525.962L-170.923 555.072L-168.722 555.971L-242.511 611.72V525.962H-242.466ZM-44.0482 673.4L7.51001 679.914L-30.5748 751.97L-59.6324 671.468L-44.0482 673.4ZM161.915 707.496L112.558 772.59L82.1077 688.629L161.915 707.496ZM163.667 707.99L220.929 724.792L193.443 755.654L186.302 763.65L174.984 735.843L163.667 707.99ZM187.2 764.234L221.872 725.331L260.945 773.039L189.086 764.504L187.2 764.234ZM357.773 946.127L401.472 964.591L364.869 983.054L361.681 966.522L357.773 946.127ZM456.084 814.233L469.288 804.485L449.527 928.473L400.035 855.607L456.084 814.233ZM470.815 803.901L536.79 807.585L553.766 808.528L495.382 861.223L473.824 810.864L470.815 803.901ZM687.916 730.946L747.02 704.397L727.932 770.748L687.916 730.946ZM747.963 702.33L715.537 617.336L764.266 678.251L760.358 684.046L747.963 702.33ZM786.092 638L806.572 695.996L765.568 677.982L786.092 638ZM787.26 634.99L809.222 564.776L820.36 603.904L787.26 634.99ZM809.222 443.079L761.526 453.502L791.033 400.537L811.782 442.495L809.222 443.079ZM742.798 422.819L760.762 369.451L790.224 399.279L742.798 422.819ZM650.505 311.59L688.051 238.5L713.156 286.073L650.505 311.59ZM634.068 261.231L647.227 215.904L649.697 207.413L687.063 237.242L634.068 261.231ZM598.992 246.227V190.208L648.349 206.739L598.992 246.227ZM550.847 211.501L573.438 135.716L597.824 189.219L550.847 211.501ZM572.359 135.671L549.859 211.142L546.985 205.976L527.358 170.711L545.233 156.785L572.359 135.671ZM447.281 118.915L372.19 96.5433L417.326 57.4153L419.077 60.9642L447.281 118.915ZM252.277 79.7421L148.756 85.9864L206.781 36.616L227.126 55.8879L252.277 79.7421ZM80.2663 78.6639L90.2815 17.1194H139.325L80.2663 78.6639ZM27.6302 33.4264L78.0208 79.5624L-14.2271 72.195L27.6302 33.4264ZM-139.125 159.75L-164.949 150.047L-188.618 141.152L-144.739 97.0823L-139.125 159.75ZM-189.92 142.005L-173.977 202.472L-222.211 150.092L-189.92 142.005ZM-267.123 173.991L-242.107 233.603L-229.038 264.735L-297.079 204.359L-267.123 173.991ZM-324.699 270.395L-322.858 272.282L-266.449 330.098L-355.733 296.945L-324.699 270.395ZM-317.513 431.399L-356.676 492.001L-380.12 439.306L-317.513 431.399ZM-243.499 526.501V611.945L-296.989 582.026L-243.499 526.501ZM-166.926 556.914L-100.053 595.863L-152.509 621.783L-157.943 597.255L-166.926 556.914ZM-99.9178 596.986L-128.975 672.951L-152.195 622.816L-99.9178 596.986ZM-128.167 673.669L-98.8849 597.165L-61.2492 670.345L-77.3724 671.154L-128.167 673.669ZM8.99207 680.093L49.6817 684.765L80.401 688.314L39.3521 751.296L28.3039 768.232L16.9413 716.481L8.99207 680.093ZM237.231 788.178L260.585 775.105L241.902 804.26L224.027 832.158L201.347 808.169L237.231 788.178ZM273.25 809.382V891.097L244.058 840.334L273.25 809.382ZM274.283 809.561L338.237 892.489H274.283V809.561ZM333.072 975.776L356.74 946.442L359.884 962.704L363.836 983.279H327.009L333.072 975.776ZM364.69 984.626L413.733 1022.99H349.555L364.69 984.626ZM385.843 999.855L365.453 983.863L402.325 965.265L414.451 1022.23L385.843 999.855ZM358.043 945.094L391.996 916.793L401.966 963.692L358.043 945.094ZM391.906 915.086L340.393 892.938L398.688 856.506L394.735 890.692L391.906 915.086ZM496.19 863.065L588.797 902.282L524.484 929.191L496.19 863.065ZM589.201 901.339L496.1 861.942L554.799 808.977L584.306 888.222L589.201 901.339ZM748.502 703.363L755.732 692.627L764.67 679.419L776.661 718.323L780.658 731.35L761.256 714.504L748.502 703.363ZM787.08 636.563L820.36 605.296V651.522L793.144 639.303L787.08 636.563ZM808.907 561.856L806.168 559.026L767.409 518.954L789.865 510.599L819.147 499.727L808.907 561.856ZM819.192 498.335L767.544 486.61L812.186 443.978L819.192 498.335ZM717.737 404.401L720.342 346.18L759.595 368.597L717.737 404.401ZM719.354 345.012L682.617 363.431L713.516 288.454L719.354 345.012ZM553.272 149.193L527.179 169.498V91.1525L572.494 134.189L553.272 149.193ZM525.921 90.1642L501.085 127.046L483.345 69.9488L525.921 90.1642ZM448.359 118.735L419.796 60.0209L418.448 57.2806L481.639 69.3199L448.359 118.735ZM416.652 56.6516L371.426 95.8245L351.082 25.8794L348.387 16.6252L416.652 56.6516ZM346.77 15.9963L323.551 71.611L277.337 9.07816L346.77 15.9963ZM275.406 9.30277L253.265 79.2479L242.127 68.691L207.725 36.1218L275.406 9.30277ZM205.704 36.2117L176.826 60.7845L147.678 85.582L141.166 17.2541L205.704 36.2117ZM89.2037 17.2541L81.2993 66.0405L79.1884 79.1581L28.6632 32.9772L89.2037 17.2541ZM-26.3532 113.928L-38.5241 104.989L-83.5252 71.9704L-16.0685 73.0935L-26.3532 113.928ZM-85.2319 72.0602L-28.0598 113.973L-142.404 95.7347L-85.2319 72.0602ZM-223.244 150.406L-174.65 203.191L-265.641 172.957L-223.244 150.406ZM-383.668 347.573L-325.148 376.189L-388.967 392.002L-383.668 347.573ZM-388.877 393.664L-318.187 430.501L-351.915 434.769L-380.434 438.363L-388.877 393.664ZM-245.071 525.154L-331.031 544.695L-355.778 493.887L-245.071 525.154ZM-241.658 612.439L-168.003 556.78L-153.542 621.963L-241.658 612.439ZM-104.319 673.534L-61.4289 671.378L-91.0254 716.121L-127.853 674.702L-104.319 673.534ZM-90.217 716.84L-60.5307 672.007L-31.6527 752.06L-90.217 716.84ZM-29.9011 752.868L8.13876 680.947L27.4057 768.771L-29.9011 752.868ZM29.0225 769.041L81.1645 689.033L111.659 773.084L29.0225 769.041ZM133.89 746.13L162.634 708.215L185.404 764.189L113.546 772.994L133.89 746.13ZM260.495 773.982L200.853 807.315L186.886 765.222L260.495 773.982ZM271.364 809.831L243.249 839.615L225.42 832.921L271.364 809.831ZM338.372 893.522L306.529 948.957L274.687 893.522H338.372ZM355.887 945.903L326.021 982.919L307.338 950.44L355.887 945.903ZM363.702 984.312L348.701 1022.36L326.829 984.312H363.702ZM392.894 915.445L395.499 892.983L399.676 856.955C427.745 899.093 444.183 923.262 448.584 929.012L392.894 915.445ZM470.231 805.159L494.708 862.301L523.406 929.326H450.425L470.231 805.159ZM590.279 901.294L574.605 859.156L556.057 809.382L616.956 848.33L628.409 855.652L590.279 901.294ZM628.948 854.709L556.596 808.438L648.125 799.588L628.948 854.709ZM650.011 798.061L687.153 731.62L727.259 771.511L650.011 798.061ZM729.1 770.433L748.098 704.352L779.041 731.26L780.883 732.878L729.1 770.433ZM781.916 731.8L765.703 679.195L806.662 697.209L781.916 731.8ZM807.425 695.277L787.08 637.686L820.315 652.6L807.425 695.277Z" fill="white"/>
<mask id="mask0_4392_7904" style="mask-type:luminance" maskUnits="userSpaceOnUse" x="0" y="0" width="510" height="1024">
<rect width="510" height="1024" fill="white"/>
</mask>
<g mask="url(#mask0_4392_7904)">
</g>
</svg>
