<svg width="20" height="22" viewBox="0 0 20 22" fill="none" xmlns="http://www.w3.org/2000/svg">
<g id="Iconly/Light/Setting">
<g id="Setting">
<path id="Path_33946" fill-rule="evenodd" clip-rule="evenodd" d="M18.3064 6.62337L17.684 5.54328C17.1574 4.62936 15.9905 4.31408 15.0753 4.83847C14.6397 5.0951 14.1198 5.16791 13.6305 5.04084C13.1411 4.91378 12.7224 4.59727 12.4666 4.16113C12.3021 3.88391 12.2137 3.56815 12.2103 3.2458C12.2251 2.72898 12.0302 2.22816 11.6698 1.85743C11.3094 1.48669 10.8143 1.27762 10.2973 1.27783H9.04325C8.53672 1.27783 8.05107 1.47967 7.69376 1.8387C7.33644 2.19773 7.13693 2.68435 7.13937 3.19088C7.12435 4.23668 6.27224 5.07657 5.22632 5.07646C4.90397 5.07311 4.58821 4.9847 4.31099 4.82017C3.39582 4.29577 2.22887 4.61105 1.70229 5.52497L1.0341 6.62337C0.508166 7.53615 0.819156 8.70236 1.72975 9.23207C2.32166 9.5738 2.68629 10.2053 2.68629 10.8888C2.68629 11.5723 2.32166 12.2038 1.72975 12.5456C0.820312 13.0717 0.508983 14.2351 1.0341 15.1451L1.66568 16.2344C1.9124 16.6795 2.32636 17.0081 2.81595 17.1472C3.30554 17.2863 3.8304 17.2247 4.27438 16.9758C4.71084 16.7211 5.23094 16.6513 5.7191 16.782C6.20725 16.9126 6.62299 17.2328 6.87392 17.6714C7.03845 17.9486 7.12686 18.2644 7.13021 18.5868C7.13021 19.6433 7.98671 20.4998 9.04325 20.4998H10.2973C11.3502 20.4998 12.2053 19.6489 12.2103 18.5959C12.2079 18.0878 12.4086 17.5998 12.7679 17.2405C13.1272 16.8812 13.6152 16.6804 14.1233 16.6829C14.4449 16.6915 14.7594 16.7795 15.0387 16.9392C15.9515 17.4651 17.1177 17.1541 17.6474 16.2435L18.3064 15.1451C18.5615 14.7073 18.6315 14.1858 18.501 13.6961C18.3704 13.2065 18.05 12.7891 17.6108 12.5364C17.1715 12.2837 16.8511 11.8663 16.7206 11.3767C16.59 10.8871 16.66 10.3656 16.9151 9.92772C17.081 9.63809 17.3211 9.39795 17.6108 9.23207C18.5159 8.70265 18.8262 7.54325 18.3064 6.63252V6.62337Z" stroke="#0D1717" stroke-width="1.5" stroke-linecap="round" stroke-linejoin="round"/>
<path id="Ellipse_737" d="M9.67473 13.5248C11.1306 13.5248 12.3109 12.3445 12.3109 10.8886C12.3109 9.43269 11.1306 8.25244 9.67473 8.25244C8.21882 8.25244 7.03857 9.43269 7.03857 10.8886C7.03857 12.3445 8.21882 13.5248 9.67473 13.5248Z" stroke="#0D1717" stroke-width="1.5" stroke-linecap="round" stroke-linejoin="round"/>
</g>
</g>
</svg>
