<svg width="32" height="32" viewBox="0 0 32 32" fill="none" xmlns="http://www.w3.org/2000/svg">
<g clip-path="url(#clip0_1551_14598)">
<g clip-path="url(#clip1_1551_14598)">
<path d="M32 0H0V32H32V0Z" fill="#FE7575"/>
<path d="M11.303 15.2455C11.303 16.5404 10.5626 17.5934 9.64721 17.5934C8.73186 17.5934 7.99512 16.5404 7.99512 15.2455C7.99512 13.9506 8.73558 12.8976 9.64721 12.8976C10.5588 12.8976 11.303 13.9469 11.303 15.2455Z" fill="#0B1215"/>
<path d="M23.6673 15.2455C23.6673 16.5404 22.9268 17.5934 22.0152 17.5934C21.1036 17.5934 20.3594 16.5404 20.3594 15.2455C20.3594 13.9506 21.0998 12.8976 22.0152 12.8976C22.9305 12.8976 23.6673 13.9469 23.6673 15.2455Z" fill="#0B1215"/>
<path d="M12.2814 13.7013C12.0842 13.7013 11.9056 13.5748 11.846 13.3739C11.3623 11.7218 9.70648 10.4641 7.73439 10.2409C7.48509 10.2148 7.30648 9.98784 7.33625 9.73854C7.36602 9.48923 7.58927 9.30691 7.83857 9.3404C10.1679 9.60458 12.1288 11.1227 12.7204 13.1209C12.7911 13.3627 12.6535 13.612 12.4116 13.6864C12.3669 13.6976 12.326 13.705 12.2814 13.705V13.7013Z" fill="#0B1215"/>
<path d="M19.3852 13.7012C19.3443 13.7012 19.2997 13.6975 19.255 13.6826C19.0132 13.6119 18.8755 13.3589 18.9499 13.117C19.5378 11.1189 21.4987 9.60074 23.828 9.33655C24.0811 9.30679 24.3006 9.48539 24.3304 9.73469C24.3601 9.984 24.1815 10.2073 23.9322 10.237C21.9601 10.4603 20.308 11.7217 19.8206 13.37C19.7611 13.5673 19.5825 13.6975 19.3852 13.6975V13.7012Z" fill="#0B1215"/>
<path d="M19.0758 22.8435C18.8972 22.8435 18.7186 22.7803 18.5772 22.6463C17.9037 22.0175 16.981 21.6491 15.9837 21.6119C14.8786 21.5635 13.8256 21.9431 13.0963 22.6389C12.8024 22.9179 12.341 22.9068 12.0619 22.6166C11.7828 22.3226 11.794 21.8612 12.0842 21.5821C13.0963 20.6147 14.54 20.0938 16.0396 20.1496C17.3865 20.2017 18.6442 20.7077 19.5744 21.5747C19.8684 21.85 19.887 22.3152 19.6117 22.6091C19.4665 22.7654 19.273 22.8435 19.0758 22.8435Z" fill="#0B1215"/>
</g>
</g>
<defs>
<clipPath id="clip0_1551_14598">
<rect width="32" height="32" rx="8" fill="white"/>
</clipPath>
<clipPath id="clip1_1551_14598">
<rect width="32" height="32" rx="8" fill="white"/>
</clipPath>
</defs>
</svg>
