<svg width="21" height="16" viewBox="0 0 21 16" fill="none" xmlns="http://www.w3.org/2000/svg">
<path d="M2.422 11V3.608H1.48L1.762 2.6H3.43V11H2.422ZM5.41272 11.156C5.26072 11.156 5.13072 11.102 5.02272 10.994C4.91872 10.886 4.86672 10.754 4.86672 10.598C4.86672 10.45 4.91872 10.322 5.02272 10.214C5.13072 10.106 5.26072 10.052 5.41272 10.052C5.56872 10.052 5.70072 10.106 5.80872 10.214C5.91672 10.322 5.97072 10.45 5.97072 10.598C5.97072 10.754 5.91672 10.886 5.80872 10.994C5.70072 11.102 5.56872 11.156 5.41272 11.156ZM10.2893 11.156C9.78931 11.156 9.34131 11.044 8.94531 10.82C8.54931 10.592 8.20931 10.278 7.92531 9.878C7.64131 9.478 7.42531 9.016 7.27731 8.492C7.12931 7.964 7.05531 7.4 7.05531 6.8C7.05531 6.2 7.12931 5.636 7.27731 5.108C7.42531 4.58 7.64131 4.118 7.92531 3.722C8.20931 3.322 8.54931 3.01 8.94531 2.786C9.34131 2.558 9.78931 2.444 10.2893 2.444C10.7853 2.444 11.2313 2.558 11.6273 2.786C12.0273 3.01 12.3653 3.322 12.6413 3.722C12.9213 4.118 13.1353 4.58 13.2833 5.108C13.4353 5.636 13.5113 6.2 13.5113 6.8C13.5113 7.4 13.4353 7.964 13.2833 8.492C13.1353 9.016 12.9213 9.478 12.6413 9.878C12.3653 10.278 12.0273 10.592 11.6273 10.82C11.2313 11.044 10.7853 11.156 10.2893 11.156ZM10.2893 10.148C10.7893 10.148 11.2073 9.994 11.5433 9.686C11.8833 9.374 12.1373 8.964 12.3053 8.456C12.4733 7.948 12.5573 7.396 12.5573 6.8C12.5573 6.172 12.4693 5.606 12.2933 5.102C12.1213 4.594 11.8653 4.192 11.5253 3.896C11.1893 3.6 10.7773 3.452 10.2893 3.452C9.90531 3.452 9.56931 3.542 9.28131 3.722C8.99731 3.902 8.76131 4.148 8.57331 4.46C8.38531 4.772 8.24331 5.13 8.14731 5.534C8.05531 5.934 8.00931 6.356 8.00931 6.8C8.00931 7.396 8.09531 7.95 8.26731 8.462C8.43931 8.97 8.69331 9.378 9.02931 9.686C9.36931 9.994 9.78931 10.148 10.2893 10.148ZM14.3472 11L16.5432 7.988L14.3592 4.988H15.6012L17.1672 7.124L18.7272 4.988H19.9692L17.7852 7.988L19.9812 11H18.7392L17.1672 8.84L15.5892 11H14.3472Z" fill="white"/>
<line y1="15.5" x2="21" y2="15.5" stroke="white"/>
</svg>
