<svg width="101" height="37" viewBox="0 0 101 37" fill="none" xmlns="http://www.w3.org/2000/svg">
<g id="Group 1">
<path id="Vector" d="M14.2272 31.5875H11.3514L9.77607 26.6387H4.30046L2.79985 31.5875H0L5.42623 14.7396H8.77694L14.2272 31.5875ZM9.3012 24.5625L7.87658 20.1632C7.72588 19.7137 7.44222 18.6554 7.02687 16.9893H6.97621C6.80906 17.7059 6.54186 18.7642 6.17589 20.1632L4.77533 24.5625H9.3012ZM28.1543 25.3639C28.1543 27.43 27.5933 29.0631 26.4701 30.262C25.4646 31.3292 24.2148 31.8622 22.7243 31.8622C21.1148 31.8622 19.9574 31.2887 19.2546 30.1392V36.5135H16.5547V23.432C16.5547 22.1343 16.5205 20.8038 16.4547 19.439H18.8291L18.9798 21.3646H19.0304C19.9308 19.9138 21.2971 19.1883 23.1308 19.1883C24.5643 19.1883 25.761 19.7542 26.7183 20.8873C27.6744 22.0229 28.1543 23.5142 28.1543 25.3639ZM25.4039 25.4626C25.4039 24.2802 25.1379 23.3054 24.6035 22.5369C24.0198 21.7381 23.2359 21.338 22.2532 21.338C21.5871 21.338 20.9818 21.5608 20.4411 22.0001C19.8991 22.4432 19.5445 23.0218 19.3787 23.7383C19.3046 24.0063 19.2625 24.2821 19.2533 24.56V26.5868C19.2533 27.4692 19.5243 28.2149 20.0663 28.8251C20.6083 29.4328 21.3123 29.7379 22.1785 29.7379C23.1954 29.7379 23.9868 29.3442 24.5529 28.563C25.1202 27.7794 25.4039 26.7463 25.4039 25.4626ZM42.1308 25.3639C42.1308 27.43 41.5698 29.0631 40.4466 30.262C39.4399 31.3292 38.1913 31.8622 36.6995 31.8622C35.09 31.8622 33.9326 31.2887 33.2298 30.1392V36.5135H30.53V23.432C30.53 22.1343 30.4958 20.8038 30.4299 19.439H32.8043L32.955 21.3646H33.0056C33.9047 19.9138 35.2711 19.1883 37.106 19.1883C38.5382 19.1883 39.7349 19.7542 40.6948 20.8873C41.6496 22.0229 42.1308 23.5142 42.1308 25.3639ZM39.3791 25.4626C39.3791 24.2802 39.1119 23.3054 38.5775 22.5369C37.9937 21.7381 37.2124 21.338 36.2297 21.338C35.5636 21.338 34.9583 21.5608 34.4151 22.0001C33.8731 22.4432 33.5198 23.0218 33.3539 23.7383C33.2716 24.0726 33.2272 24.3447 33.2272 24.56V26.5868C33.2272 27.4692 33.4995 28.2149 34.039 28.8251C34.5809 29.4315 35.285 29.7379 36.1537 29.7379C37.1719 29.7379 37.9633 29.3442 38.5281 28.563C39.0954 27.7794 39.3791 26.7463 39.3791 25.4626ZM57.7573 26.8615C57.7573 28.2959 57.2559 29.4619 56.2593 30.362C55.1626 31.3444 53.6316 31.8369 51.6688 31.8369C49.8554 31.8369 48.4017 31.4875 47.305 30.7874L47.9293 28.5377C49.1134 29.2391 50.4139 29.5885 51.8296 29.5885C52.8478 29.5885 53.6392 29.3581 54.204 28.9011C54.7701 28.4428 55.0562 27.83 55.0562 27.0654C55.0562 26.3805 54.8194 25.807 54.3547 25.3398C53.8874 24.8739 53.115 24.4397 52.0297 24.0409C49.0792 22.9408 47.6026 21.3317 47.6026 19.2149C47.6026 17.8325 48.1244 16.7007 49.1653 15.8157C50.2062 14.9321 51.5865 14.4902 53.3037 14.4902C54.8372 14.4902 56.1149 14.7574 57.1292 15.2903L56.4517 17.4906C55.4969 16.9741 54.4193 16.7159 53.2137 16.7159C52.2615 16.7159 51.5143 16.9501 50.9799 17.4159C50.5304 17.8325 50.3024 18.3401 50.3024 18.9427C50.3024 19.6074 50.562 20.1594 51.0787 20.5923C51.527 20.9911 52.345 21.4254 53.5278 21.8912C54.979 22.4761 56.0452 23.1572 56.7278 23.9396C57.4154 24.722 57.7573 25.6981 57.7573 26.8615ZM66.7065 21.4646H63.7306V27.3629C63.7306 28.8631 64.2549 29.6113 65.3059 29.6113C65.7884 29.6113 66.1886 29.5708 66.5051 29.4859L66.5799 31.5356C66.048 31.7344 65.3477 31.8344 64.4803 31.8344C63.414 31.8344 62.5808 31.509 61.9793 30.8583C61.3803 30.2076 61.0789 29.1175 61.0789 27.5832V21.4595H59.3061V19.4339H61.0789V17.2096L63.7306 16.4095V19.4339H66.7065V21.4646ZM80.1068 25.4132C80.1068 27.2806 79.5724 28.8137 78.5062 30.0126C77.3905 31.2469 75.9064 31.8622 74.0563 31.8622C72.2708 31.8622 70.8512 31.271 69.7925 30.0898C68.7339 28.9061 68.2046 27.4148 68.2046 25.6158C68.2046 23.7333 68.7516 22.1913 69.8419 20.9924C70.9348 19.7922 72.4062 19.1921 74.2564 19.1921C76.0393 19.1921 77.4716 19.7846 78.5555 20.9671C79.5914 22.1141 80.1068 23.5953 80.1068 25.4132ZM77.3082 25.4753C77.3082 24.3625 77.0676 23.4079 76.5851 22.6091C76.0191 21.6444 75.2086 21.162 74.1588 21.162C73.0774 21.162 72.248 21.6444 71.6832 22.6091C71.1994 23.4079 70.9588 24.3789 70.9588 25.5259C70.9588 26.64 71.1994 27.5971 71.6832 28.3934C72.267 29.3581 73.0812 29.8404 74.136 29.8404C75.1681 29.8404 75.9773 29.348 76.5623 28.3693C77.0587 27.5515 77.3082 26.5906 77.3082 25.4753ZM88.8863 21.8128C88.6055 21.7621 88.3206 21.7371 88.0353 21.7381C87.0855 21.7381 86.3511 22.0951 85.8344 22.8142C85.3861 23.4471 85.1607 24.2473 85.1607 25.2132V31.5875H82.4609V23.2648C82.4633 21.9896 82.4371 20.7144 82.3824 19.4403H84.734L84.8327 21.7646H84.9075C85.1937 20.9658 85.6419 20.3214 86.2574 19.8391C86.8207 19.4176 87.5052 19.1893 88.2088 19.1883C88.4582 19.1883 88.6837 19.2061 88.8837 19.2377L88.8863 21.8128ZM100.961 24.9385C100.968 25.3488 100.935 25.7588 100.862 26.1627H92.7625C92.7929 27.3629 93.1855 28.282 93.9377 28.915C94.6202 29.4796 95.5028 29.7632 96.5868 29.7632C97.786 29.7632 98.8801 29.5733 99.8641 29.1897L100.287 31.0621C99.1372 31.5634 97.7797 31.8128 96.2133 31.8128C94.329 31.8128 92.8499 31.2583 91.7735 30.1519C90.6997 29.0441 90.1615 27.5553 90.1615 25.6905C90.1615 23.8599 90.6617 22.3343 91.6633 21.1177C92.7119 19.8188 94.1289 19.1694 95.9119 19.1694C97.6632 19.1694 98.9891 19.8188 99.8894 21.1177C100.602 22.147 100.961 23.4231 100.961 24.9385ZM98.3863 24.2384C98.4053 23.437 98.228 22.7471 97.862 22.1634C97.3947 21.4114 96.6755 21.0367 95.7118 21.0367C94.8292 21.0367 94.1099 21.4026 93.5628 22.1368C93.1133 22.7205 92.8461 23.4218 92.7638 24.2359L98.3863 24.2384Z" fill="white"/>
<path id="Vector_2" d="M3.52166 8.78347C2.77073 8.78347 2.12111 8.74676 1.58038 8.68473V0.539314C2.33665 0.42252 3.10088 0.364953 3.86611 0.367139C6.96229 0.367139 8.38817 1.89013 8.38817 4.37275C8.38817 7.23643 6.70395 8.78347 3.52166 8.78347ZM3.97501 1.41159C3.55712 1.41159 3.20128 1.4369 2.90623 1.49767V7.68966C3.06579 7.71497 3.37224 7.72637 3.80279 7.72637C5.83145 7.72637 6.98634 6.57178 6.98634 4.40946C6.98634 2.48135 5.94162 1.41159 3.97501 1.41159ZM12.8317 8.84551C11.0867 8.84551 9.95589 7.5428 9.95589 5.7742C9.95589 3.93092 11.1108 2.61681 12.9305 2.61681C14.6502 2.61681 15.8063 3.85749 15.8063 5.67672C15.8063 7.5428 14.6147 8.84551 12.8317 8.84551ZM12.8824 3.58656C11.9238 3.58656 11.3096 4.48289 11.3096 5.73622C11.3096 6.96551 11.9364 7.86183 12.8697 7.86183C13.803 7.86183 14.4298 6.90347 14.4298 5.7109C14.4298 4.49555 13.8157 3.58656 12.8824 3.58656ZM25.7572 2.73961L23.8893 8.71005H22.6724L21.8987 6.11729C21.7063 5.48308 21.5461 4.83956 21.4187 4.18918H21.3934C21.2959 4.8399 21.111 5.49189 20.9147 6.11729L20.0916 8.71005H18.862L17.1043 2.73961H18.4682L19.1444 5.57797C19.3039 6.25402 19.4382 6.89208 19.5496 7.49469H19.5749C19.6724 6.99209 19.832 6.36416 20.0663 5.59063L20.9147 2.74088H21.9962L22.8079 5.52987C23.0042 6.20591 23.1637 6.86929 23.2878 7.49596H23.3233C23.4094 6.88195 23.5449 6.22996 23.7285 5.52987L24.4541 2.74088L25.7572 2.73961ZM32.6333 8.71005H31.3062V5.28173C31.3062 4.22589 30.901 3.69671 30.1019 3.69671C29.3155 3.69671 28.7748 4.37275 28.7748 5.15893V8.71005H27.4477V4.44618C27.4477 3.91825 27.4351 3.35236 27.3983 2.73835H28.5659L28.6279 3.65999H28.6647C29.0218 3.02193 29.7461 2.61681 30.5578 2.61681C31.8115 2.61681 32.6346 3.57517 32.6346 5.13488L32.6333 8.71005ZM36.293 8.71005H34.9646V0H36.293V8.71005ZM41.1317 8.84551C39.3879 8.84551 38.2558 7.5428 38.2558 5.7742C38.2558 3.93092 39.4107 2.61681 41.2292 2.61681C42.9501 2.61681 44.105 3.85749 44.105 5.67672C44.1063 7.5428 42.9134 8.84551 41.1317 8.84551ZM41.1811 3.58656C40.2225 3.58656 39.6083 4.48289 39.6083 5.73622C39.6083 6.96551 40.2364 7.86183 41.1671 7.86183C42.1017 7.86183 42.7272 6.90347 42.7272 5.7109C42.7285 4.49555 42.1156 3.58656 41.1811 3.58656ZM49.3375 8.71005L49.2413 8.02261H49.2058C48.8006 8.57585 48.2092 8.84551 47.4595 8.84551C46.3895 8.84551 45.6297 8.09604 45.6297 7.08831C45.6297 5.61469 46.9074 4.85256 49.1197 4.85256V4.74242C49.1197 3.95623 48.7031 3.56251 47.8799 3.56251C47.2911 3.56251 46.7744 3.71063 46.3198 4.00561L46.0501 3.13334C46.6022 2.78899 47.2911 2.61681 48.1003 2.61681C49.6604 2.61681 50.4481 3.43971 50.4481 5.08677V7.2858C50.4481 7.88842 50.4747 8.35557 50.5342 8.71131L49.3375 8.71005ZM49.1551 5.73622C47.6811 5.73622 46.9416 6.09324 46.9416 6.94019C46.9416 7.56685 47.3228 7.87323 47.8521 7.87323C48.5271 7.87323 49.1551 7.35796 49.1551 6.65787V5.73622ZM56.8924 8.71005L56.8304 7.75169H56.7937C56.4125 8.47584 55.7717 8.84551 54.8764 8.84551C53.4366 8.84551 52.3704 7.57951 52.3704 5.79826C52.3704 3.93092 53.4759 2.61555 54.9853 2.61555C55.7844 2.61555 56.3504 2.8852 56.6696 3.42705H56.6961V0H58.0245V7.10097C58.0245 7.67826 58.0385 8.21884 58.0739 8.71005H56.8924ZM56.6961 5.19691C56.6961 4.36135 56.1428 3.6486 55.2981 3.6486C54.3142 3.6486 53.7127 4.52087 53.7127 5.74888C53.7127 6.95285 54.337 7.77701 55.2715 7.77701C56.106 7.77701 56.6961 7.05159 56.6961 6.19198V5.19691ZM66.4469 8.84551C64.7032 8.84551 63.5723 7.5428 63.5723 5.7742C63.5723 3.93092 64.7272 2.61681 66.5457 2.61681C68.2666 2.61681 69.4215 3.85749 69.4215 5.67672C69.4228 7.5428 68.2311 8.84551 66.4469 8.84551ZM66.4963 3.58656C65.5389 3.58656 64.9248 4.48289 64.9248 5.73622C64.9248 6.96551 65.5516 7.86183 66.4836 7.86183C67.4182 7.86183 68.0437 6.90347 68.0437 5.7109C68.0463 4.49555 67.4321 3.58656 66.4963 3.58656ZM76.5585 8.71005H75.2301V5.28173C75.2301 4.22589 74.8249 3.69671 74.0259 3.69671C73.2395 3.69671 72.7 4.37275 72.7 5.15893V8.71005H71.3717V4.44618C71.3717 3.91825 71.359 3.35236 71.3223 2.73835H72.4898L72.5519 3.65999H72.5886C72.9444 3.02193 73.67 2.61555 74.4805 2.61555C75.7342 2.61555 76.5585 3.5739 76.5585 5.13361V8.71005ZM85.4874 3.73469H84.0274V6.63382C84.0274 7.37189 84.2831 7.74029 84.7998 7.74029C85.0341 7.74029 85.2304 7.71498 85.3887 7.67826L85.4254 8.68599C85.1683 8.78474 84.8239 8.83412 84.3959 8.83412C83.3499 8.83412 82.7243 8.25682 82.7243 6.74522V3.73469H81.8531V2.73961H82.7243V1.64579L84.0274 1.25207V2.73835H85.4874V3.73469ZM92.513 8.71005H91.1872V5.30705C91.1872 4.23855 90.7832 3.69797 89.9829 3.69797C89.2953 3.69797 88.6545 4.16512 88.6545 5.11082V8.71005H87.3287V0H88.6545V3.58656H88.6811C89.099 2.93584 89.7043 2.61555 90.4768 2.61555C91.7406 2.61555 92.513 3.59796 92.513 5.15893V8.71005ZM99.7109 6.04386H95.7282C95.7536 7.17439 96.502 7.81246 97.61 7.81246C98.1989 7.81246 98.7408 7.71371 99.2195 7.53014L99.4259 8.45178C98.8611 8.69739 98.1963 8.82019 97.4226 8.82019C95.5548 8.82019 94.4492 7.64028 94.4492 5.81092C94.4492 3.98029 95.5814 2.60415 97.2732 2.60415C98.7991 2.60415 99.7564 3.73469 99.7564 5.44251C99.765 5.64406 99.7497 5.84591 99.7109 6.04386ZM98.4939 5.09816C98.4939 4.17652 98.0292 3.5258 97.1807 3.5258C96.4184 3.5258 95.8156 4.18918 95.7295 5.09816H98.4939Z" fill="white"/>
</g>
</svg>
