<svg width="102" height="37" viewBox="0 0 102 37" fill="none" xmlns="http://www.w3.org/2000/svg">
<g id="Group 1">
<path id="Vector" d="M15.1761 31.9566H12.3002L10.7249 27.0079H5.24931L3.74871 31.9566H0.948853L6.37508 15.1088H9.72579L15.1761 31.9566ZM10.2501 24.9316L8.82543 20.5323C8.67474 20.0829 8.39108 19.0245 7.97572 17.3584H7.92507C7.75791 18.075 7.49071 19.1334 7.12474 20.5323L5.72418 24.9316H10.2501ZM29.1032 25.733C29.1032 27.7991 28.5422 29.4322 27.419 30.6311C26.4135 31.6984 25.1636 32.2314 23.6732 32.2314C22.0636 32.2314 20.9062 31.6579 20.2034 30.5083V36.8826H17.5036V23.8011C17.5036 22.5035 17.4694 21.1729 17.4035 19.8082H19.7779L19.9286 21.7337H19.9793C20.8796 20.2829 22.246 19.5575 24.0796 19.5575C25.5131 19.5575 26.7098 20.1234 27.6672 21.2564C28.6232 22.392 29.1032 23.8834 29.1032 25.733ZM26.3527 25.8318C26.3527 24.6493 26.0868 23.6745 25.5524 22.906C24.9686 22.1072 24.1847 21.7071 23.2021 21.7071C22.536 21.7071 21.9307 21.93 21.39 22.3693C20.848 22.8124 20.4934 23.3909 20.3275 24.1075C20.2535 24.3754 20.2114 24.6512 20.2021 24.9291V26.956C20.2021 27.8384 20.4731 28.584 21.0151 29.1942C21.5571 29.8019 22.2612 30.107 23.1274 30.107C24.1442 30.107 24.9357 29.7133 25.5017 28.9322C26.069 28.1485 26.3527 27.1155 26.3527 25.8318ZM43.0797 25.733C43.0797 27.7991 42.5187 29.4322 41.3955 30.6311C40.3887 31.6984 39.1401 32.2314 37.6484 32.2314C36.0389 32.2314 34.8814 31.6579 34.1786 30.5083V36.8826H31.4788V23.8011C31.4788 22.5035 31.4446 21.1729 31.3788 19.8082H33.7531L33.9038 21.7337H33.9545C34.8536 20.2829 36.22 19.5575 38.0549 19.5575C39.4871 19.5575 40.6838 20.1234 41.6437 21.2564C42.5985 22.392 43.0797 23.8834 43.0797 25.733ZM40.3279 25.8318C40.3279 24.6493 40.0607 23.6745 39.5263 22.906C38.9426 22.1072 38.1612 21.7071 37.1786 21.7071C36.5125 21.7071 35.9072 21.93 35.3639 22.3693C34.8219 22.8124 34.4686 23.3909 34.3027 24.1075C34.2204 24.4417 34.1761 24.7139 34.1761 24.9291V26.956C34.1761 27.8384 34.4484 28.584 34.9878 29.1942C35.5298 29.8006 36.2339 30.107 37.1026 30.107C38.1207 30.107 38.9122 29.7133 39.477 28.9322C40.0443 28.1485 40.3279 27.1155 40.3279 25.8318ZM58.7062 27.2307C58.7062 28.6651 58.2047 29.831 57.2081 30.7312C56.1115 31.7136 54.5805 32.206 52.6177 32.206C50.8043 32.206 49.3505 31.8566 48.2539 31.1565L48.8782 28.9069C50.0622 29.6082 51.3627 29.9576 52.7785 29.9576C53.7966 29.9576 54.5881 29.7272 55.1529 29.2702C55.7189 28.8119 56.0051 28.1992 56.0051 27.4345C56.0051 26.7496 55.7683 26.1761 55.3036 25.709C54.8363 25.2431 54.0638 24.8088 52.9786 24.41C50.028 23.3099 48.5515 21.7008 48.5515 19.5841C48.5515 18.2016 49.0732 17.0698 50.1141 16.1849C51.1551 15.3012 52.5354 14.8594 54.2525 14.8594C55.786 14.8594 57.0638 15.1265 58.0781 15.6595L57.4006 17.8598C56.4458 17.3433 55.3681 17.085 54.1626 17.085C53.2103 17.085 52.4632 17.3192 51.9288 17.7851C51.4792 18.2016 51.2513 18.7093 51.2513 19.3119C51.2513 19.9765 51.5109 20.5285 52.0276 20.9615C52.4758 21.3603 53.2939 21.7945 54.4766 22.2604C55.9279 22.8453 56.9941 23.5264 57.6767 24.3088C58.3643 25.0911 58.7062 26.0672 58.7062 27.2307ZM67.6553 21.8337H64.6795V27.732C64.6795 29.2322 65.2037 29.9804 66.2548 29.9804C66.7373 29.9804 67.1374 29.9399 67.454 29.8551L67.5287 31.9047C66.9969 32.1035 66.2966 32.2035 65.4291 32.2035C64.3629 32.2035 63.5296 31.8781 62.9281 31.2274C62.3292 30.5767 62.0278 29.4867 62.0278 27.9523V21.8287H60.2549V19.8031H62.0278V17.5787L64.6795 16.7786V19.8031H67.6553V21.8337ZM81.0557 25.7824C81.0557 27.6497 80.5213 29.1828 79.455 30.3817C78.3394 31.6161 76.8552 32.2314 75.0051 32.2314C73.2196 32.2314 71.8 31.6401 70.7414 30.459C69.6827 29.2753 69.1534 27.7839 69.1534 25.9849C69.1534 24.1024 69.7005 22.5604 70.7908 21.3615C71.8836 20.1614 73.3551 19.5613 75.2052 19.5613C76.9882 19.5613 78.4204 20.1538 79.5044 21.3362C80.5403 22.4832 81.0557 23.9644 81.0557 25.7824ZM78.2571 25.8444C78.2571 24.7316 78.0165 23.777 77.534 22.9782C76.9679 22.0135 76.1575 21.5312 75.1077 21.5312C74.0262 21.5312 73.1968 22.0135 72.632 22.9782C72.1483 23.777 71.9077 24.7481 71.9077 25.8951C71.9077 27.0091 72.1483 27.9662 72.632 28.7625C73.2158 29.7272 74.0301 30.2096 75.0849 30.2096C76.117 30.2096 76.9261 29.7171 77.5112 28.7385C78.0076 27.9206 78.2571 26.9598 78.2571 25.8444ZM89.8351 22.1819C89.5543 22.1312 89.2695 22.1062 88.9841 22.1072C88.0344 22.1072 87.2999 22.4642 86.7833 23.1833C86.335 23.8163 86.1096 24.6164 86.1096 25.5824V31.9566H83.4098V23.634C83.4122 22.3587 83.386 21.0835 83.3312 19.8094H85.6828L85.7816 22.1338H85.8563C86.1425 21.3349 86.5908 20.6905 87.2062 20.2082C87.7695 19.7867 88.454 19.5585 89.1576 19.5575C89.4071 19.5575 89.6325 19.5752 89.8326 19.6069L89.8351 22.1819ZM101.91 25.3076C101.916 25.7179 101.883 26.1279 101.811 26.5318H93.7114C93.7418 27.732 94.1343 28.6511 94.8865 29.2841C95.5691 29.8488 96.4517 30.1323 97.5357 30.1323C98.7349 30.1323 99.829 29.9424 100.813 29.5588L101.236 31.4313C100.086 31.9326 98.7286 32.182 97.1621 32.182C95.2778 32.182 93.7987 31.6275 92.7224 30.521C91.6485 29.4133 91.1103 27.9244 91.1103 26.0596C91.1103 24.229 91.6105 22.7035 92.6122 21.4869C93.6607 20.1879 95.0777 19.5385 96.8607 19.5385C98.6121 19.5385 99.9379 20.1879 100.838 21.4869C101.551 22.5161 101.91 23.7922 101.91 25.3076ZM99.3351 24.6075C99.3541 23.8062 99.1768 23.1162 98.8109 22.5326C98.3436 21.7806 97.6243 21.4058 96.6606 21.4058C95.778 21.4058 95.0587 21.7717 94.5117 22.506C94.0621 23.0896 93.7949 23.791 93.7126 24.605L99.3351 24.6075Z" fill="white"/>
<path id="Vector_2" d="M4.47046 9.15213C3.71952 9.15213 3.0699 9.11541 2.52917 9.05338V0.907966C3.28544 0.791172 4.04967 0.733605 4.8149 0.735791C7.91108 0.735791 9.33697 2.25878 9.33697 4.7414C9.33697 7.60508 7.65274 9.15213 4.47046 9.15213ZM4.9238 1.78024C4.50592 1.78024 4.15007 1.80556 3.85502 1.86632V8.05831C4.01458 8.08363 4.32103 8.09502 4.75158 8.09502C6.78024 8.09502 7.93514 6.94043 7.93514 4.77811C7.93514 2.85 6.89042 1.78024 4.9238 1.78024ZM13.7805 9.21416C12.0355 9.21416 10.9047 7.91145 10.9047 6.14286C10.9047 4.29957 12.0596 2.98546 13.8793 2.98546C15.599 2.98546 16.7551 4.22614 16.7551 6.04537C16.7551 7.91145 15.5635 9.21416 13.7805 9.21416ZM13.8312 3.95522C12.8726 3.95522 12.2584 4.85154 12.2584 6.10488C12.2584 7.33416 12.8852 8.23048 13.8185 8.23048C14.7518 8.23048 15.3786 7.27212 15.3786 6.07956C15.3786 4.8642 14.7645 3.95522 13.8312 3.95522ZM26.706 3.10827L24.8381 9.0787H23.6212L22.8474 6.48594C22.6551 5.85174 22.4949 5.20821 22.3675 4.55783H22.3422C22.2447 5.20855 22.0598 5.86054 21.8635 6.48594L21.0404 9.0787H19.8108L18.0531 3.10827H19.417L20.0932 5.94663C20.2527 6.62267 20.387 7.26073 20.4984 7.86334H20.5237C20.6212 7.36074 20.7808 6.73281 21.0151 5.95929L21.8635 3.10953H22.945L23.7567 5.89852C23.953 6.57456 24.1125 7.23794 24.2366 7.86461H24.2721C24.3582 7.2506 24.4937 6.59861 24.6773 5.89852L25.4029 3.10953L26.706 3.10827ZM33.5821 9.0787H32.255V5.65038C32.255 4.59454 31.8498 4.06536 31.0507 4.06536C30.2643 4.06536 29.7236 4.7414 29.7236 5.52758V9.0787H28.3965V4.81483C28.3965 4.28691 28.3838 3.72101 28.3471 3.107H29.5147L29.5767 4.02865H29.6134C29.9706 3.39058 30.6949 2.98546 31.5066 2.98546C32.7603 2.98546 33.5834 3.94382 33.5834 5.50353L33.5821 9.0787ZM37.2418 9.0787H35.9134V0.368652H37.2418V9.0787ZM42.0805 9.21416C40.3367 9.21416 39.2046 7.91145 39.2046 6.14286C39.2046 4.29957 40.3595 2.98546 42.178 2.98546C43.8989 2.98546 45.0538 4.22614 45.0538 6.04537C45.0551 7.91145 43.8622 9.21416 42.0805 9.21416ZM42.1299 3.95522C41.1712 3.95522 40.5571 4.85154 40.5571 6.10488C40.5571 7.33416 41.1852 8.23048 42.1159 8.23048C43.0505 8.23048 43.676 7.27212 43.676 6.07956C43.6773 4.8642 43.0644 3.95522 42.1299 3.95522ZM50.2863 9.0787L50.1901 8.39126H50.1546C49.7494 8.9445 49.158 9.21416 48.4083 9.21416C47.3383 9.21416 46.5785 8.46469 46.5785 7.45696C46.5785 5.98334 47.8562 5.22121 50.0685 5.22121V5.11107C50.0685 4.32489 49.6519 3.93116 48.8287 3.93116C48.2399 3.93116 47.7232 4.07928 47.2686 4.37426L46.9989 3.50199C47.551 3.15764 48.2399 2.98546 49.0491 2.98546C50.6092 2.98546 51.3969 3.80836 51.3969 5.45542V7.65445C51.3969 8.25707 51.4235 8.72422 51.483 9.07997L50.2863 9.0787ZM50.1039 6.10488C48.6299 6.10488 47.8904 6.46189 47.8904 7.30884C47.8904 7.93551 48.2716 8.24188 48.8009 8.24188C49.4758 8.24188 50.1039 7.72662 50.1039 7.02652V6.10488ZM57.8412 9.0787L57.7792 8.12034H57.7424C57.3613 8.84449 56.7205 9.21416 55.8252 9.21416C54.3854 9.21416 53.3192 7.94817 53.3192 6.16691C53.3192 4.29957 54.4247 2.9842 55.9341 2.9842C56.7332 2.9842 57.2992 3.25386 57.6183 3.7957H57.6449V0.368652H58.9733V7.46962C58.9733 8.04691 58.9872 8.58749 59.0227 9.0787H57.8412ZM57.6449 5.56556C57.6449 4.73001 57.0915 4.01725 56.2469 4.01725C55.263 4.01725 54.6615 4.88952 54.6615 6.11754C54.6615 7.3215 55.2858 8.14566 56.2203 8.14566C57.0548 8.14566 57.6449 7.42025 57.6449 6.56064V5.56556ZM67.3957 9.21416C65.6519 9.21416 64.5211 7.91145 64.5211 6.14286C64.5211 4.29957 65.676 2.98546 67.4945 2.98546C69.2154 2.98546 70.3703 4.22614 70.3703 6.04537C70.3716 7.91145 69.1799 9.21416 67.3957 9.21416ZM67.4451 3.95522C66.4877 3.95522 65.8735 4.85154 65.8735 6.10488C65.8735 7.33416 66.5004 8.23048 67.4324 8.23048C68.367 8.23048 68.9925 7.27212 68.9925 6.07956C68.9951 4.8642 68.3809 3.95522 67.4451 3.95522ZM77.5073 9.0787H76.1789V5.65038C76.1789 4.59454 75.7737 4.06536 74.9747 4.06536C74.1883 4.06536 73.6488 4.7414 73.6488 5.52758V9.0787H72.3204V4.81483C72.3204 4.28691 72.3078 3.72101 72.271 3.107H73.4386L73.5007 4.02865H73.5374C73.8932 3.39058 74.6188 2.9842 75.4293 2.9842C76.683 2.9842 77.5073 3.94256 77.5073 5.50226V9.0787ZM86.4362 4.10334H84.9762V7.00247C84.9762 7.74054 85.2319 8.10895 85.7486 8.10895C85.9829 8.10895 86.1792 8.08363 86.3374 8.04691L86.3742 9.05465C86.1171 9.15339 85.7727 9.20277 85.3446 9.20277C84.2987 9.20277 83.6731 8.62547 83.6731 7.11387V4.10334H82.8019V3.10827H83.6731V2.01445L84.9762 1.62072V3.107H86.4362V4.10334ZM93.4618 9.0787H92.136V5.6757C92.136 4.6072 91.732 4.06662 90.9317 4.06662C90.2441 4.06662 89.6033 4.53378 89.6033 5.47948V9.0787H88.2775V0.368652H89.6033V3.95522H89.6299C90.0478 3.3045 90.6531 2.9842 91.4256 2.9842C92.6894 2.9842 93.4618 3.96661 93.4618 5.52758V9.0787ZM100.66 6.41251H96.677C96.7024 7.54305 97.4508 8.18111 98.5588 8.18111C99.1477 8.18111 99.6896 8.08236 100.168 7.89879L100.375 8.82044C99.8099 9.06604 99.1451 9.18884 98.3714 9.18884C96.5035 9.18884 95.398 8.00893 95.398 6.17957C95.398 4.34894 96.5301 2.9728 98.222 2.9728C99.7479 2.9728 100.705 4.10334 100.705 5.81117C100.714 6.01271 100.699 6.21456 100.66 6.41251ZM99.4427 5.46681C99.4427 4.54517 98.978 3.89445 98.1295 3.89445C97.3672 3.89445 96.7644 4.55783 96.6783 5.46681H99.4427Z" fill="white"/>
</g>
</svg>
