<svg width="36" height="44" viewBox="0 0 36 44" fill="none" xmlns="http://www.w3.org/2000/svg">
<path id="Vector" d="M30.1819 22.9928C30.133 17.5604 34.6319 14.9175 34.8376 14.7945C32.2897 11.0813 28.3405 10.574 26.9527 10.5335C23.6358 10.1846 20.4185 12.5174 18.7289 12.5174C17.0055 12.5174 14.4036 10.5672 11.5994 10.6245C7.9908 10.6802 4.61492 12.7685 2.76342 16.0114C-1.05763 22.6237 1.79214 32.3406 5.45299 37.6854C7.28426 40.3047 9.42411 43.2257 12.225 43.1228C14.9651 43.0116 15.9887 41.3783 19.2954 41.3783C22.5718 41.3783 23.533 43.1229 26.3895 43.0571C29.3303 43.0116 31.1818 40.4277 32.949 37.7865C35.0653 34.788 35.9151 31.8316 35.9489 31.6799C35.8814 31.6563 30.2392 29.5022 30.1819 22.9928ZM24.7859 7.01754C26.2596 5.17528 27.268 2.66892 26.9881 0.125488C24.855 0.219877 22.1874 1.60031 20.6512 3.40212C19.2921 4.98987 18.078 7.5923 18.3916 10.0397C20.7878 10.2183 23.248 8.83115 24.7859 7.01754Z" fill="white"/>
</svg>
