<svg width="27" height="34" viewBox="0 0 27 34" fill="none" xmlns="http://www.w3.org/2000/svg">
<path id="Vector" d="M22.5512 18.3062C22.5135 14.1371 25.9841 12.1089 26.1428 12.0144C24.1772 9.16479 21.1307 8.77544 20.0601 8.74439C17.5014 8.47663 15.0194 10.2669 13.716 10.2669C12.3866 10.2669 10.3794 8.77026 8.21612 8.81424C5.43236 8.85693 2.82811 10.4596 1.39981 12.9484C-1.54785 18.0229 0.650536 25.4801 3.47462 29.5819C4.88732 31.592 6.53806 33.8337 8.69873 33.7548C10.8126 33.6694 11.6022 32.416 14.1531 32.416C16.6806 32.416 17.422 33.7548 19.6256 33.7044C21.8943 33.6694 23.3226 31.6865 24.6858 29.6595C26.3184 27.3583 26.974 25.0894 27 24.973C26.948 24.9549 22.5954 23.3018 22.5512 18.3062ZM18.3886 6.04608C19.5255 4.63225 20.3034 2.70877 20.0874 0.756836C18.4419 0.829274 16.384 1.88868 15.1989 3.27146C14.1505 4.48997 13.2139 6.48718 13.4558 8.36539C15.3043 8.5025 17.2022 7.43792 18.3886 6.04608Z" fill="white"/>
</svg>
