<svg width="24" height="24" viewBox="0 0 24 24" fill="none" xmlns="http://www.w3.org/2000/svg">
<g id="arcticons:breathly">
<path id="Vector" d="M16.875 4.56549C17.4273 4.56549 17.875 4.11778 17.875 3.56549C17.875 3.01321 17.4273 2.56549 16.875 2.56549C16.3227 2.56549 15.875 3.01321 15.875 3.56549C15.875 4.11778 16.3227 4.56549 16.875 4.56549Z" stroke="#0B1215" stroke-width="0.5" stroke-linecap="round" stroke-linejoin="round"/>
<path id="Vector_2" d="M15.5649 6.20999C15.772 6.20999 15.9399 6.0421 15.9399 5.83499C15.9399 5.62788 15.772 5.45999 15.5649 5.45999C15.3578 5.45999 15.1899 5.62788 15.1899 5.83499C15.1899 6.0421 15.3578 6.20999 15.5649 6.20999Z" fill="#0B1215"/>
<path id="Vector_3" d="M20.4502 8.13449C21.0025 8.13449 21.4502 7.68678 21.4502 7.13449C21.4502 6.58221 21.0025 6.13449 20.4502 6.13449C19.8979 6.13449 19.4502 6.58221 19.4502 7.13449C19.4502 7.68678 19.8979 8.13449 20.4502 8.13449Z" stroke="#0B1215" stroke-width="0.5" stroke-linecap="round" stroke-linejoin="round"/>
<path id="Vector_4" d="M18.1807 8.81949C18.3878 8.81949 18.5557 8.6516 18.5557 8.44449C18.5557 8.23738 18.3878 8.06949 18.1807 8.06949C17.9736 8.06949 17.8057 8.23738 17.8057 8.44449C17.8057 8.6516 17.9736 8.81949 18.1807 8.81949Z" fill="#0B1215"/>
<path id="Vector_5" d="M21.75 13.0095C22.3023 13.0095 22.75 12.5618 22.75 12.0095C22.75 11.4572 22.3023 11.0095 21.75 11.0095C21.1977 11.0095 20.75 11.4572 20.75 12.0095C20.75 12.5618 21.1977 13.0095 21.75 13.0095Z" stroke="#0B1215" stroke-width="0.5" stroke-linecap="round" stroke-linejoin="round"/>
<path id="Vector_6" d="M19.1294 12.3845C19.3365 12.3845 19.5044 12.2166 19.5044 12.0095C19.5044 11.8024 19.3365 11.6345 19.1294 11.6345C18.9223 11.6345 18.7544 11.8024 18.7544 12.0095C18.7544 12.2166 18.9223 12.3845 19.1294 12.3845Z" fill="#0B1215"/>
<path id="Vector_7" d="M20.4438 17.8845C20.9961 17.8845 21.4438 17.4368 21.4438 16.8845C21.4438 16.3322 20.9961 15.8845 20.4438 15.8845C19.8916 15.8845 19.4438 16.3322 19.4438 16.8845C19.4438 17.4368 19.8916 17.8845 20.4438 17.8845Z" stroke="#0B1215" stroke-width="0.5" stroke-linecap="round" stroke-linejoin="round"/>
<path id="Vector_8" d="M18.1743 15.949C18.3814 15.949 18.5493 15.7811 18.5493 15.574C18.5493 15.3669 18.3814 15.199 18.1743 15.199C17.9672 15.199 17.7993 15.3669 17.7993 15.574C17.7993 15.7811 17.9672 15.949 18.1743 15.949Z" fill="#0B1215"/>
<path id="Vector_9" d="M16.875 21.453C17.4273 21.453 17.875 21.0053 17.875 20.453C17.875 19.9007 17.4273 19.453 16.875 19.453C16.3227 19.453 15.875 19.9007 15.875 20.453C15.875 21.0053 16.3227 21.453 16.875 21.453Z" stroke="#0B1215" stroke-width="0.5" stroke-linecap="round" stroke-linejoin="round"/>
<path id="Vector_10" d="M15.5649 18.5585C15.772 18.5585 15.9399 18.3906 15.9399 18.1835C15.9399 17.9764 15.772 17.8085 15.5649 17.8085C15.3578 17.8085 15.1899 17.9764 15.1899 18.1835C15.1899 18.3906 15.3578 18.5585 15.5649 18.5585Z" fill="#0B1215"/>
<path id="Vector_11" d="M12 22.75C12.5523 22.75 13 22.3023 13 21.75C13 21.1977 12.5523 20.75 12 20.75C11.4477 20.75 11 21.1977 11 21.75C11 22.3023 11.4477 22.75 12 22.75Z" stroke="#0B1215" stroke-width="0.5" stroke-linecap="round" stroke-linejoin="round"/>
<path id="Vector_12" d="M12 19.5045C12.2071 19.5045 12.375 19.3366 12.375 19.1295C12.375 18.9224 12.2071 18.7545 12 18.7545C11.7929 18.7545 11.625 18.9224 11.625 19.1295C11.625 19.3366 11.7929 19.5045 12 19.5045Z" fill="#0B1215"/>
<path id="Vector_13" d="M7.125 21.453C7.67728 21.453 8.125 21.0053 8.125 20.453C8.125 19.9007 7.67728 19.453 7.125 19.453C6.57272 19.453 6.125 19.9007 6.125 20.453C6.125 21.0053 6.57272 21.453 7.125 21.453Z" stroke="#0B1215" stroke-width="0.5" stroke-linecap="round" stroke-linejoin="round"/>
<path id="Vector_14" d="M8.43506 18.5585C8.64217 18.5585 8.81006 18.3906 8.81006 18.1835C8.81006 17.9764 8.64217 17.8085 8.43506 17.8085C8.22795 17.8085 8.06006 17.9764 8.06006 18.1835C8.06006 18.3906 8.22795 18.5585 8.43506 18.5585Z" fill="#0B1215"/>
<path id="Vector_15" d="M3.55615 17.8845C4.10844 17.8845 4.55615 17.4368 4.55615 16.8845C4.55615 16.3322 4.10844 15.8845 3.55615 15.8845C3.00387 15.8845 2.55615 16.3322 2.55615 16.8845C2.55615 17.4368 3.00387 17.8845 3.55615 17.8845Z" stroke="#0B1215" stroke-width="0.5" stroke-linecap="round" stroke-linejoin="round"/>
<path id="Vector_16" d="M5.82568 15.949C6.03279 15.949 6.20068 15.7811 6.20068 15.574C6.20068 15.3669 6.03279 15.199 5.82568 15.199C5.61858 15.199 5.45068 15.3669 5.45068 15.574C5.45068 15.7811 5.61858 15.949 5.82568 15.949Z" fill="#0B1215"/>
<path id="Vector_17" d="M2.25 13.0095C2.80228 13.0095 3.25 12.5618 3.25 12.0095C3.25 11.4572 2.80228 11.0095 2.25 11.0095C1.69772 11.0095 1.25 11.4572 1.25 12.0095C1.25 12.5618 1.69772 13.0095 2.25 13.0095Z" stroke="#0B1215" stroke-width="0.5" stroke-linecap="round" stroke-linejoin="round"/>
<path id="Vector_18" d="M4.87061 12.3845C5.07771 12.3845 5.24561 12.2166 5.24561 12.0095C5.24561 11.8024 5.07771 11.6345 4.87061 11.6345C4.6635 11.6345 4.49561 11.8024 4.49561 12.0095C4.49561 12.2166 4.6635 12.3845 4.87061 12.3845Z" fill="#0B1215"/>
<path id="Vector_19" d="M3.55615 8.13449C4.10844 8.13449 4.55615 7.68678 4.55615 7.13449C4.55615 6.58221 4.10844 6.13449 3.55615 6.13449C3.00387 6.13449 2.55615 6.58221 2.55615 7.13449C2.55615 7.68678 3.00387 8.13449 3.55615 8.13449Z" stroke="#0B1215" stroke-width="0.5" stroke-linecap="round" stroke-linejoin="round"/>
<path id="Vector_20" d="M5.82568 8.81949C6.03279 8.81949 6.20068 8.6516 6.20068 8.44449C6.20068 8.23738 6.03279 8.06949 5.82568 8.06949C5.61858 8.06949 5.45068 8.23738 5.45068 8.44449C5.45068 8.6516 5.61858 8.81949 5.82568 8.81949Z" fill="#0B1215"/>
<path id="Vector_21" d="M7.125 4.56549C7.67728 4.56549 8.125 4.11778 8.125 3.56549C8.125 3.01321 7.67728 2.56549 7.125 2.56549C6.57272 2.56549 6.125 3.01321 6.125 3.56549C6.125 4.11778 6.57272 4.56549 7.125 4.56549Z" stroke="#0B1215" stroke-width="0.5" stroke-linecap="round" stroke-linejoin="round"/>
<path id="Vector_22" d="M8.43506 6.20999C8.64217 6.20999 8.81006 6.0421 8.81006 5.83499C8.81006 5.62788 8.64217 5.45999 8.43506 5.45999C8.22795 5.45999 8.06006 5.62788 8.06006 5.83499C8.06006 6.0421 8.22795 6.20999 8.43506 6.20999Z" fill="#0B1215"/>
<path id="Vector_23" d="M12 3.25C12.5523 3.25 13 2.80228 13 2.25C13 1.69772 12.5523 1.25 12 1.25C11.4477 1.25 11 1.69772 11 2.25C11 2.80228 11.4477 3.25 12 3.25Z" stroke="#0B1215" stroke-width="0.5" stroke-linecap="round" stroke-linejoin="round"/>
<path id="Vector_24" d="M12 5.24551C12.2071 5.24551 12.375 5.07762 12.375 4.87051C12.375 4.66341 12.2071 4.49551 12 4.49551C11.7929 4.49551 11.625 4.66341 11.625 4.87051C11.625 5.07762 11.7929 5.24551 12 5.24551Z" fill="#0B1215"/>
</g>
</svg>
