<svg width="44" height="44" viewBox="0 0 44 44" fill="none" xmlns="http://www.w3.org/2000/svg">
<path d="M12.4951 23.7335C12.8487 23.6429 13.2101 23.8517 13.3022 24.1998C16.1353 33.9795 30.434 32.1789 30.6763 22.0031C30.7337 15.2049 22.8544 10.9699 17.0837 14.6837L17.7258 15.5809C17.8582 15.7659 17.7375 16.0225 17.5087 16.043L13.6013 16.3914C13.3723 16.4118 13.2069 16.1806 13.3034 15.9753L14.9506 12.4691C15.0471 12.2638 15.3333 12.2382 15.4655 12.4232L16.3198 13.6167C23.0812 9.32452 31.9791 14.0781 31.9995 22.0032C32.0583 27.4451 27.3741 32.0576 21.847 31.9993C17.3161 32.0549 13.1163 28.8525 12.0215 24.528C11.9294 24.1799 12.1415 23.8241 12.4951 23.7335Z" fill="white"/>
<path d="M18.88 26V18.44H17.98L18.22 17.6H19.72V26H18.88ZM23.8498 26.156C23.3378 26.156 22.8718 26.032 22.4518 25.784C22.0358 25.536 21.7058 25.204 21.4618 24.788C21.2178 24.368 21.0958 23.908 21.0958 23.408H21.9358C21.9358 23.756 22.0218 24.076 22.1938 24.368C22.3658 24.656 22.5958 24.886 22.8838 25.058C23.1758 25.23 23.4978 25.316 23.8498 25.316C24.1978 25.316 24.5158 25.23 24.8038 25.058C25.0918 24.886 25.3218 24.656 25.4938 24.368C25.6698 24.076 25.7578 23.756 25.7578 23.408C25.7578 23.056 25.6738 22.736 25.5058 22.448C25.3418 22.156 25.1078 21.924 24.8038 21.752C24.5038 21.576 24.1458 21.488 23.7298 21.488H21.6898L22.4818 17.6H26.4118V18.44H23.1598L22.7218 20.648L23.6998 20.654C24.2718 20.662 24.7738 20.784 25.2058 21.02C25.6418 21.256 25.9818 21.58 26.2258 21.992C26.4738 22.4 26.5978 22.872 26.5978 23.408C26.5978 23.784 26.5258 24.138 26.3818 24.47C26.2418 24.802 26.0438 25.096 25.7878 25.352C25.5358 25.604 25.2438 25.802 24.9118 25.946C24.5838 26.086 24.2298 26.156 23.8498 26.156Z" fill="white"/>
</svg>
