<svg width="44" height="44" viewBox="0 0 44 44" fill="none" xmlns="http://www.w3.org/2000/svg">
<g filter="url(#filter0_d_4602_124)">
<g clip-path="url(#clip0_4602_124)">
<g clip-path="url(#clip1_4602_124)">
<path d="M38 5H6V37H38V5Z" fill="#64C6EA"/>
<path d="M28.058 27.1032C27.8645 27.1032 27.6748 27.0369 27.5222 26.9044C26.2124 25.7605 24.4301 25.091 22.5027 25.0212C20.3594 24.9445 18.3203 25.628 16.9027 26.8974C16.5901 27.1799 16.0878 27.1659 15.7901 26.873C15.4887 26.5801 15.4999 26.1093 15.8162 25.8303C17.5389 24.2889 20.0022 23.4554 22.5622 23.5461C24.8655 23.6298 27.0087 24.4353 28.5975 25.8233C28.9175 26.1023 28.9324 26.5696 28.6385 26.866C28.4822 27.023 28.2738 27.0997 28.0617 27.0997L28.058 27.1032Z" fill="#0B1215"/>
<path d="M31.9314 22.7858C31.883 22.7858 31.8346 22.7788 31.7825 22.7649L28.363 21.8303C28.1584 21.7745 28.0095 21.6071 27.9872 21.4048C27.9649 21.206 28.0765 21.0142 28.2663 20.9201C28.2663 20.9201 30.9267 19.6298 31.723 19.2322C31.9798 19.1032 32.296 19.1938 32.4337 19.4345C32.5714 19.6751 32.4746 19.9715 32.2179 20.1006C31.7714 20.3237 30.737 20.8294 29.9146 21.227L32.0765 21.8198C32.3556 21.8965 32.5156 22.1686 32.4337 22.4301C32.3667 22.6463 32.1584 22.7858 31.9314 22.7858Z" fill="#0B1215"/>
<path d="M12.6348 22.7858C12.4078 22.7858 12.1995 22.6463 12.1325 22.4301C12.0506 22.1686 12.2106 21.8965 12.4897 21.8198L14.6516 21.227C13.8292 20.8259 12.7948 20.3237 12.3483 20.1006C12.0916 19.9715 11.9948 19.6751 12.1325 19.4345C12.2702 19.1938 12.5865 19.1032 12.8432 19.2322C13.6395 19.6298 16.2999 20.9201 16.2999 20.9201C16.4897 21.0142 16.6013 21.206 16.5827 21.4048C16.5604 21.6036 16.4116 21.7745 16.2069 21.8303L12.7874 22.7649C12.739 22.7788 12.6906 22.7858 12.6385 22.7858H12.6348Z" fill="#0B1215"/>
<path d="M32.7057 17.5442C32.6797 17.5442 32.6536 17.5442 32.6239 17.5372C30.0043 17.1571 28.6908 15.1693 28.635 15.0821C28.4862 14.8485 28.5643 14.5486 28.8099 14.4056C29.0592 14.2626 29.3792 14.3393 29.5318 14.5695C29.5504 14.5974 30.6666 16.2539 32.7839 16.5608C33.0704 16.6026 33.2676 16.8537 33.2229 17.1222C33.182 17.3663 32.9587 17.5407 32.7057 17.5407V17.5442Z" fill="#0B1215"/>
<path d="M11.857 17.5443C11.604 17.5443 11.377 17.3699 11.3398 17.1258C11.2952 16.8573 11.4924 16.6062 11.7789 16.5643C13.9184 16.2539 15.0161 14.5905 15.0272 14.573C15.1761 14.3394 15.4998 14.2662 15.7491 14.4091C15.9984 14.5521 16.0765 14.852 15.924 15.0857C15.8682 15.1694 14.5547 17.1607 11.9352 17.5408C11.9091 17.5443 11.8831 17.5478 11.8533 17.5478L11.857 17.5443Z" fill="#0B1215"/>
</g>
</g>
</g>
<defs>
<filter id="filter0_d_4602_124" x="0" y="0" width="44" height="44" filterUnits="userSpaceOnUse" color-interpolation-filters="sRGB">
<feFlood flood-opacity="0" result="BackgroundImageFix"/>
<feColorMatrix in="SourceAlpha" type="matrix" values="0 0 0 0 0 0 0 0 0 0 0 0 0 0 0 0 0 0 127 0" result="hardAlpha"/>
<feOffset dy="1"/>
<feGaussianBlur stdDeviation="3"/>
<feComposite in2="hardAlpha" operator="out"/>
<feColorMatrix type="matrix" values="0 0 0 0 0.616667 0 0 0 0 0.616667 0 0 0 0 0.616667 0 0 0 0.15 0"/>
<feBlend mode="normal" in2="BackgroundImageFix" result="effect1_dropShadow_4602_124"/>
<feBlend mode="normal" in="SourceGraphic" in2="effect1_dropShadow_4602_124" result="shape"/>
</filter>
<clipPath id="clip0_4602_124">
<rect x="6" y="5" width="32" height="32" rx="8" fill="white"/>
</clipPath>
<clipPath id="clip1_4602_124">
<rect x="6" y="5" width="32" height="32" rx="8" fill="white"/>
</clipPath>
</defs>
</svg>
