<svg width="34" height="34" viewBox="0 0 34 34" fill="none" xmlns="http://www.w3.org/2000/svg">
<g id="clarity:close-line" clip-path="url(#clip0_4199_3648)">
<path id="Vector" d="M17.6352 16.3059L17.6352 8.49C17.6223 8.32259 17.5466 8.16623 17.4234 8.05217C17.3002 7.93811 17.1385 7.87475 16.9706 7.87475C16.8026 7.87475 16.6409 7.93811 16.5177 8.05217C16.3945 8.16623 16.3188 8.32259 16.3059 8.49L16.3059 16.3059L8.48527 16.3012C8.30774 16.3012 8.13748 16.3717 8.01194 16.4972C7.8864 16.6228 7.81588 16.793 7.81588 16.9706C7.81588 17.1481 7.8864 17.3184 8.01194 17.4439C8.13748 17.5694 8.30774 17.64 8.48527 17.64L16.3059 17.6352L16.3012 25.4558C16.2941 25.5475 16.306 25.6395 16.3362 25.7263C16.3664 25.8131 16.4142 25.8927 16.4766 25.9601C16.539 26.0276 16.6147 26.0814 16.6989 26.1182C16.7831 26.1549 16.874 26.1739 16.9658 26.1739C17.0577 26.1739 17.1486 26.1549 17.2328 26.1181C17.317 26.0814 17.3927 26.0276 17.4551 25.9601C17.5175 25.8927 17.5653 25.8131 17.5955 25.7263C17.6257 25.6395 17.6376 25.5475 17.6305 25.4558L17.6352 17.6352H25.4511C25.6185 17.6223 25.7749 17.5466 25.8889 17.4234C26.003 17.3002 26.0664 17.1385 26.0664 16.9706C26.0664 16.8027 26.003 16.6409 25.8889 16.5177C25.7749 16.3945 25.6185 16.3188 25.4511 16.3059H17.6352Z" fill="white"/>
</g>
<defs>
<clipPath id="clip0_4199_3648">
<rect width="24" height="24" fill="white" transform="translate(0 16.9706) rotate(-45)"/>
</clipPath>
</defs>
</svg>
