<svg width="34" height="34" viewBox="0 0 34 34" fill="none" xmlns="http://www.w3.org/2000/svg">
<g id="clarity:close-line" clip-path="url(#clip0_4614_3937)">
<path id="Vector" d="M17.6355 16.3059L17.6355 8.49C17.6225 8.32259 17.5469 8.16623 17.4236 8.05217C17.3004 7.93811 17.1387 7.87475 16.9708 7.87475C16.8029 7.87475 16.6411 7.93811 16.5179 8.05217C16.3947 8.16623 16.3191 8.32259 16.3061 8.49L16.3061 16.3059L8.4855 16.3012C8.30797 16.3012 8.1377 16.3717 8.01217 16.4972C7.88663 16.6228 7.81611 16.793 7.81611 16.9706C7.81611 17.1481 7.88663 17.3184 8.01217 17.4439C8.1377 17.5694 8.30797 17.64 8.4855 17.64L16.3061 17.6352L16.3014 25.4558C16.2943 25.5475 16.3062 25.6395 16.3364 25.7263C16.3666 25.8131 16.4144 25.8927 16.4768 25.9601C16.5392 26.0276 16.6149 26.0814 16.6991 26.1182C16.7833 26.1549 16.8742 26.1739 16.9661 26.1739C17.058 26.1739 17.1488 26.1549 17.233 26.1181C17.3172 26.0814 17.3929 26.0276 17.4553 25.9601C17.5177 25.8927 17.5655 25.8131 17.5957 25.7263C17.6259 25.6395 17.6378 25.5475 17.6308 25.4558L17.6355 17.6352H25.4514C25.6188 17.6223 25.7751 17.5466 25.8892 17.4234C26.0032 17.3002 26.0666 17.1385 26.0666 16.9706C26.0666 16.8027 26.0032 16.6409 25.8892 16.5177C25.7751 16.3945 25.6188 16.3188 25.4514 16.3059H17.6355Z" fill="white"/>
</g>
<defs>
<clipPath id="clip0_4614_3937">
<rect width="24" height="24" fill="white" transform="translate(0 16.9706) rotate(-45)"/>
</clipPath>
</defs>
</svg>
