<svg width="44" height="44" viewBox="0 0 44 44" fill="none" xmlns="http://www.w3.org/2000/svg">
<path d="M31.505 23.7335C31.1514 23.6429 30.7901 23.8517 30.6979 24.1998C27.8649 33.9795 13.5662 32.1789 13.3239 22.0031C13.2664 15.2049 21.1458 10.9699 26.9165 14.6837L26.2743 15.5809C26.1419 15.7659 26.2626 16.0225 26.4914 16.043L30.3989 16.3914C30.6278 16.4118 30.7933 16.1806 30.6967 15.9753L29.0495 12.4691C28.953 12.2638 28.6669 12.2382 28.5345 12.4232L27.6802 13.6167C20.9188 9.32452 12.0209 14.0781 12.0005 22.0032C11.9417 27.4451 16.6259 32.0576 22.153 31.9993C26.6841 32.0548 30.8838 28.8523 31.9785 24.5279C32.0706 24.1797 31.8585 23.824 31.5049 23.7334L31.505 23.7335Z" fill="white"/>
<path d="M18.88 26V18.44H17.98L18.22 17.6H19.72V26H18.88ZM23.8498 26.156C23.3378 26.156 22.8718 26.032 22.4518 25.784C22.0358 25.536 21.7058 25.204 21.4618 24.788C21.2178 24.368 21.0958 23.908 21.0958 23.408H21.9358C21.9358 23.756 22.0218 24.076 22.1938 24.368C22.3658 24.656 22.5958 24.886 22.8838 25.058C23.1758 25.23 23.4978 25.316 23.8498 25.316C24.1978 25.316 24.5158 25.23 24.8038 25.058C25.0918 24.886 25.3218 24.656 25.4938 24.368C25.6698 24.076 25.7578 23.756 25.7578 23.408C25.7578 23.056 25.6738 22.736 25.5058 22.448C25.3418 22.156 25.1078 21.924 24.8038 21.752C24.5038 21.576 24.1458 21.488 23.7298 21.488H21.6898L22.4818 17.6H26.4118V18.44H23.1598L22.7218 20.648L23.6998 20.654C24.2718 20.662 24.7738 20.784 25.2058 21.02C25.6418 21.256 25.9818 21.58 26.2258 21.992C26.4738 22.4 26.5978 22.872 26.5978 23.408C26.5978 23.784 26.5258 24.138 26.3818 24.47C26.2418 24.802 26.0438 25.096 25.7878 25.352C25.5358 25.604 25.2438 25.802 24.9118 25.946C24.5838 26.086 24.2298 26.156 23.8498 26.156Z" fill="white"/>
</svg>
