<svg width="131" height="45" viewBox="0 0 131 45" fill="none" xmlns="http://www.w3.org/2000/svg">
<g id="Group 48095580">
<path id="Vector" d="M9.7107 5.39208C9.7107 6.45683 9.44376 7.38848 8.7764 8.05395C7.97557 8.8525 7.04126 9.25179 5.84002 9.25179C4.63877 9.25179 3.70447 8.8525 2.90364 8.05395C2.1028 7.25538 1.70239 6.32373 1.70239 5.12589C1.70239 3.92805 2.1028 2.9964 2.90364 2.19784C3.70447 1.39928 4.63877 1 5.84002 1C6.3739 1 6.90779 1.13309 7.44168 1.39928C7.97557 1.66547 8.37598 1.93165 8.64292 2.33093L7.97556 2.9964C7.44168 2.33093 6.77432 2.06475 5.84002 2.06475C5.03919 2.06475 4.23836 2.33093 3.70447 2.9964C3.03711 3.52877 2.77017 4.32733 2.77017 5.25899C2.77017 6.19064 3.03711 6.9892 3.70447 7.52157C4.37183 8.05395 5.03919 8.45323 5.84002 8.45323C6.77432 8.45323 7.44168 8.18704 8.10904 7.52157C8.50946 7.12229 8.7764 6.58992 8.7764 5.92445H5.84002V4.85971H9.7107V5.39208ZM15.8504 2.06475H12.2467V4.59352H15.5835V5.52517H12.2467V8.05395H15.8504V9.11869H11.1789V1.13309H15.8504V2.06475ZM20.255 9.11869H19.1872V2.06475H16.9182V1.13309H22.524V2.06475H20.255V9.11869ZM26.3947 9.11869V1.13309H27.4625V9.11869H26.3947ZM32.0005 9.11869H30.9327V2.06475H28.6637V1.13309H34.136V2.06475H31.867V9.11869H32.0005ZM44.6803 8.05395C43.8795 8.8525 42.9452 9.25179 41.7439 9.25179C40.5427 9.25179 39.6084 8.8525 38.8076 8.05395C38.0067 7.25538 37.6063 6.32373 37.6063 5.12589C37.6063 3.92805 38.0067 2.9964 38.8076 2.19784C39.6084 1.39928 40.5427 1 41.7439 1C42.9452 1 43.8795 1.39928 44.6803 2.19784C45.4812 2.9964 45.8816 3.92805 45.8816 5.12589C45.8816 6.32373 45.4812 7.25538 44.6803 8.05395ZM39.6084 7.38848C40.1423 7.92085 40.9431 8.32013 41.7439 8.32013C42.5448 8.32013 43.3456 8.05395 43.8795 7.38848C44.4134 6.85611 44.8138 6.05755 44.8138 5.12589C44.8138 4.19424 44.5468 3.39568 43.8795 2.86331C43.3456 2.33093 42.5448 1.93165 41.7439 1.93165C40.9431 1.93165 40.1423 2.19784 39.6084 2.86331C39.0745 3.39568 38.6741 4.19424 38.6741 5.12589C38.6741 6.05755 38.941 6.85611 39.6084 7.38848ZM47.3498 9.11869V1.13309H48.551L52.4217 7.38848V1.13309H53.4895V9.11869H52.4217L48.2841 2.59712V9.11869H47.3498Z" fill="white" stroke="white" stroke-width="1.18519" stroke-miterlimit="10"/>
<path id="Vector_2" d="M42.0257 25.5586C38.3206 25.5586 35.3874 28.3165 35.3874 32.1469C35.3874 35.8241 38.3206 38.7352 42.0257 38.7352C45.7309 38.7352 48.6641 35.9773 48.6641 32.1469C48.6641 28.1633 45.7309 25.5586 42.0257 25.5586ZM42.0257 35.9773C40.0188 35.9773 38.3206 34.2919 38.3206 31.9937C38.3206 29.6954 40.0188 28.01 42.0257 28.01C44.0327 28.01 45.7309 29.5422 45.7309 31.9937C45.7309 34.2919 44.0327 35.9773 42.0257 35.9773ZM27.6684 25.5586C23.9632 25.5586 21.03 28.3165 21.03 32.1469C21.03 35.8241 23.9632 38.7352 27.6684 38.7352C31.3735 38.7352 34.3067 35.9773 34.3067 32.1469C34.3067 28.1633 31.3735 25.5586 27.6684 25.5586ZM27.6684 35.9773C25.6614 35.9773 23.9632 34.2919 23.9632 31.9937C23.9632 29.6954 25.6614 28.01 27.6684 28.01C29.6753 28.01 31.3735 29.5422 31.3735 31.9937C31.3735 34.2919 29.6753 35.9773 27.6684 35.9773ZM10.5321 27.5504V30.3083H17.1705C17.0161 31.8404 16.3986 33.0662 15.6267 33.8323C14.7004 34.7516 13.1566 35.8241 10.5321 35.8241C6.36386 35.8241 3.27625 32.6065 3.27625 28.4697C3.27625 24.3329 6.51824 21.1153 10.5321 21.1153C12.6935 21.1153 14.3916 22.0346 15.6267 23.1071L17.6336 21.1153C15.9354 19.5832 13.7741 18.3574 10.6865 18.3574C5.12881 18.3574 0.343018 22.9539 0.343018 28.4697C0.343018 33.9855 5.12881 38.582 10.6865 38.582C13.7741 38.582 15.9354 37.6627 17.788 35.6709C19.6406 33.8323 20.2581 31.2276 20.2581 29.2358C20.2581 28.6229 20.2581 28.01 20.1037 27.5504H10.5321ZM80.6208 29.6954C80.0033 28.1633 78.4595 25.5586 75.0631 25.5586C71.6668 25.5586 68.8879 28.1633 68.8879 32.1469C68.8879 35.8241 71.6668 38.7352 75.3719 38.7352C78.3051 38.7352 80.1577 36.8966 80.7752 35.8241L78.6139 34.2919C77.842 35.3644 76.9157 36.1305 75.3719 36.1305C73.8281 36.1305 72.9018 35.5176 72.1299 34.1387L80.9296 30.4615L80.6208 29.6954ZM71.6668 31.8404C71.6668 29.389 73.6737 28.01 75.0631 28.01C76.1438 28.01 77.2245 28.6229 77.5332 29.389L71.6668 31.8404ZM64.4109 38.1223H67.3441V18.9703H64.4109V38.1223ZM59.7795 26.9375C59.0076 26.1714 57.7725 25.4054 56.2287 25.4054C52.9867 25.4054 49.8991 28.3165 49.8991 31.9937C49.8991 35.6709 52.8324 38.4287 56.2287 38.4287C57.7725 38.4287 59.0076 37.6627 59.6251 36.8966H59.7795V37.8159C59.7795 40.2673 58.3901 41.6463 56.2287 41.6463C54.5306 41.6463 53.2955 40.4205 52.9867 39.348L50.5167 40.4206C51.2886 42.1059 53.1411 44.251 56.3831 44.251C59.7795 44.251 62.5583 42.2591 62.5583 37.5094V25.865H59.7795V26.9375ZM56.3831 35.9773C54.3762 35.9773 52.678 34.2919 52.678 31.9937C52.678 29.6954 54.3762 28.01 56.3831 28.01C58.3901 28.01 59.9339 29.6954 59.9339 31.9937C59.9339 34.2919 58.3901 35.9773 56.3831 35.9773ZM94.0519 18.9703H87.1048V38.1223H90.038V30.9211H94.0519C97.2939 30.9211 100.382 28.6229 100.382 24.9457C100.382 21.2685 97.2939 18.9703 94.0519 18.9703ZM94.2063 28.1633H90.038V21.575H94.2063C96.3676 21.575 97.6027 23.4136 97.6027 24.7925C97.4483 26.4779 96.2133 28.1633 94.2063 28.1633ZM111.96 25.4054C109.799 25.4054 107.637 26.3247 106.866 28.3165L109.49 29.389C110.108 28.3165 111.034 28.01 112.114 28.01C113.658 28.01 115.048 28.9293 115.202 30.4615V30.6147C114.739 30.3083 113.504 29.8486 112.269 29.8486C109.49 29.8486 106.711 31.3808 106.711 34.1387C106.711 36.7434 109.027 38.4287 111.497 38.4287C113.504 38.4287 114.43 37.5094 115.202 36.5901H115.356V38.1223H118.135V30.7679C117.827 27.3972 115.202 25.4054 111.96 25.4054ZM111.651 35.9773C110.725 35.9773 109.336 35.5176 109.336 34.2919C109.336 32.7597 111.034 32.3001 112.423 32.3001C113.658 32.3001 114.276 32.6065 115.048 32.913C114.739 34.7516 113.195 35.9773 111.651 35.9773ZM127.861 25.865L124.619 34.1387H124.465L121.069 25.865H117.981L123.075 37.5094L120.142 43.9445H123.075L130.949 25.865H127.861ZM101.925 38.1223H104.859V18.9703H101.925V38.1223Z" fill="white"/>
</g>
</svg>
