<svg width="44" height="44" viewBox="0 0 44 44" fill="none" xmlns="http://www.w3.org/2000/svg">
<g filter="url(#filter0_d_4610_1023)">
<g clip-path="url(#clip0_4610_1023)">
<g clip-path="url(#clip1_4610_1023)">
<path d="M38 5H6V37H38V5Z" fill="#AFF06E"/>
</g>
</g>
</g>
<path d="M36.5718 20.7614C37.1803 21.1559 37.6658 21.6991 37.8985 22.4582C38.1246 23.1875 37.9916 24.0991 37.443 24.568C36.9542 24.9884 36.2393 24.9661 35.694 24.6498C34.8029 24.1363 34.2111 22.9121 33.852 21.9075C33.5594 21.0852 33.1504 20.5121 32.5585 20.0247C32.4222 19.9131 32.4987 19.6749 32.6649 19.6935C33.9052 19.8275 35.4513 20.0433 36.5718 20.7652V20.7614Z" fill="#61C0EB"/>
<path d="M7.43175 20.7617C6.82327 21.1561 6.34115 21.6994 6.10507 22.4584C5.87897 23.1877 6.01197 24.0994 6.5606 24.5682C7.04937 24.9887 7.76425 24.9663 8.30956 24.6501C9.20066 24.1366 9.79252 22.9124 10.1516 21.9077C10.4442 21.0854 10.8532 20.5124 11.4451 20.0249C11.5814 19.9133 11.5049 19.6752 11.3387 19.6938C10.0984 19.8277 8.54896 20.0435 7.43175 20.7654V20.7617Z" fill="#61C0EB"/>
<path d="M14.6874 22.6518C14.2618 22.6518 13.9659 23.1095 14.0789 23.5709C14.8337 26.6406 18.0889 28.9551 21.9991 28.9551C25.9093 28.9551 29.2078 26.6146 29.9326 23.5151C30.0357 23.076 29.7165 22.6555 29.3142 22.6555H14.6874V22.6518Z" fill="#0B1215"/>
<path d="M31.5172 19.4965C31.6668 19.6007 31.863 19.4816 31.863 19.2844C31.863 18.1049 31.0118 17.1523 29.9611 17.1523C28.9104 17.1523 28.0625 18.1049 28.0625 19.2807C28.0625 19.4816 28.2587 19.6007 28.4083 19.4965C28.8605 19.184 29.3925 19.0016 29.9644 19.0016C30.5363 19.0016 31.0683 19.184 31.5205 19.4965H31.5172Z" fill="#0B1215"/>
<path d="M15.6026 19.4965C15.7522 19.6007 15.9484 19.4816 15.9484 19.2844C15.9484 18.1049 15.0972 17.1523 14.0464 17.1523C12.9957 17.1523 12.1445 18.1049 12.1445 19.2807C12.1445 19.4816 12.3407 19.6007 12.4903 19.4965C12.9425 19.184 13.4745 19.0016 14.0464 19.0016C14.6183 19.0016 15.1504 19.184 15.6026 19.4965Z" fill="#0B1215"/>
<path d="M12.7359 15.85C12.7026 15.85 12.666 15.8462 12.6328 15.8388C12.3801 15.7755 12.2205 15.4965 12.277 15.2137C12.4566 14.3169 12.962 13.6211 13.7034 13.2602C14.4416 12.8955 15.3227 12.9253 15.9512 13.3346C16.1739 13.4797 16.2504 13.7997 16.1207 14.0528C15.9911 14.3021 15.7051 14.3876 15.479 14.2425C15.1099 14.0044 14.548 13.9932 14.0792 14.2239C13.7533 14.3839 13.3377 14.7262 13.1947 15.4444C13.1448 15.69 12.952 15.8574 12.7392 15.8574L12.7359 15.85Z" fill="#0B1215"/>
<path d="M31.2729 15.8501C31.0601 15.8501 30.8639 15.6826 30.8173 15.437C30.6743 14.7152 30.2554 14.3766 29.9329 14.2166C29.4674 13.9896 28.9021 13.997 28.533 14.2352C28.3069 14.3803 28.021 14.2947 27.8913 14.0454C27.7616 13.7961 27.8381 13.4724 28.0609 13.3273C28.686 12.918 29.5704 12.8919 30.3086 13.2529C31.0501 13.6175 31.5555 14.3096 31.735 15.2063C31.7916 15.4891 31.632 15.7682 31.3793 15.8315C31.3427 15.8389 31.3094 15.8426 31.2762 15.8426L31.2729 15.8501Z" fill="#0B1215"/>
<defs>
<filter id="filter0_d_4610_1023" x="0" y="0" width="44" height="44" filterUnits="userSpaceOnUse" color-interpolation-filters="sRGB">
<feFlood flood-opacity="0" result="BackgroundImageFix"/>
<feColorMatrix in="SourceAlpha" type="matrix" values="0 0 0 0 0 0 0 0 0 0 0 0 0 0 0 0 0 0 127 0" result="hardAlpha"/>
<feOffset dy="1"/>
<feGaussianBlur stdDeviation="3"/>
<feComposite in2="hardAlpha" operator="out"/>
<feColorMatrix type="matrix" values="0 0 0 0 0.616667 0 0 0 0 0.616667 0 0 0 0 0.616667 0 0 0 0.15 0"/>
<feBlend mode="normal" in2="BackgroundImageFix" result="effect1_dropShadow_4610_1023"/>
<feBlend mode="normal" in="SourceGraphic" in2="effect1_dropShadow_4610_1023" result="shape"/>
</filter>
<clipPath id="clip0_4610_1023">
<rect x="6" y="5" width="32" height="32" rx="8" fill="white"/>
</clipPath>
<clipPath id="clip1_4610_1023">
<rect x="6" y="5" width="32" height="32" rx="8" fill="white"/>
</clipPath>
</defs>
</svg>
