<svg width="218" height="56" viewBox="0 0 218 56" fill="none" xmlns="http://www.w3.org/2000/svg">
<g id="header-logo">
<path id="Vector" d="M9.05125 38.08V52.304H4.02277V14.952H9.05125V18.816C11.0068 16.128 14.2473 14.28 17.879 14.28C24.9189 14.28 29.8915 19.6 29.8915 28.448C29.8915 37.296 24.9189 42.672 17.879 42.672C14.3591 42.672 11.2303 41.048 9.05125 38.08ZM24.6395 28.448C24.6395 22.848 21.5666 18.76 16.5381 18.76C13.4651 18.76 10.3922 20.552 9.05125 22.736V34.216C10.3922 36.344 13.4651 38.192 16.5381 38.192C21.5666 38.192 24.6395 34.104 24.6395 28.448ZM33.9226 38.472L36.3251 34.776C38.1689 36.792 41.7447 38.64 45.3763 38.64C49.1756 38.64 51.187 37.072 51.187 34.776C51.187 32.088 48.1141 31.192 44.65 30.408C40.0685 29.344 34.7048 28.112 34.7048 22.288C34.7048 17.976 38.3923 14.28 44.9852 14.28C49.6226 14.28 52.9749 15.96 55.2657 18.144L53.0308 21.672C51.4664 19.768 48.4493 18.368 45.0411 18.368C41.6329 18.368 39.5098 19.712 39.5098 21.896C39.5098 24.248 42.4151 25.032 45.7674 25.816C50.4607 26.88 56.0479 28.168 56.0479 34.384C56.0479 39.032 52.2486 42.672 45.1529 42.672C40.6272 42.672 36.6603 41.272 33.9226 38.472ZM61.0637 52.584L61.8459 48.048C62.4605 48.328 63.4104 48.496 64.0808 48.496C65.9246 48.496 67.1538 47.88 67.9919 45.864L69.5563 42.28L58.4377 14.952H63.8015L72.2381 36.176L80.6745 14.952H86.0941L72.7968 47.152C71.0648 51.408 68.1036 52.92 64.1926 52.976C63.3545 52.976 61.8459 52.808 61.0637 52.584Z" fill="#F5F5F7"/>
<path id="Vector_2" d="M128.835 28.448C128.835 20.608 134.478 14.28 142.356 14.28C150.457 14.28 155.486 20.608 155.486 28.896V30.128H134.142C134.534 34.72 137.886 38.528 143.305 38.528C146.155 38.528 149.284 37.408 151.295 35.336L153.642 38.64C150.96 41.272 147.161 42.672 142.803 42.672C134.757 42.672 128.835 36.96 128.835 28.448ZM142.356 18.424C136.936 18.424 134.366 22.792 134.087 26.488H150.569C150.457 22.904 148.055 18.424 142.356 18.424ZM182.72 42H177.021L169.478 31.472L161.88 42H156.181L166.294 28.112L156.795 14.952H162.494L169.478 24.696L176.407 14.952H182.105L172.551 28.112L182.72 42ZM208.88 42H203.851V39.032C201.728 41.384 198.655 42.672 195.024 42.672C190.554 42.672 185.637 39.648 185.637 33.712C185.637 27.552 190.498 24.864 195.024 24.864C198.655 24.864 201.784 26.04 203.851 28.448V23.968C203.851 20.608 201.114 18.592 197.258 18.592C194.185 18.592 191.559 19.768 189.157 22.176L186.978 18.704C189.995 15.736 193.683 14.28 198.041 14.28C203.907 14.28 208.88 16.856 208.88 23.744V42ZM203.851 36.064V31.472C202.343 29.456 199.717 28.392 196.923 28.392C193.292 28.392 190.721 30.576 190.721 33.768C190.721 36.96 193.292 39.144 196.923 39.144C199.717 39.144 202.343 38.08 203.851 36.064Z" fill="#F5F5F7"/>
<path id="Vector_3" d="M99.7082 38.8015V44.803C99.2473 48.101 91.8753 47.9378 91.568 44.803V23.2675C91.568 19.0606 96.3288 16.2871 99.7082 20.1678L105.084 28.36L110.459 36.6805C114.299 43.5328 121.056 41.0855 121.056 36.028V30.8072V25.4234V16.5785C121.056 11.0664 109.691 11.0664 109.691 16.5785V24.4095" stroke="#F5F5F7" stroke-width="3.5" stroke-linecap="round"/>
<path id="Vector_4" d="M115.624 9.33333C118.195 9.33333 120.28 7.244 120.28 4.66667C120.28 2.08934 118.195 0 115.624 0C113.053 0 110.968 2.08934 110.968 4.66667C110.968 7.244 113.053 9.33333 115.624 9.33333Z" fill="#F5F5F7"/>
<path id="Vector_5" d="M111.356 4.66667C112.908 5.31481 116.4 5.98889 119.504 3.5" stroke="#0A6EBD" stroke-linecap="round"/>
<path id="Vector_6" d="M116.012 5.83333C116.441 5.83333 116.788 5.4851 116.788 5.05555C116.788 4.62599 116.441 4.27777 116.012 4.27777C115.583 4.27777 115.236 4.62599 115.236 5.05555C115.236 5.4851 115.583 5.83333 116.012 5.83333Z" fill="#F5F5F7" stroke="#0A6EBD"/>
</g>
</svg>
