<svg width="962" height="171" viewBox="0 0 962 171" fill="none" xmlns="http://www.w3.org/2000/svg">
<g clip-path="url(#clip0_4651_4218)">
<g filter="url(#filter0_f_4651_4218)">
<rect x="-1.5" y="35.5" width="74" height="100" rx="24" fill="#0A6EBD"/>
<rect x="-1.5" y="35.5" width="74" height="100" rx="24" fill="url(#paint0_linear_4651_4218)"/>
<rect x="-1.3" y="35.7" width="73.6" height="99.6" rx="23.8" stroke="white" stroke-width="0.4"/>
<circle cx="35.5" cy="85.5" r="12" fill="white"/>
</g>
<g filter="url(#filter1_f_4651_4218)">
<rect x="84.5" y="35.5" width="74" height="100" rx="24" fill="#0A6EBD"/>
<rect x="84.5" y="35.5" width="74" height="100" rx="24" fill="url(#paint1_linear_4651_4218)"/>
<rect x="84.7" y="35.7" width="73.6" height="99.6" rx="23.8" stroke="white" stroke-width="0.4"/>
<circle cx="121.5" cy="85.5" r="12" fill="white"/>
</g>
<g filter="url(#filter2_f_4651_4218)">
<rect x="170.5" y="35.5" width="74" height="100" rx="24" fill="#0A6EBD"/>
<rect x="170.5" y="35.5" width="74" height="100" rx="24" fill="url(#paint2_linear_4651_4218)"/>
<rect x="170.7" y="35.7" width="73.6" height="99.6" rx="23.8" stroke="white" stroke-width="0.4"/>
<circle cx="207.5" cy="85.5" r="12" fill="white"/>
</g>
<g filter="url(#filter3_f_4651_4218)">
<rect x="256.5" y="35.5" width="74" height="100" rx="24" fill="#0A6EBD"/>
<rect x="256.5" y="35.5" width="74" height="100" rx="24" fill="url(#paint3_linear_4651_4218)"/>
<rect x="256.7" y="35.7" width="73.6" height="99.6" rx="23.8" stroke="white" stroke-width="0.4"/>
<circle cx="293.5" cy="85.5" r="12" fill="white"/>
</g>
<g filter="url(#filter4_f_4651_4218)">
<rect x="342.5" y="35.5" width="74" height="100" rx="24" fill="#0A6EBD"/>
<rect x="342.5" y="35.5" width="74" height="100" rx="24" fill="url(#paint4_linear_4651_4218)"/>
<rect x="342.7" y="35.7" width="73.6" height="99.6" rx="23.8" stroke="white" stroke-width="0.4"/>
<circle cx="379.5" cy="85.5" r="12" fill="white"/>
</g>
<g filter="url(#filter5_f_4651_4218)">
<rect x="428.5" y="14.5" width="105" height="142" rx="24" fill="url(#paint5_linear_4651_4218)"/>
<rect x="428.35" y="14.35" width="105.3" height="142.3" rx="24.15" stroke="url(#paint6_linear_4651_4218)" stroke-width="0.3"/>
</g>
<g filter="url(#filter6_f_4651_4218)">
<rect x="545.5" y="35.5" width="74" height="100" rx="24" fill="#0A6EBD"/>
<rect x="545.5" y="35.5" width="74" height="100" rx="24" fill="url(#paint7_linear_4651_4218)"/>
<rect x="545.7" y="35.7" width="73.6" height="99.6" rx="23.8" stroke="white" stroke-width="0.4"/>
<circle cx="582.5" cy="85.5" r="12" fill="white"/>
</g>
<g filter="url(#filter7_f_4651_4218)">
<rect x="631.5" y="35.5" width="74" height="100" rx="24" fill="#0A6EBD"/>
<rect x="631.5" y="35.5" width="74" height="100" rx="24" fill="url(#paint8_linear_4651_4218)"/>
<rect x="631.7" y="35.7" width="73.6" height="99.6" rx="23.8" stroke="white" stroke-width="0.4"/>
<circle cx="668.5" cy="85.5" r="12" fill="white"/>
</g>
<g filter="url(#filter8_f_4651_4218)">
<rect x="717.5" y="35.5" width="74" height="100" rx="24" fill="#0A6EBD"/>
<rect x="717.5" y="35.5" width="74" height="100" rx="24" fill="url(#paint9_linear_4651_4218)"/>
<rect x="717.7" y="35.7" width="73.6" height="99.6" rx="23.8" stroke="white" stroke-width="0.4"/>
<circle cx="754.5" cy="85.5" r="12" fill="white"/>
</g>
<g filter="url(#filter9_f_4651_4218)">
<rect x="803.5" y="35.5" width="74" height="100" rx="24" fill="#0A6EBD"/>
<rect x="803.5" y="35.5" width="74" height="100" rx="24" fill="url(#paint10_linear_4651_4218)"/>
<rect x="803.7" y="35.7" width="73.6" height="99.6" rx="23.8" stroke="white" stroke-width="0.4"/>
<circle cx="840.5" cy="85.5" r="12" fill="white"/>
</g>
<g filter="url(#filter10_f_4651_4218)">
<rect x="889.5" y="35.5" width="74" height="100" rx="24" fill="#0A6EBD"/>
<rect x="889.5" y="35.5" width="74" height="100" rx="24" fill="url(#paint11_linear_4651_4218)"/>
<rect x="889.7" y="35.7" width="73.6" height="99.6" rx="23.8" stroke="white" stroke-width="0.4"/>
<circle cx="926.5" cy="85.5" r="12" fill="white"/>
</g>
<g filter="url(#filter11_i_4651_4218)">
<path d="M496.113 72.2802V64.9446C496.113 56.3585 489.15 49.3952 480.564 49.3952C471.978 49.3577 464.988 56.2867 464.95 64.8762V64.9446V72.2802" stroke="white" stroke-width="5" stroke-linecap="round" stroke-linejoin="round"/>
<path fill-rule="evenodd" clip-rule="evenodd" d="M493.584 112.603H467.477C460.323 112.603 454.521 106.805 454.521 99.6472V84.9931C454.521 77.8352 460.323 72.0371 467.477 72.0371H493.584C500.739 72.0371 506.54 77.8352 506.54 84.9931V99.6472C506.54 106.805 500.739 112.603 493.584 112.603Z" stroke="white" stroke-width="5" stroke-linecap="round" stroke-linejoin="round"/>
<path d="M480.531 88.5259V96.1143" stroke="white" stroke-width="5" stroke-linecap="round" stroke-linejoin="round"/>
</g>
</g>
<defs>
<filter id="filter0_f_4651_4218" x="-13.5" y="23.5" width="98" height="124" filterUnits="userSpaceOnUse" color-interpolation-filters="sRGB">
<feFlood flood-opacity="0" result="BackgroundImageFix"/>
<feBlend mode="normal" in="SourceGraphic" in2="BackgroundImageFix" result="shape"/>
<feGaussianBlur stdDeviation="6" result="effect1_foregroundBlur_4651_4218"/>
</filter>
<filter id="filter1_f_4651_4218" x="72.5" y="23.5" width="98" height="124" filterUnits="userSpaceOnUse" color-interpolation-filters="sRGB">
<feFlood flood-opacity="0" result="BackgroundImageFix"/>
<feBlend mode="normal" in="SourceGraphic" in2="BackgroundImageFix" result="shape"/>
<feGaussianBlur stdDeviation="6" result="effect1_foregroundBlur_4651_4218"/>
</filter>
<filter id="filter2_f_4651_4218" x="158.5" y="23.5" width="98" height="124" filterUnits="userSpaceOnUse" color-interpolation-filters="sRGB">
<feFlood flood-opacity="0" result="BackgroundImageFix"/>
<feBlend mode="normal" in="SourceGraphic" in2="BackgroundImageFix" result="shape"/>
<feGaussianBlur stdDeviation="6" result="effect1_foregroundBlur_4651_4218"/>
</filter>
<filter id="filter3_f_4651_4218" x="244.5" y="23.5" width="98" height="124" filterUnits="userSpaceOnUse" color-interpolation-filters="sRGB">
<feFlood flood-opacity="0" result="BackgroundImageFix"/>
<feBlend mode="normal" in="SourceGraphic" in2="BackgroundImageFix" result="shape"/>
<feGaussianBlur stdDeviation="6" result="effect1_foregroundBlur_4651_4218"/>
</filter>
<filter id="filter4_f_4651_4218" x="330.5" y="23.5" width="98" height="124" filterUnits="userSpaceOnUse" color-interpolation-filters="sRGB">
<feFlood flood-opacity="0" result="BackgroundImageFix"/>
<feBlend mode="normal" in="SourceGraphic" in2="BackgroundImageFix" result="shape"/>
<feGaussianBlur stdDeviation="6" result="effect1_foregroundBlur_4651_4218"/>
</filter>
<filter id="filter5_f_4651_4218" x="424.2" y="10.2002" width="113.6" height="150.6" filterUnits="userSpaceOnUse" color-interpolation-filters="sRGB">
<feFlood flood-opacity="0" result="BackgroundImageFix"/>
<feBlend mode="normal" in="SourceGraphic" in2="BackgroundImageFix" result="shape"/>
<feGaussianBlur stdDeviation="2" result="effect1_foregroundBlur_4651_4218"/>
</filter>
<filter id="filter6_f_4651_4218" x="533.5" y="23.5" width="98" height="124" filterUnits="userSpaceOnUse" color-interpolation-filters="sRGB">
<feFlood flood-opacity="0" result="BackgroundImageFix"/>
<feBlend mode="normal" in="SourceGraphic" in2="BackgroundImageFix" result="shape"/>
<feGaussianBlur stdDeviation="6" result="effect1_foregroundBlur_4651_4218"/>
</filter>
<filter id="filter7_f_4651_4218" x="619.5" y="23.5" width="98" height="124" filterUnits="userSpaceOnUse" color-interpolation-filters="sRGB">
<feFlood flood-opacity="0" result="BackgroundImageFix"/>
<feBlend mode="normal" in="SourceGraphic" in2="BackgroundImageFix" result="shape"/>
<feGaussianBlur stdDeviation="6" result="effect1_foregroundBlur_4651_4218"/>
</filter>
<filter id="filter8_f_4651_4218" x="705.5" y="23.5" width="98" height="124" filterUnits="userSpaceOnUse" color-interpolation-filters="sRGB">
<feFlood flood-opacity="0" result="BackgroundImageFix"/>
<feBlend mode="normal" in="SourceGraphic" in2="BackgroundImageFix" result="shape"/>
<feGaussianBlur stdDeviation="6" result="effect1_foregroundBlur_4651_4218"/>
</filter>
<filter id="filter9_f_4651_4218" x="791.5" y="23.5" width="98" height="124" filterUnits="userSpaceOnUse" color-interpolation-filters="sRGB">
<feFlood flood-opacity="0" result="BackgroundImageFix"/>
<feBlend mode="normal" in="SourceGraphic" in2="BackgroundImageFix" result="shape"/>
<feGaussianBlur stdDeviation="6" result="effect1_foregroundBlur_4651_4218"/>
</filter>
<filter id="filter10_f_4651_4218" x="877.5" y="23.5" width="98" height="124" filterUnits="userSpaceOnUse" color-interpolation-filters="sRGB">
<feFlood flood-opacity="0" result="BackgroundImageFix"/>
<feBlend mode="normal" in="SourceGraphic" in2="BackgroundImageFix" result="shape"/>
<feGaussianBlur stdDeviation="6" result="effect1_foregroundBlur_4651_4218"/>
</filter>
<filter id="filter11_i_4651_4218" x="452.021" y="46.895" width="57.0188" height="72.208" filterUnits="userSpaceOnUse" color-interpolation-filters="sRGB">
<feFlood flood-opacity="0" result="BackgroundImageFix"/>
<feBlend mode="normal" in="SourceGraphic" in2="BackgroundImageFix" result="shape"/>
<feColorMatrix in="SourceAlpha" type="matrix" values="0 0 0 0 0 0 0 0 0 0 0 0 0 0 0 0 0 0 127 0" result="hardAlpha"/>
<feOffset dy="4"/>
<feGaussianBlur stdDeviation="6"/>
<feComposite in2="hardAlpha" operator="arithmetic" k2="-1" k3="1"/>
<feColorMatrix type="matrix" values="0 0 0 0 1 0 0 0 0 1 0 0 0 0 1 0 0 0 1 0"/>
<feBlend mode="normal" in2="shape" result="effect1_innerShadow_4651_4218"/>
</filter>
<linearGradient id="paint0_linear_4651_4218" x1="35.5" y1="35.5" x2="35.8725" y2="156.022" gradientUnits="userSpaceOnUse">
<stop stop-color="#0A6EBD" stop-opacity="0.2"/>
<stop offset="1" stop-color="#053357" stop-opacity="0.5"/>
</linearGradient>
<linearGradient id="paint1_linear_4651_4218" x1="121.5" y1="35.5" x2="121.873" y2="156.022" gradientUnits="userSpaceOnUse">
<stop stop-color="#0A6EBD" stop-opacity="0.2"/>
<stop offset="1" stop-color="#053357" stop-opacity="0.5"/>
</linearGradient>
<linearGradient id="paint2_linear_4651_4218" x1="207.5" y1="35.5" x2="207.873" y2="156.022" gradientUnits="userSpaceOnUse">
<stop stop-color="#0A6EBD" stop-opacity="0.2"/>
<stop offset="1" stop-color="#053357" stop-opacity="0.5"/>
</linearGradient>
<linearGradient id="paint3_linear_4651_4218" x1="293.5" y1="35.5" x2="293.873" y2="156.022" gradientUnits="userSpaceOnUse">
<stop stop-color="#0A6EBD" stop-opacity="0.2"/>
<stop offset="1" stop-color="#053357" stop-opacity="0.5"/>
</linearGradient>
<linearGradient id="paint4_linear_4651_4218" x1="379.5" y1="35.5" x2="379.873" y2="156.022" gradientUnits="userSpaceOnUse">
<stop stop-color="#0A6EBD" stop-opacity="0.2"/>
<stop offset="1" stop-color="#053357" stop-opacity="0.5"/>
</linearGradient>
<linearGradient id="paint5_linear_4651_4218" x1="481.5" y1="-34.5" x2="631.499" y2="249.001" gradientUnits="userSpaceOnUse">
<stop stop-color="#2B6491"/>
<stop offset="1" stop-color="#1183DD" stop-opacity="0.5"/>
</linearGradient>
<linearGradient id="paint6_linear_4651_4218" x1="468" y1="-38" x2="423.5" y2="175" gradientUnits="userSpaceOnUse">
<stop offset="1" stop-color="white"/>
<stop offset="1" stop-color="white"/>
</linearGradient>
<linearGradient id="paint7_linear_4651_4218" x1="582.5" y1="35.5" x2="582.873" y2="156.022" gradientUnits="userSpaceOnUse">
<stop stop-color="#0A6EBD" stop-opacity="0.2"/>
<stop offset="1" stop-color="#053357" stop-opacity="0.5"/>
</linearGradient>
<linearGradient id="paint8_linear_4651_4218" x1="668.5" y1="35.5" x2="668.873" y2="156.022" gradientUnits="userSpaceOnUse">
<stop stop-color="#0A6EBD" stop-opacity="0.2"/>
<stop offset="1" stop-color="#053357" stop-opacity="0.5"/>
</linearGradient>
<linearGradient id="paint9_linear_4651_4218" x1="754.5" y1="35.5" x2="754.873" y2="156.022" gradientUnits="userSpaceOnUse">
<stop stop-color="#0A6EBD" stop-opacity="0.2"/>
<stop offset="1" stop-color="#053357" stop-opacity="0.5"/>
</linearGradient>
<linearGradient id="paint10_linear_4651_4218" x1="840.5" y1="35.5" x2="840.873" y2="156.022" gradientUnits="userSpaceOnUse">
<stop stop-color="#0A6EBD" stop-opacity="0.2"/>
<stop offset="1" stop-color="#053357" stop-opacity="0.5"/>
</linearGradient>
<linearGradient id="paint11_linear_4651_4218" x1="926.5" y1="35.5" x2="926.873" y2="156.022" gradientUnits="userSpaceOnUse">
<stop stop-color="#0A6EBD" stop-opacity="0.2"/>
<stop offset="1" stop-color="#053357" stop-opacity="0.5"/>
</linearGradient>
<clipPath id="clip0_4651_4218">
<rect width="962" height="171" fill="white"/>
</clipPath>
</defs>
</svg>
