<svg width="26" height="39" viewBox="0 0 26 39" fill="none" xmlns="http://www.w3.org/2000/svg">
<circle cx="20.0096" cy="4.6981" r="3.9481" fill="#F5F5F7" stroke="#0A6EBD" stroke-width="1.5"/>
<circle cx="20.0096" cy="4.6981" r="3.9481" stroke="#0A6EBD" stroke-width="1.5"/>
<path d="M16.0947 4.30658C17.6525 4.94477 20.8094 5.97422 23.9249 3.52356" stroke="#0A6EBD" stroke-linecap="round"/>
<path d="M20.9017 4.95909C20.9017 5.30759 20.6192 5.59011 20.2707 5.59011C19.9222 5.59011 19.6396 5.30759 19.6396 4.95909C19.6396 4.61058 19.9222 4.32806 20.2707 4.32806C20.6192 4.32806 20.9017 4.61058 20.9017 4.95909Z" fill="#F5F5F7" stroke="#0A6EBD"/>
<path d="M8.05208 30.9939V35.1985C7.70951 37.5091 2.22838 37.3948 2 35.1985V20.1109C2 17.1635 5.5399 15.2204 8.05208 17.9392L12.0487 23.6786L16.0454 29.508C18.9001 34.3086 23.9245 32.5941 23.9245 29.0508V25.3931V21.6212V15.4246C23.9245 11.5628 15.4744 11.5628 15.4744 15.4246V20.911" stroke="#F5F5F7" stroke-width="3" stroke-linecap="round"/>
</svg>
