<svg width="31" height="35" viewBox="0 0 31 35" fill="none" xmlns="http://www.w3.org/2000/svg">
<g id="Group">
<path id="Vector" d="M0.5 2.81623C0.5 2.37891 0.544095 2.03705 0.626787 1.77889L16.496 17.3962L0.815039 33.0771C0.630408 32.7803 0.5 32.3581 0.5 31.8412V2.81623Z" fill="white" stroke="#E5E5E5"/>
<path id="Vector_2" d="M17.4523 17.4597L22.3746 12.5373L28.6456 16.1208C29.4746 16.5945 29.7727 17.1453 29.7727 17.591C29.7727 18.0357 29.4758 18.5853 28.6507 19.0583L22.4171 22.4244L17.4523 17.4597Z" fill="white" stroke="#E5E5E5"/>
<path id="Vector_3" d="M22.4582 22.9096L16.9422 17.3936L0.52533 33.8104C1.182 34.4671 2.10135 34.4671 3.28336 33.9417L22.4582 22.9096Z" fill="white"/>
<path id="Vector_4" d="M3.03845 1.41257C3.03914 1.41296 3.03984 1.41334 3.04054 1.41373L21.6407 11.9878L16.9408 16.6878L1.29238 1.16462C1.43326 1.09856 1.58302 1.05997 1.74297 1.04854C2.07845 1.02458 2.50613 1.11722 3.03845 1.41257Z" fill="white" stroke="#E5E5E5"/>
<path id="Vector_5" opacity="0.2" d="M22.3269 22.7783L3.28336 33.5478C2.23268 34.2044 1.31334 34.0731 0.656665 33.5478L0.52533 33.6791L0.656665 33.8104C1.31334 34.3358 2.23268 34.4671 3.28336 33.8104L22.3269 22.7783Z" fill="white"/>
<path id="Vector_6" opacity="0.12" d="M0.525339 33.5477C0.131334 33.1537 0 32.4971 0 31.709V31.8404C0 32.6284 0.26267 33.2851 0.656674 33.6791V33.5477H0.525339ZM28.8936 19.1009L22.3269 22.7783L22.4582 22.9096L28.8936 19.2322C29.813 18.7069 30.207 18.0502 30.207 17.3936C30.207 18.0502 29.6817 18.5756 28.8936 19.1009Z" fill="white"/>
<path id="Vector_7" opacity="0.25" d="M3.28337 1.10837L28.8936 15.6865C29.6817 16.2119 30.207 16.7372 30.207 17.3939C30.207 16.7372 29.813 16.0805 28.8936 15.5552L3.28337 0.977033C1.44468 -0.0736447 0 0.714363 0 2.81572V2.94705C0 0.977033 1.44468 0.0576899 3.28337 1.10837Z" fill="white"/>
</g>
</svg>
