<svg width="102" height="34" viewBox="0 0 102 34" fill="none" xmlns="http://www.w3.org/2000/svg">
<g id="Group 2">
<path id="Vector" d="M7.78037 5.20307C7.78037 6.15642 7.54203 6.9906 6.94619 7.58645C6.23118 8.30146 5.39699 8.65897 4.32448 8.65897C3.25196 8.65897 2.41778 8.30146 1.70276 7.58645C0.987752 6.87144 0.630249 6.03726 0.630249 4.96474C0.630249 3.89222 0.987752 3.05804 1.70276 2.34303C2.41778 1.62801 3.25196 1.27051 4.32448 1.27051C4.80115 1.27051 5.27783 1.38968 5.7545 1.62801C6.23118 1.86635 6.58868 2.10469 6.82702 2.46219L6.23117 3.05804C5.7545 2.46219 5.15866 2.22386 4.32448 2.22386C3.60946 2.22386 2.89445 2.46219 2.41778 3.05804C1.82194 3.53471 1.5836 4.24973 1.5836 5.08391C1.5836 5.91809 1.82194 6.6331 2.41778 7.10977C3.01362 7.58645 3.60946 7.94395 4.32448 7.94395C5.15866 7.94395 5.7545 7.70562 6.35035 7.10977C6.70785 6.75227 6.94619 6.27559 6.94619 5.67975H4.32448V4.7264H7.78037V5.20307ZM13.2621 2.22386H10.0446V4.48806H13.0238V5.32224H10.0446V7.58645H13.2621V8.5398H9.09122V1.38968H13.2621V2.22386ZM17.1947 8.5398H16.2413V2.22386H14.2155V1.38968H19.2206V2.22386H17.1947V8.5398ZM22.6765 8.5398V1.38968H23.6298V8.5398H22.6765ZM27.6815 8.5398H26.7282V2.22386H24.7023V1.38968H29.5882V2.22386H27.5624V8.5398H27.6815ZM39.0026 7.58645C38.2876 8.30146 37.4534 8.65897 36.3809 8.65897C35.3083 8.65897 34.4742 8.30146 33.7591 7.58645C33.0441 6.87144 32.6866 6.03726 32.6866 4.96474C32.6866 3.89222 33.0441 3.05804 33.7591 2.34303C34.4742 1.62801 35.3083 1.27051 36.3809 1.27051C37.4534 1.27051 38.2876 1.62801 39.0026 2.34303C39.7176 3.05804 40.0751 3.89222 40.0751 4.96474C40.0751 6.03726 39.7176 6.87144 39.0026 7.58645ZM34.4742 6.9906C34.9508 7.46728 35.6658 7.82479 36.3809 7.82479C37.0959 7.82479 37.8109 7.58645 38.2876 6.9906C38.7642 6.51393 39.1217 5.79892 39.1217 4.96474C39.1217 4.13056 38.8834 3.41554 38.2876 2.93887C37.8109 2.46219 37.0959 2.10469 36.3809 2.10469C35.6658 2.10469 34.9508 2.34303 34.4742 2.93887C33.9975 3.41554 33.64 4.13056 33.64 4.96474C33.64 5.79892 33.8783 6.51393 34.4742 6.9906ZM41.3859 8.5398V1.38968H42.4585L45.9143 6.9906V1.38968H46.8677V8.5398H45.9143L42.2201 2.70053V8.5398H41.3859Z" fill="white" stroke="white" stroke-width="1.18519" stroke-miterlimit="10"/>
<path id="Vector_2" d="M32.4483 19.0267C29.5882 19.0267 27.324 21.1717 27.324 24.151C27.324 27.011 29.5882 29.2752 32.4483 29.2752C35.3083 29.2752 37.5725 27.1302 37.5725 24.151C37.5725 21.0526 35.3083 19.0267 32.4483 19.0267ZM32.4483 27.1302C30.8991 27.1302 29.5882 25.8193 29.5882 24.0318C29.5882 22.2443 30.8991 20.9334 32.4483 20.9334C33.9974 20.9334 35.3083 22.1251 35.3083 24.0318C35.3083 25.8193 33.9974 27.1302 32.4483 27.1302ZM21.3656 19.0267C18.5055 19.0267 16.2413 21.1717 16.2413 24.151C16.2413 27.011 18.5055 29.2752 21.3656 29.2752C24.2256 29.2752 26.4898 27.1302 26.4898 24.151C26.4898 21.0526 24.2256 19.0267 21.3656 19.0267ZM21.3656 27.1302C19.8164 27.1302 18.5055 25.8193 18.5055 24.0318C18.5055 22.2443 19.8164 20.9334 21.3656 20.9334C22.9148 20.9334 24.2256 22.1251 24.2256 24.0318C24.2256 25.8193 22.9148 27.1302 21.3656 27.1302ZM8.13784 20.5759V22.7209H13.2621C13.1429 23.9126 12.6663 24.866 12.0704 25.4618C11.3554 26.1768 10.1637 27.011 8.13784 27.011C4.92029 27.011 2.53691 24.5085 2.53691 21.2909C2.53691 18.0734 5.03946 15.5708 8.13784 15.5708C9.8062 15.5708 11.1171 16.2858 12.0704 17.12L13.6196 15.5708C12.3087 14.3791 10.6404 13.4258 8.25701 13.4258C3.96694 13.4258 0.272705 17.0008 0.272705 21.2909C0.272705 25.581 3.96694 29.156 8.25701 29.156C10.6404 29.156 12.3087 28.441 13.7388 26.8918C15.1688 25.4618 15.6455 23.436 15.6455 21.8868C15.6455 21.4101 15.6455 20.9334 15.5263 20.5759H8.13784ZM62.2404 22.2443C61.7637 21.0526 60.5721 19.0267 57.9504 19.0267C55.3286 19.0267 53.1836 21.0526 53.1836 24.151C53.1836 27.011 55.3286 29.2752 58.1887 29.2752C60.4529 29.2752 61.8829 27.8452 62.3596 27.011L60.6912 25.8193C60.0954 26.6535 59.3804 27.2494 58.1887 27.2494C56.997 27.2494 56.282 26.7727 55.6861 25.7002L62.4788 22.8401L62.2404 22.2443ZM55.3286 23.9126C55.3286 22.0059 56.8778 20.9334 57.9504 20.9334C58.7845 20.9334 59.6187 21.4101 59.8571 22.0059L55.3286 23.9126ZM49.7277 28.7985H51.9919V13.9025H49.7277V28.7985ZM46.1527 20.0992C45.5568 19.5034 44.6035 18.9075 43.4118 18.9075C40.9092 18.9075 38.5259 21.1717 38.5259 24.0318C38.5259 26.8918 40.7901 29.0369 43.4118 29.0369C44.6035 29.0369 45.5568 28.441 46.0335 27.8452H46.1527V28.5602C46.1527 30.4669 45.0801 31.5394 43.4118 31.5394C42.1009 31.5394 41.1476 30.5861 40.9092 29.7519L39.0025 30.5861C39.5984 31.8969 41.0284 33.5653 43.5309 33.5653C46.1527 33.5653 48.2977 32.0161 48.2977 28.3219V19.265H46.1527V20.0992ZM43.5309 27.1302C41.9818 27.1302 40.6709 25.8193 40.6709 24.0318C40.6709 22.2443 41.9818 20.9334 43.5309 20.9334C45.0801 20.9334 46.2718 22.2443 46.2718 24.0318C46.2718 25.8193 45.0801 27.1302 43.5309 27.1302ZM72.6081 13.9025H67.2455V28.7985H69.5097V23.1976H72.6081C75.1106 23.1976 77.494 21.4101 77.494 18.55C77.494 15.69 75.1106 13.9025 72.6081 13.9025ZM72.7273 21.0526H69.5097V15.9283H72.7273C74.3956 15.9283 75.349 17.3583 75.349 18.4309C75.2298 19.7417 74.2765 21.0526 72.7273 21.0526ZM86.4317 18.9075C84.7633 18.9075 83.0949 19.6226 82.4991 21.1717L84.525 22.0059C85.0017 21.1717 85.7167 20.9334 86.5508 20.9334C87.7425 20.9334 88.815 21.6484 88.9342 22.8401V22.9593C88.5767 22.7209 87.6234 22.3634 86.67 22.3634C84.525 22.3634 82.3799 23.5551 82.3799 25.7002C82.3799 27.726 84.1675 29.0369 86.0742 29.0369C87.6234 29.0369 88.3384 28.3219 88.9342 27.6069H89.0534V28.7985H91.1984V23.0784C90.9601 20.4567 88.9342 18.9075 86.4317 18.9075ZM86.1933 27.1302C85.4783 27.1302 84.4058 26.7727 84.4058 25.8193C84.4058 24.6276 85.7167 24.2701 86.7892 24.2701C87.7425 24.2701 88.2192 24.5085 88.815 24.7468C88.5767 26.1768 87.385 27.1302 86.1933 27.1302ZM98.706 19.265L96.2035 25.7002H96.0843L93.4626 19.265H91.0793L95.0118 28.3219L92.7476 33.327H95.0118L101.089 19.265H98.706ZM78.6857 28.7985H80.9499V13.9025H78.6857V28.7985Z" fill="white"/>
</g>
</svg>
