<svg width="16" height="16" viewBox="0 0 16 16" fill="none" xmlns="http://www.w3.org/2000/svg">
<g id="quill:breather">
<path id="Vector" d="M12.5962 12.596C13.2089 11.9945 13.6964 11.2775 14.0304 10.4865C14.3644 9.69556 14.5385 8.84624 14.5424 7.98763C14.5464 7.12902 14.3802 6.27814 14.0534 5.48412C13.7266 4.69011 13.2458 3.9687 12.6387 3.36157C12.0315 2.75443 11.3101 2.2736 10.5161 1.94685C9.72211 1.62009 8.87122 1.45389 8.01261 1.45783C7.154 1.46178 6.30468 1.63579 5.51371 1.96983C4.72273 2.30387 4.00577 2.79131 3.40424 3.404C2.20376 4.62675 1.53468 6.27409 1.54255 7.98763C1.55042 9.70117 2.23462 11.3423 3.44629 12.554C4.65796 13.7656 6.29907 14.4498 8.01261 14.4577C9.72616 14.4656 11.3735 13.7965 12.5962 12.596Z" stroke="white" stroke-linecap="round" stroke-linejoin="round"/>
</g>
</svg>
