<svg width="44" height="44" viewBox="0 0 44 44" fill="none" xmlns="http://www.w3.org/2000/svg">
<g filter="url(#filter0_d_4602_415)">
<g clip-path="url(#clip0_4602_415)">
<g clip-path="url(#clip1_4602_415)">
<path d="M38 5H6V37H38V5Z" fill="#FE7575"/>
<path d="M17.3035 20.2455C17.3035 21.5404 16.563 22.5934 15.6477 22.5934C14.7323 22.5934 13.9956 21.5404 13.9956 20.2455C13.9956 18.9506 14.7361 17.8976 15.6477 17.8976C16.5593 17.8976 17.3035 18.9469 17.3035 20.2455Z" fill="#0B1215"/>
<path d="M29.6683 20.2455C29.6683 21.5404 28.9278 22.5934 28.0162 22.5934C27.1045 22.5934 26.3604 21.5404 26.3604 20.2455C26.3604 18.9506 27.1008 17.8976 28.0162 17.8976C28.9315 17.8976 29.6683 18.9469 29.6683 20.2455Z" fill="#0B1215"/>
<path d="M18.2819 18.7013C18.0846 18.7013 17.906 18.5748 17.8465 18.3739C17.3628 16.7218 15.707 15.4641 13.7349 15.2409C13.4856 15.2148 13.307 14.9878 13.3367 14.7385C13.3665 14.4892 13.5898 14.3069 13.8391 14.3404C16.1684 14.6046 18.1293 16.1227 18.7209 18.1209C18.7916 18.3627 18.6539 18.612 18.4121 18.6864C18.3674 18.6976 18.3265 18.705 18.2819 18.705V18.7013Z" fill="#0B1215"/>
<path d="M25.3852 18.7012C25.3443 18.7012 25.2997 18.6975 25.255 18.6826C25.0132 18.6119 24.8755 18.3589 24.9499 18.117C25.5378 16.1189 27.4987 14.6007 29.828 14.3366C30.0811 14.3068 30.3006 14.4854 30.3304 14.7347C30.3601 14.984 30.1815 15.2073 29.9322 15.237C27.9601 15.4603 26.308 16.7217 25.8206 18.37C25.7611 18.5673 25.5825 18.6975 25.3852 18.6975V18.7012Z" fill="#0B1215"/>
<path d="M25.0768 27.8435C24.8982 27.8435 24.7196 27.7803 24.5782 27.6463C23.9047 27.0175 22.9819 26.6491 21.9847 26.6119C20.8796 26.5635 19.8266 26.9431 19.0973 27.6389C18.8033 27.9179 18.3419 27.9068 18.0629 27.6166C17.7838 27.3226 17.795 26.8612 18.0852 26.5821C19.0973 25.6147 20.541 25.0938 22.0405 25.1496C23.3875 25.2017 24.6452 25.7077 25.5754 26.5747C25.8694 26.85 25.888 27.3152 25.6126 27.6091C25.4675 27.7654 25.274 27.8435 25.0768 27.8435Z" fill="#0B1215"/>
</g>
</g>
</g>
<defs>
<filter id="filter0_d_4602_415" x="0" y="0" width="44" height="44" filterUnits="userSpaceOnUse" color-interpolation-filters="sRGB">
<feFlood flood-opacity="0" result="BackgroundImageFix"/>
<feColorMatrix in="SourceAlpha" type="matrix" values="0 0 0 0 0 0 0 0 0 0 0 0 0 0 0 0 0 0 127 0" result="hardAlpha"/>
<feOffset dy="1"/>
<feGaussianBlur stdDeviation="3"/>
<feComposite in2="hardAlpha" operator="out"/>
<feColorMatrix type="matrix" values="0 0 0 0 0.616667 0 0 0 0 0.616667 0 0 0 0 0.616667 0 0 0 0.15 0"/>
<feBlend mode="normal" in2="BackgroundImageFix" result="effect1_dropShadow_4602_415"/>
<feBlend mode="normal" in="SourceGraphic" in2="effect1_dropShadow_4602_415" result="shape"/>
</filter>
<clipPath id="clip0_4602_415">
<rect x="6" y="5" width="32" height="32" rx="8" fill="white"/>
</clipPath>
<clipPath id="clip1_4602_415">
<rect x="6" y="5" width="32" height="32" rx="8" fill="white"/>
</clipPath>
</defs>
</svg>
