<svg width="20" height="21" viewBox="0 0 20 21" fill="none" xmlns="http://www.w3.org/2000/svg">
<path d="M18.2278 20.5L13.038 15.5463C12.4051 16.0607 11.6772 16.4679 10.8544 16.768C10.0316 17.0681 9.15612 17.2181 8.22785 17.2181C5.92827 17.2181 3.98207 16.409 2.38924 14.7908C0.796413 13.1725 0 11.1953 0 8.85905C0 6.52281 0.796413 4.54557 2.38924 2.92734C3.98207 1.30911 5.92827 0.5 8.22785 0.5C10.5274 0.5 12.4736 1.30911 14.0665 2.92734C15.6593 4.54557 16.4557 6.52281 16.4557 8.85905C16.4557 9.80213 16.308 10.6916 16.0127 11.5275C15.7173 12.3634 15.3165 13.1029 14.8101 13.7459L20 18.6996L18.2278 20.5ZM8.22785 14.6461C9.81013 14.6461 11.1551 14.0835 12.2627 12.9582C13.3703 11.8329 13.9241 10.4666 13.9241 8.85905C13.9241 7.25154 13.3703 5.88516 12.2627 4.7599C11.1551 3.63465 9.81013 3.07202 8.22785 3.07202C6.64557 3.07202 5.30063 3.63465 4.19304 4.7599C3.08544 5.88516 2.53165 7.25154 2.53165 8.85905C2.53165 10.4666 3.08544 11.8329 4.19304 12.9582C5.30063 14.0835 6.64557 14.6461 8.22785 14.6461Z" fill="white"/>
</svg>
