<svg width="16" height="16" viewBox="0 0 16 16" fill="none" xmlns="http://www.w3.org/2000/svg">
<g id="solar:wind-linear">
<g id="Group">
<path id="Vector" d="M2 5.33333H6.33333C6.66297 5.33333 6.9852 5.23559 7.25928 5.05245C7.53337 4.86931 7.74699 4.60902 7.87313 4.30447C7.99928 3.99993 8.03228 3.66482 7.96798 3.34152C7.90367 3.01822 7.74493 2.72124 7.51184 2.48816C7.27876 2.25507 6.98179 2.09633 6.65848 2.03203C6.33518 1.96772 6.00007 2.00072 5.69553 2.12687C5.39098 2.25301 5.13069 2.46664 4.94755 2.74072C4.76442 3.0148 4.66667 3.33703 4.66667 3.66667V3.90467M2.66667 9.33333H12.3333C12.7948 9.33333 13.2459 9.47018 13.6297 9.72657C14.0134 9.98296 14.3124 10.3474 14.4891 10.7737C14.6657 11.2001 14.7119 11.6693 14.6218 12.1219C14.5318 12.5745 14.3096 12.9903 13.9833 13.3166C13.6569 13.6429 13.2412 13.8651 12.7885 13.9552C12.3359 14.0452 11.8668 13.999 11.4404 13.8224C11.014 13.6458 10.6496 13.3467 10.3932 12.963C10.1368 12.5793 10 12.1282 10 11.6667V11.3333" stroke="white" stroke-linecap="round"/>
<path id="Vector_2" d="M1.3335 7.33332H12.3335C12.795 7.33332 13.2461 7.19648 13.6298 6.94009C14.0135 6.6837 14.3126 6.31928 14.4892 5.89292C14.6658 5.46656 14.712 4.9974 14.622 4.54478C14.532 4.09216 14.3097 3.6764 13.9834 3.35008C13.6571 3.02375 13.2413 2.80152 12.7887 2.71149C12.3361 2.62146 11.8669 2.66767 11.4406 2.84427C11.0142 3.02088 10.6498 3.31995 10.3934 3.70366C10.137 4.08737 10.0002 4.5385 10.0002 4.99999V5.33332" stroke="white" stroke-linecap="round"/>
</g>
</g>
</svg>
