<svg width="496" height="96" viewBox="0 0 496 96" fill="none" xmlns="http://www.w3.org/2000/svg">
<path d="M1.44 25L1.44 8.2L4.368 8.2L4.368 22.072L11.364 22.072L11.364 25L1.44 25ZM12.5147 20.56L12.5147 13L15.4427 13L15.4427 19.792C15.4427 20.264 15.5587 20.696 15.7907 21.088C16.0227 21.472 16.3307 21.78 16.7147 22.012C17.1067 22.236 17.5347 22.348 17.9987 22.348C18.4787 22.348 18.9107 22.236 19.2947 22.012C19.6787 21.78 19.9867 21.472 20.2187 21.088C20.4507 20.696 20.5667 20.264 20.5667 19.792L20.5667 13L23.4947 13L23.5067 25L20.5787 25L20.5667 23.908C20.1507 24.34 19.6587 24.684 19.0907 24.94C18.5227 25.188 17.9147 25.312 17.2667 25.312C16.3947 25.312 15.5987 25.1 14.8787 24.676C14.1587 24.244 13.5827 23.672 13.1507 22.96C12.7267 22.24 12.5147 21.44 12.5147 20.56ZM33.1612 21.388L35.8013 22.816C35.2493 23.568 34.5573 24.172 33.7253 24.628C32.8933 25.084 31.9852 25.312 31.0012 25.312C29.8972 25.312 28.8893 25.028 27.9773 24.46C27.0732 23.892 26.3492 23.132 25.8052 22.18C25.2692 21.22 25.0012 20.16 25.0012 19C25.0012 18.12 25.1572 17.3 25.4692 16.54C25.7812 15.772 26.2092 15.1 26.7533 14.524C27.3052 13.94 27.9453 13.484 28.6733 13.156C29.4013 12.828 30.1773 12.664 31.0012 12.664C31.9853 12.664 32.8933 12.892 33.7253 13.348C34.5573 13.804 35.2493 14.416 35.8013 15.184L33.1612 16.6C32.8813 16.28 32.5493 16.032 32.1652 15.856C31.7892 15.68 31.4012 15.592 31.0012 15.592C30.4253 15.592 29.9053 15.752 29.4412 16.072C28.9772 16.384 28.6093 16.8 28.3373 17.32C28.0653 17.832 27.9293 18.392 27.9293 19C27.9293 19.6 28.0653 20.16 28.3373 20.68C28.6092 21.192 28.9772 21.604 29.4412 21.916C29.9053 22.228 30.4253 22.384 31.0012 22.384C31.4173 22.384 31.8133 22.296 32.1893 22.12C32.5653 21.936 32.8893 21.692 33.1612 21.388ZM44.3876 15.928L42.0596 15.928L42.0596 25L39.1316 25L39.1316 15.928L37.3556 15.928L37.3556 13L39.1316 13L39.1316 9.232L42.0596 9.232L42.0596 13L44.3876 13L44.3876 15.928ZM46.0772 20.56L46.0772 13L49.0052 13L49.0052 19.792C49.0052 20.264 49.1212 20.696 49.3532 21.088C49.5852 21.472 49.8932 21.78 50.2772 22.012C50.6692 22.236 51.0972 22.348 51.5612 22.348C52.0412 22.348 52.4732 22.236 52.8572 22.012C53.2412 21.78 53.5492 21.472 53.7812 21.088C54.0132 20.696 54.1292 20.264 54.1292 19.792L54.1292 13L57.0572 13L57.0692 25L54.1412 25L54.1292 23.908C53.7132 24.34 53.2212 24.684 52.6532 24.94C52.0852 25.188 51.4772 25.312 50.8292 25.312C49.9572 25.312 49.1612 25.1 48.4412 24.676C47.7212 24.244 47.1452 23.672 46.7132 22.96C46.2892 22.24 46.0772 21.44 46.0772 20.56ZM63.0112 25.216C62.3872 25.176 61.7832 25.052 61.1992 24.844C60.6232 24.628 60.1112 24.336 59.6632 23.968C59.2152 23.6 58.8712 23.16 58.6312 22.648L61.1032 21.592C61.1992 21.752 61.3552 21.924 61.5712 22.108C61.7873 22.284 62.0433 22.432 62.3393 22.552C62.6432 22.672 62.9753 22.732 63.3353 22.732C63.6393 22.732 63.9272 22.692 64.1992 22.612C64.4792 22.524 64.7033 22.392 64.8713 22.216C65.0473 22.04 65.1352 21.812 65.1352 21.532C65.1352 21.236 65.0313 21.008 64.8233 20.848C64.6233 20.68 64.3672 20.556 64.0553 20.476C63.7513 20.388 63.4553 20.308 63.1673 20.236C62.4072 20.084 61.6992 19.848 61.0432 19.528C60.3952 19.208 59.8712 18.796 59.4712 18.292C59.0792 17.78 58.8832 17.164 58.8832 16.444C58.8832 15.652 59.0912 14.968 59.5072 14.392C59.9312 13.816 60.4793 13.372 61.1513 13.06C61.8313 12.748 62.5633 12.592 63.3473 12.592C64.2993 12.592 65.1713 12.792 65.9633 13.192C66.7633 13.584 67.3953 14.14 67.8593 14.86L65.5433 16.228C65.4313 16.036 65.2753 15.86 65.0752 15.7C64.8753 15.532 64.6473 15.396 64.3913 15.292C64.1353 15.18 63.8673 15.116 63.5873 15.1C63.2273 15.084 62.8992 15.116 62.6032 15.196C62.3072 15.276 62.0672 15.412 61.8832 15.604C61.7073 15.796 61.6193 16.052 61.6193 16.372C61.6193 16.676 61.7393 16.904 61.9793 17.056C62.2193 17.2 62.5073 17.312 62.8433 17.392C63.1873 17.472 63.5153 17.56 63.8272 17.656C64.5313 17.888 65.1913 18.172 65.8072 18.508C66.4312 18.844 66.9313 19.256 67.3073 19.744C67.6833 20.232 67.8633 20.816 67.8472 21.496C67.8472 22.272 67.6153 22.952 67.1513 23.536C66.6873 24.112 66.0872 24.552 65.3512 24.856C64.6233 25.16 63.8433 25.28 63.0112 25.216ZM83.0946 25L79.3146 25L74.9466 12.988L78.0666 12.988L81.2106 21.628L84.3426 12.988L87.4626 12.988L83.0946 25ZM89.2369 13L92.1649 13L92.1649 25L89.2369 25L89.2369 13ZM90.7249 11.452C90.2929 11.452 89.9289 11.312 89.6329 11.032C89.3369 10.744 89.1889 10.384 89.1889 9.952C89.1889 9.528 89.3369 9.172 89.6329 8.884C89.9289 8.596 90.2889 8.452 90.7129 8.452C91.1369 8.452 91.4929 8.596 91.7809 8.884C92.0769 9.172 92.2249 9.528 92.2249 9.952C92.2249 10.384 92.0809 10.744 91.7929 11.032C91.5049 11.312 91.1489 11.452 90.7249 11.452ZM101.481 15.928L99.1534 15.928L99.1534 25L96.2254 25L96.2254 15.928L94.4494 15.928L94.4494 13L96.2254 13L96.2254 9.232L99.1534 9.232L99.1534 13L101.481 13L101.481 15.928ZM112.418 13L115.346 13L115.346 25L112.418 25L112.286 23.512C111.958 24.048 111.522 24.484 110.978 24.82C110.442 25.148 109.806 25.312 109.07 25.312C108.182 25.312 107.35 25.144 106.574 24.808C105.798 24.472 105.114 24.008 104.522 23.416C103.938 22.824 103.478 22.14 103.142 21.364C102.814 20.588 102.65 19.756 102.65 18.868C102.65 18.012 102.806 17.208 103.118 16.456C103.438 15.704 103.882 15.044 104.45 14.476C105.018 13.908 105.674 13.464 106.418 13.144C107.162 12.824 107.962 12.664 108.818 12.664C109.61 12.664 110.318 12.84 110.942 13.192C111.574 13.544 112.11 13.992 112.55 14.536L112.418 13ZM108.998 22.492C109.622 22.492 110.174 22.336 110.654 22.024C111.134 21.712 111.51 21.292 111.782 20.764C112.054 20.228 112.19 19.64 112.19 19C112.19 18.352 112.054 17.764 111.782 17.236C111.51 16.7 111.13 16.276 110.642 15.964C110.162 15.652 109.614 15.496 108.998 15.496C108.382 15.496 107.818 15.656 107.306 15.976C106.802 16.288 106.398 16.708 106.094 17.236C105.798 17.764 105.65 18.352 105.65 19C105.65 19.648 105.802 20.236 106.106 20.764C106.41 21.292 106.814 21.712 107.318 22.024C107.83 22.336 108.39 22.492 108.998 22.492ZM122.782 25.312C121.678 25.312 120.671 25.028 119.759 24.46C118.854 23.892 118.13 23.128 117.586 22.168C117.05 21.208 116.782 20.148 116.782 18.988C116.782 18.116 116.938 17.3 117.25 16.54C117.562 15.772 117.99 15.1 118.535 14.524C119.086 13.94 119.727 13.484 120.455 13.156C121.183 12.828 121.959 12.664 122.782 12.664C123.719 12.664 124.575 12.864 125.351 13.264C126.135 13.656 126.799 14.196 127.343 14.884C127.887 15.572 128.283 16.356 128.531 17.236C128.779 18.116 128.835 19.036 128.699 19.996L119.927 19.996C120.039 20.444 120.223 20.848 120.479 21.208C120.734 21.56 121.058 21.844 121.451 22.06C121.843 22.268 122.286 22.376 122.782 22.384C123.294 22.392 123.759 22.272 124.175 22.024C124.599 21.768 124.951 21.424 125.231 20.992L128.218 21.688C127.73 22.752 127.003 23.624 126.035 24.304C125.067 24.976 123.983 25.312 122.782 25.312ZM119.83 17.8L125.735 17.8C125.647 17.32 125.459 16.888 125.171 16.504C124.891 16.112 124.543 15.8 124.127 15.568C123.711 15.336 123.262 15.22 122.782 15.22C122.302 15.22 121.858 15.336 121.451 15.568C121.043 15.792 120.695 16.1 120.407 16.492C120.127 16.876 119.935 17.312 119.83 17.8ZM139.626 31L136.698 31L136.698 13L139.626 13L139.626 14.524C140.018 13.98 140.498 13.54 141.066 13.204C141.642 12.86 142.314 12.688 143.082 12.688C143.962 12.688 144.782 12.852 145.542 13.18C146.302 13.508 146.97 13.964 147.546 14.548C148.13 15.124 148.582 15.792 148.902 16.552C149.23 17.312 149.394 18.128 149.394 19C149.394 19.872 149.23 20.692 148.902 21.46C148.582 22.228 148.13 22.904 147.546 23.488C146.97 24.064 146.302 24.516 145.542 24.844C144.782 25.172 143.962 25.336 143.082 25.336C142.314 25.336 141.642 25.168 141.066 24.832C140.498 24.488 140.018 24.044 139.626 23.5L139.626 31ZM143.046 15.508C142.438 15.508 141.894 15.668 141.414 15.988C140.934 16.3 140.558 16.72 140.286 17.248C140.014 17.776 139.878 18.36 139.878 19C139.878 19.64 140.014 20.228 140.286 20.764C140.558 21.292 140.934 21.716 141.414 22.036C141.894 22.348 142.438 22.504 143.046 22.504C143.662 22.504 144.226 22.348 144.738 22.036C145.25 21.724 145.658 21.304 145.962 20.776C146.266 20.24 146.418 19.648 146.418 19C146.418 18.36 146.266 17.776 145.962 17.248C145.658 16.72 145.25 16.3 144.738 15.988C144.234 15.668 143.67 15.508 143.046 15.508ZM151.288 25L151.276 13L154.204 13L154.216 14.068C154.624 13.636 155.112 13.296 155.68 13.048C156.248 12.792 156.86 12.664 157.516 12.664C157.956 12.664 158.396 12.728 158.836 12.856L157.684 15.808C157.38 15.688 157.076 15.628 156.772 15.628C156.3 15.628 155.868 15.744 155.476 15.976C155.092 16.2 154.784 16.508 154.552 16.9C154.328 17.284 154.216 17.712 154.216 18.184L154.216 25L151.288 25ZM164.9 25.312C163.796 25.312 162.788 25.028 161.876 24.46C160.972 23.892 160.248 23.128 159.704 22.168C159.168 21.208 158.9 20.148 158.9 18.988C158.9 18.116 159.056 17.3 159.368 16.54C159.68 15.772 160.108 15.1 160.652 14.524C161.204 13.94 161.844 13.484 162.572 13.156C163.3 12.828 164.076 12.664 164.9 12.664C165.836 12.664 166.692 12.864 167.468 13.264C168.252 13.656 168.916 14.196 169.46 14.884C170.004 15.572 170.4 16.356 170.648 17.236C170.896 18.116 170.952 19.036 170.816 19.996L162.044 19.996C162.156 20.444 162.34 20.848 162.596 21.208C162.852 21.56 163.176 21.844 163.568 22.06C163.96 22.268 164.404 22.376 164.9 22.384C165.412 22.392 165.876 22.272 166.292 22.024C166.716 21.768 167.068 21.424 167.348 20.992L170.336 21.688C169.848 22.752 169.12 23.624 168.152 24.304C167.184 24.976 166.1 25.312 164.9 25.312ZM161.948 17.8L167.852 17.8C167.764 17.32 167.576 16.888 167.288 16.504C167.008 16.112 166.66 15.8 166.244 15.568C165.828 15.336 165.38 15.22 164.9 15.22C164.42 15.22 163.976 15.336 163.568 15.568C163.16 15.792 162.812 16.1 162.524 16.492C162.244 16.876 162.052 17.312 161.948 17.8ZM179.2 15.928L176.872 15.928L176.872 25L173.944 25L173.944 15.928L172.168 15.928L172.168 13L173.944 13L173.944 9.232L176.872 9.232L176.872 13L179.2 13L179.2 15.928ZM181.182 13L184.11 13L184.11 25L181.182 25L181.182 13ZM182.67 11.452C182.238 11.452 181.874 11.312 181.578 11.032C181.282 10.744 181.134 10.384 181.134 9.952C181.134 9.528 181.282 9.172 181.578 8.884C181.874 8.596 182.234 8.452 182.658 8.452C183.082 8.452 183.438 8.596 183.726 8.884C184.022 9.172 184.17 9.528 184.17 9.952C184.17 10.384 184.026 10.744 183.738 11.032C183.45 11.312 183.094 11.452 182.67 11.452ZM186.515 20.56L186.515 13L189.443 13L189.443 19.792C189.443 20.264 189.559 20.696 189.791 21.088C190.023 21.472 190.331 21.78 190.715 22.012C191.107 22.236 191.535 22.348 191.999 22.348C192.479 22.348 192.911 22.236 193.295 22.012C193.679 21.78 193.987 21.472 194.219 21.088C194.451 20.696 194.567 20.264 194.567 19.792L194.567 13L197.495 13L197.507 25L194.579 25L194.567 23.908C194.151 24.34 193.659 24.684 193.091 24.94C192.523 25.188 191.915 25.312 191.267 25.312C190.395 25.312 189.599 25.1 188.879 24.676C188.159 24.244 187.583 23.672 187.151 22.96C186.727 22.24 186.515 21.44 186.515 20.56ZM199.909 25L199.909 13L202.837 13L202.837 14.068C203.245 13.636 203.733 13.296 204.301 13.048C204.869 12.792 205.481 12.664 206.137 12.664C206.969 12.664 207.733 12.86 208.429 13.252C209.133 13.644 209.693 14.168 210.109 14.824C210.533 14.168 211.093 13.644 211.789 13.252C212.485 12.86 213.249 12.664 214.081 12.664C214.961 12.664 215.757 12.88 216.469 13.312C217.189 13.736 217.761 14.308 218.185 15.028C218.617 15.74 218.833 16.536 218.833 17.416L218.833 25L215.905 25L215.905 18.196C215.905 17.732 215.789 17.308 215.557 16.924C215.333 16.532 215.029 16.22 214.645 15.988C214.269 15.748 213.845 15.628 213.373 15.628C212.901 15.628 212.473 15.744 212.089 15.976C211.713 16.2 211.409 16.504 211.177 16.888C210.945 17.272 210.829 17.708 210.829 18.196L210.829 25L207.901 25L207.901 18.196C207.901 17.708 207.789 17.272 207.565 16.888C207.341 16.504 207.037 16.2 206.653 15.976C206.269 15.744 205.841 15.628 205.369 15.628C204.905 15.628 204.481 15.748 204.097 15.988C203.713 16.22 203.405 16.532 203.173 16.924C202.949 17.308 202.837 17.732 202.837 18.196L202.837 25L199.909 25ZM227.002 25L227.002 7L229.931 7L229.931 25L227.002 25ZM237.907 25.312C236.803 25.312 235.796 25.028 234.884 24.46C233.979 23.892 233.255 23.132 232.711 22.18C232.175 21.22 231.907 20.16 231.907 19C231.907 18.12 232.063 17.3 232.375 16.54C232.687 15.772 233.115 15.1 233.66 14.524C234.211 13.94 234.852 13.484 235.58 13.156C236.308 12.828 237.084 12.664 237.907 12.664C239.011 12.664 240.016 12.948 240.92 13.516C241.832 14.084 242.556 14.848 243.092 15.808C243.636 16.768 243.908 17.832 243.908 19C243.908 19.872 243.752 20.688 243.44 21.448C243.128 22.208 242.696 22.88 242.144 23.464C241.6 24.04 240.964 24.492 240.235 24.82C239.516 25.148 238.74 25.312 237.907 25.312ZM237.907 22.384C238.491 22.384 239.016 22.228 239.48 21.916C239.944 21.604 240.308 21.192 240.572 20.68C240.844 20.168 240.98 19.608 240.98 19C240.98 18.376 240.84 17.808 240.56 17.296C240.288 16.776 239.916 16.364 239.444 16.06C238.98 15.748 238.468 15.592 237.907 15.592C237.332 15.592 236.812 15.748 236.347 16.06C235.883 16.372 235.516 16.788 235.244 17.308C234.972 17.828 234.836 18.392 234.836 19C234.836 19.632 234.976 20.204 235.255 20.716C235.535 21.228 235.907 21.636 236.371 21.94C236.844 22.236 237.355 22.384 237.907 22.384ZM245.788 25L245.776 13L248.704 13L248.716 14.068C249.124 13.636 249.612 13.296 250.18 13.048C250.748 12.792 251.36 12.664 252.016 12.664C252.456 12.664 252.896 12.728 253.336 12.856L252.184 15.808C251.88 15.688 251.576 15.628 251.272 15.628C250.8 15.628 250.368 15.744 249.976 15.976C249.592 16.2 249.284 16.508 249.052 16.9C248.828 17.284 248.716 17.712 248.716 18.184L248.716 25L245.788 25ZM259.4 25.312C258.296 25.312 257.288 25.028 256.376 24.46C255.472 23.892 254.748 23.128 254.204 22.168C253.668 21.208 253.4 20.148 253.4 18.988C253.4 18.116 253.556 17.3 253.868 16.54C254.18 15.772 254.608 15.1 255.152 14.524C255.704 13.94 256.344 13.484 257.072 13.156C257.8 12.828 258.576 12.664 259.4 12.664C260.336 12.664 261.192 12.864 261.968 13.264C262.752 13.656 263.416 14.196 263.96 14.884C264.504 15.572 264.9 16.356 265.148 17.236C265.396 18.116 265.452 19.036 265.316 19.996L256.544 19.996C256.656 20.444 256.84 20.848 257.096 21.208C257.352 21.56 257.676 21.844 258.068 22.06C258.46 22.268 258.904 22.376 259.4 22.384C259.912 22.392 260.376 22.272 260.792 22.024C261.216 21.768 261.568 21.424 261.848 20.992L264.836 21.688C264.348 22.752 263.62 23.624 262.652 24.304C261.684 24.976 260.6 25.312 259.4 25.312ZM256.448 17.8L262.352 17.8C262.264 17.32 262.076 16.888 261.788 16.504C261.508 16.112 261.16 15.8 260.744 15.568C260.328 15.336 259.88 15.22 259.4 15.22C258.92 15.22 258.476 15.336 258.068 15.568C257.66 15.792 257.312 16.1 257.024 16.492C256.744 16.876 256.552 17.312 256.448 17.8ZM267.268 25L267.268 13L270.196 13L270.196 14.068C270.604 13.636 271.092 13.296 271.66 13.048C272.228 12.792 272.84 12.664 273.496 12.664C274.328 12.664 275.092 12.86 275.788 13.252C276.492 13.644 277.052 14.168 277.468 14.824C277.892 14.168 278.452 13.644 279.148 13.252C279.844 12.86 280.608 12.664 281.44 12.664C282.32 12.664 283.116 12.88 283.828 13.312C284.548 13.736 285.12 14.308 285.544 15.028C285.976 15.74 286.192 16.536 286.192 17.416L286.192 25L283.264 25L283.264 18.196C283.264 17.732 283.148 17.308 282.916 16.924C282.692 16.532 282.388 16.22 282.004 15.988C281.628 15.748 281.204 15.628 280.732 15.628C280.26 15.628 279.832 15.744 279.448 15.976C279.072 16.2 278.768 16.504 278.536 16.888C278.304 17.272 278.188 17.708 278.188 18.196L278.188 25L275.26 25L275.26 18.196C275.26 17.708 275.148 17.272 274.924 16.888C274.7 16.504 274.396 16.2 274.012 15.976C273.628 15.744 273.2 15.628 272.728 15.628C272.264 15.628 271.84 15.748 271.456 15.988C271.072 16.22 270.764 16.532 270.532 16.924C270.308 17.308 270.196 17.732 270.196 18.196L270.196 25L267.268 25Z" fill="white"/>
<path d="M1.08 65L1.08 52.4L2.34 52.4L2.34 63.74L8.127 63.74L8.127 65L1.08 65ZM13.1435 65.234C12.3155 65.234 11.5595 65.021 10.8755 64.595C10.1975 64.169 9.65452 63.599 9.24652 62.885C8.84452 62.165 8.64352 61.37 8.64352 60.5C8.64352 59.84 8.76052 59.225 8.99452 58.655C9.22852 58.079 9.54952 57.575 9.95752 57.143C10.3715 56.705 10.8515 56.363 11.3975 56.117C11.9435 55.871 12.5255 55.748 13.1435 55.748C13.9715 55.748 14.7245 55.961 15.4025 56.387C16.0865 56.813 16.6295 57.386 17.0315 58.106C17.4395 58.826 17.6435 59.624 17.6435 60.5C17.6435 61.154 17.5265 61.766 17.2925 62.336C17.0585 62.906 16.7345 63.41 16.3205 63.848C15.9125 64.28 15.4355 64.619 14.8895 64.865C14.3495 65.111 13.7675 65.234 13.1435 65.234ZM13.1435 63.974C13.7555 63.974 14.3045 63.815 14.7905 63.497C15.2825 63.173 15.6695 62.747 15.9515 62.219C16.2395 61.691 16.3835 61.118 16.3835 60.5C16.3835 59.87 16.2395 59.291 15.9515 58.763C15.6635 58.229 15.2735 57.803 14.7815 57.485C14.2955 57.167 13.7495 57.008 13.1435 57.008C12.5315 57.008 11.9795 57.17 11.4875 57.494C11.0015 57.812 10.6145 58.235 10.3265 58.763C10.0445 59.291 9.90352 59.87 9.90352 60.5C9.90352 61.148 10.0505 61.736 10.3445 62.264C10.6385 62.786 11.0315 63.203 11.5235 63.515C12.0155 63.821 12.5555 63.974 13.1435 63.974ZM19.1679 65L19.1679 56L20.4279 56L20.4279 57.242C20.7459 56.786 21.1599 56.423 21.6699 56.153C22.1799 55.883 22.7349 55.748 23.3349 55.748C23.6829 55.748 24.0189 55.793 24.3429 55.883L23.8299 57.134C23.5779 57.056 23.3319 57.017 23.0919 57.017C22.6059 57.017 22.1589 57.137 21.7509 57.377C21.3489 57.617 21.0279 57.938 20.7879 58.34C20.5479 58.742 20.4279 59.189 20.4279 59.681L20.4279 65L19.1679 65ZM28.9638 65.234C28.1358 65.234 27.3798 65.021 26.6958 64.595C26.0178 64.169 25.4748 63.599 25.0668 62.885C24.6648 62.165 24.4638 61.37 24.4638 60.5C24.4638 59.84 24.5808 59.225 24.8148 58.655C25.0488 58.079 25.3698 57.575 25.7778 57.143C26.1918 56.705 26.6718 56.363 27.2178 56.117C27.7638 55.871 28.3458 55.748 28.9638 55.748C29.6298 55.748 30.2418 55.88 30.7998 56.144C31.3638 56.408 31.8468 56.777 32.2488 57.251C32.6568 57.725 32.9628 58.28 33.1668 58.916C33.3768 59.552 33.4638 60.239 33.4278 60.977L25.7958 60.977C25.8678 61.547 26.0478 62.057 26.3358 62.507C26.6298 62.957 27.0018 63.314 27.4518 63.578C27.9078 63.836 28.4118 63.968 28.9638 63.974C29.5638 63.974 30.1038 63.818 30.5838 63.506C31.0698 63.194 31.4598 62.765 31.7538 62.219L33.0318 62.516C32.6718 63.314 32.1288 63.968 31.4028 64.478C30.6768 64.982 29.8638 65.234 28.9638 65.234ZM25.7598 59.96L32.1588 59.96C32.1168 59.402 31.9458 58.892 31.6458 58.43C31.3518 57.962 30.9708 57.59 30.5028 57.314C30.0348 57.032 29.5218 56.891 28.9638 56.891C28.4058 56.891 27.8958 57.029 27.4338 57.305C26.9718 57.575 26.5938 57.944 26.2998 58.412C26.0058 58.874 25.8258 59.39 25.7598 59.96ZM34.9706 65L34.9706 56L36.2306 56L36.2306 57.242C36.5546 56.786 36.9686 56.423 37.4726 56.153C37.9766 55.883 38.5286 55.748 39.1286 55.748C39.8066 55.748 40.4276 55.916 40.9916 56.252C41.5556 56.582 41.9966 57.023 42.3146 57.575C42.6326 57.023 43.0706 56.582 43.6286 56.252C44.1866 55.916 44.8046 55.748 45.4826 55.748C46.1606 55.748 46.7786 55.913 47.3366 56.243C47.8946 56.573 48.3386 57.017 48.6686 57.575C48.9986 58.133 49.1636 58.751 49.1636 59.429L49.1636 65L47.9036 65L47.9036 59.708C47.9036 59.228 47.7866 58.784 47.5526 58.376C47.3186 57.968 47.0036 57.641 46.6076 57.395C46.2176 57.143 45.7826 57.017 45.3026 57.017C44.8226 57.017 44.3846 57.134 43.9886 57.368C43.5986 57.596 43.2866 57.914 43.0526 58.322C42.8186 58.724 42.7016 59.186 42.7016 59.708L42.7016 65L41.4416 65L41.4416 59.708C41.4416 59.186 41.3246 58.724 41.0906 58.322C40.8566 57.914 40.5416 57.596 40.1456 57.368C39.7496 57.134 39.3116 57.017 38.8316 57.017C38.3576 57.017 37.9226 57.143 37.5266 57.395C37.1306 57.641 36.8156 57.968 36.5816 58.376C36.3476 58.784 36.2306 59.228 36.2306 59.708L36.2306 65L34.9706 65ZM55.2909 56L56.5509 56L56.5509 65L55.2909 65L55.2909 56ZM55.9299 54.425C55.7259 54.425 55.5519 54.359 55.4079 54.227C55.2699 54.089 55.2009 53.918 55.2009 53.714C55.2009 53.51 55.2699 53.342 55.4079 53.21C55.5519 53.072 55.7259 53.003 55.9299 53.003C56.1279 53.003 56.2959 53.072 56.4339 53.21C56.5779 53.342 56.6499 53.51 56.6499 53.714C56.6499 53.918 56.5809 54.089 56.4429 54.227C56.3049 54.359 56.1339 54.425 55.9299 54.425ZM59.9084 69.5L58.6484 69.5L58.6484 56L59.9084 56L59.9084 57.683C60.2204 57.113 60.6464 56.651 61.1864 56.297C61.7264 55.943 62.3684 55.766 63.1124 55.766C63.7664 55.766 64.3784 55.889 64.9484 56.135C65.5244 56.381 66.0284 56.723 66.4604 57.161C66.8924 57.593 67.2314 58.094 67.4774 58.664C67.7234 59.234 67.8464 59.846 67.8464 60.5C67.8464 61.154 67.7234 61.769 67.4774 62.345C67.2314 62.921 66.8924 63.428 66.4604 63.866C66.0284 64.298 65.5244 64.637 64.9484 64.883C64.3784 65.129 63.7664 65.252 63.1124 65.252C62.3684 65.252 61.7264 65.075 61.1864 64.721C60.6464 64.367 60.2204 63.905 59.9084 63.335L59.9084 69.5ZM63.1034 56.99C62.4734 56.99 61.9244 57.149 61.4564 57.467C60.9944 57.779 60.6374 58.199 60.3854 58.727C60.1334 59.255 60.0074 59.846 60.0074 60.5C60.0074 61.142 60.1304 61.73 60.3764 62.264C60.6284 62.798 60.9854 63.224 61.4474 63.542C61.9154 63.86 62.4674 64.019 63.1034 64.019C63.7274 64.019 64.3004 63.863 64.8224 63.551C65.3504 63.239 65.7734 62.819 66.0914 62.291C66.4094 61.757 66.5684 61.16 66.5684 60.5C66.5684 59.858 66.4124 59.273 66.1004 58.745C65.7884 58.211 65.3714 57.785 64.8494 57.467C64.3274 57.149 63.7454 56.99 63.1034 56.99ZM72.1696 65.171C71.6776 65.159 71.1976 65.069 70.7296 64.901C70.2616 64.733 69.8536 64.505 69.5056 64.217C69.1576 63.929 68.9086 63.602 68.7586 63.236L69.8476 62.768C69.9436 63.002 70.1206 63.218 70.3786 63.416C70.6426 63.608 70.9426 63.764 71.2786 63.884C71.6146 63.998 71.9476 64.055 72.2776 64.055C72.6436 64.055 72.9856 63.995 73.3036 63.875C73.6216 63.755 73.8796 63.584 74.0776 63.362C74.2816 63.134 74.3836 62.867 74.3836 62.561C74.3836 62.231 74.2756 61.973 74.0596 61.787C73.8436 61.595 73.5706 61.445 73.2406 61.337C72.9106 61.223 72.5716 61.115 72.2236 61.013C71.5876 60.839 71.0266 60.647 70.5406 60.437C70.0546 60.227 69.6736 59.96 69.3976 59.636C69.1276 59.306 68.9926 58.883 68.9926 58.367C68.9926 57.821 69.1456 57.35 69.4516 56.954C69.7636 56.552 70.1686 56.243 70.6666 56.027C71.1706 55.805 71.7076 55.694 72.2776 55.694C73.0096 55.694 73.6756 55.853 74.2756 56.171C74.8816 56.489 75.3196 56.912 75.5896 57.44L74.5726 58.043C74.4646 57.797 74.2936 57.584 74.0596 57.404C73.8256 57.224 73.5586 57.083 73.2586 56.981C72.9646 56.879 72.6646 56.825 72.3586 56.819C71.9746 56.813 71.6176 56.87 71.2876 56.99C70.9576 57.104 70.6906 57.275 70.4866 57.503C70.2886 57.731 70.1896 58.01 70.1896 58.34C70.1896 58.67 70.2886 58.922 70.4866 59.096C70.6846 59.264 70.9516 59.402 71.2876 59.51C71.6296 59.612 72.0136 59.732 72.4396 59.87C72.9856 60.044 73.4986 60.242 73.9786 60.464C74.4586 60.686 74.8456 60.962 75.1396 61.292C75.4336 61.622 75.5776 62.039 75.5716 62.543C75.5716 63.083 75.4096 63.554 75.0856 63.956C74.7616 64.358 74.3416 64.667 73.8256 64.883C73.3096 65.093 72.7576 65.189 72.1696 65.171ZM76.763 61.553L76.763 56L78.023 56L78.023 61.301C78.023 61.793 78.143 62.24 78.383 62.642C78.623 63.044 78.944 63.365 79.346 63.605C79.754 63.845 80.201 63.965 80.687 63.965C81.179 63.965 81.623 63.845 82.019 63.605C82.421 63.365 82.742 63.044 82.982 62.642C83.222 62.24 83.342 61.793 83.342 61.301L83.342 56L84.602 56L84.611 65L83.351 65L83.342 63.74C83.024 64.196 82.61 64.559 82.1 64.829C81.596 65.099 81.044 65.234 80.444 65.234C79.766 65.234 79.148 65.069 78.59 64.739C78.032 64.409 77.588 63.965 77.258 63.407C76.928 62.849 76.763 62.231 76.763 61.553ZM86.4042 65L86.4042 56L87.6642 56L87.6642 57.242C87.9882 56.786 88.4022 56.423 88.9062 56.153C89.4102 55.883 89.9622 55.748 90.5622 55.748C91.2402 55.748 91.8612 55.916 92.4252 56.252C92.9892 56.582 93.4302 57.023 93.7482 57.575C94.0662 57.023 94.5042 56.582 95.0622 56.252C95.6202 55.916 96.2382 55.748 96.9162 55.748C97.5942 55.748 98.2122 55.913 98.7702 56.243C99.3282 56.573 99.7722 57.017 100.102 57.575C100.432 58.133 100.597 58.751 100.597 59.429L100.597 65L99.3372 65L99.3372 59.708C99.3372 59.228 99.2202 58.784 98.9862 58.376C98.7522 57.968 98.4372 57.641 98.0412 57.395C97.6512 57.143 97.2162 57.017 96.7362 57.017C96.2562 57.017 95.8182 57.134 95.4222 57.368C95.0322 57.596 94.7202 57.914 94.4862 58.322C94.2522 58.724 94.1352 59.186 94.1352 59.708L94.1352 65L92.8752 65L92.8752 59.708C92.8752 59.186 92.7582 58.724 92.5242 58.322C92.2902 57.914 91.9752 57.596 91.5792 57.368C91.1832 57.134 90.7452 57.017 90.2652 57.017C89.7912 57.017 89.3562 57.143 88.9602 57.395C88.5642 57.641 88.2492 57.968 88.0152 58.376C87.7812 58.784 87.6642 59.228 87.6642 59.708L87.6642 65L86.4042 65ZM114.132 51.5L115.392 51.5L115.392 65L114.132 65L114.132 63.317C113.82 63.893 113.391 64.358 112.845 64.712C112.305 65.06 111.663 65.234 110.919 65.234C110.265 65.234 109.653 65.111 109.083 64.865C108.513 64.619 108.009 64.28 107.571 63.848C107.139 63.41 106.8 62.906 106.554 62.336C106.308 61.766 106.185 61.154 106.185 60.5C106.185 59.846 106.308 59.234 106.554 58.664C106.8 58.088 107.139 57.584 107.571 57.152C108.009 56.714 108.513 56.372 109.083 56.126C109.653 55.88 110.265 55.757 110.919 55.757C111.663 55.757 112.305 55.934 112.845 56.288C113.391 56.636 113.82 57.095 114.132 57.665L114.132 51.5ZM110.928 64.01C111.57 64.01 112.122 63.854 112.584 63.542C113.046 63.224 113.4 62.798 113.646 62.264C113.898 61.73 114.024 61.142 114.024 60.5C114.024 59.84 113.898 59.246 113.646 58.718C113.394 58.184 113.037 57.761 112.575 57.449C112.113 57.137 111.564 56.981 110.928 56.981C110.292 56.981 109.713 57.14 109.191 57.458C108.669 57.77 108.252 58.193 107.94 58.727C107.628 59.261 107.472 59.852 107.472 60.5C107.472 61.154 107.631 61.748 107.949 62.282C108.267 62.81 108.687 63.23 109.209 63.542C109.737 63.854 110.31 64.01 110.928 64.01ZM121.442 65.234C120.614 65.234 119.858 65.021 119.174 64.595C118.496 64.169 117.953 63.599 117.545 62.885C117.143 62.165 116.942 61.37 116.942 60.5C116.942 59.84 117.059 59.225 117.293 58.655C117.527 58.079 117.848 57.575 118.256 57.143C118.67 56.705 119.15 56.363 119.696 56.117C120.242 55.871 120.824 55.748 121.442 55.748C122.27 55.748 123.023 55.961 123.701 56.387C124.385 56.813 124.928 57.386 125.33 58.106C125.738 58.826 125.942 59.624 125.942 60.5C125.942 61.154 125.825 61.766 125.591 62.336C125.357 62.906 125.033 63.41 124.619 63.848C124.211 64.28 123.734 64.619 123.188 64.865C122.648 65.111 122.066 65.234 121.442 65.234ZM121.442 63.974C122.054 63.974 122.603 63.815 123.089 63.497C123.581 63.173 123.968 62.747 124.25 62.219C124.538 61.691 124.682 61.118 124.682 60.5C124.682 59.87 124.538 59.291 124.25 58.763C123.962 58.229 123.572 57.803 123.08 57.485C122.594 57.167 122.048 57.008 121.442 57.008C120.83 57.008 120.278 57.17 119.786 57.494C119.3 57.812 118.913 58.235 118.625 58.763C118.343 59.291 118.202 59.87 118.202 60.5C118.202 61.148 118.349 61.736 118.643 62.264C118.937 62.786 119.33 63.203 119.822 63.515C120.314 63.821 120.854 63.974 121.442 63.974ZM127.396 65L127.396 51.5L128.656 51.5L128.656 65L127.396 65ZM134.714 65.234C133.886 65.234 133.13 65.021 132.446 64.595C131.768 64.169 131.225 63.599 130.817 62.885C130.415 62.165 130.214 61.37 130.214 60.5C130.214 59.84 130.331 59.225 130.565 58.655C130.799 58.079 131.12 57.575 131.528 57.143C131.942 56.705 132.422 56.363 132.968 56.117C133.514 55.871 134.096 55.748 134.714 55.748C135.542 55.748 136.295 55.961 136.973 56.387C137.657 56.813 138.2 57.386 138.602 58.106C139.01 58.826 139.214 59.624 139.214 60.5C139.214 61.154 139.097 61.766 138.863 62.336C138.629 62.906 138.305 63.41 137.891 63.848C137.483 64.28 137.006 64.619 136.46 64.865C135.92 65.111 135.338 65.234 134.714 65.234ZM134.714 63.974C135.326 63.974 135.875 63.815 136.361 63.497C136.853 63.173 137.24 62.747 137.522 62.219C137.81 61.691 137.954 61.118 137.954 60.5C137.954 59.87 137.81 59.291 137.522 58.763C137.234 58.229 136.844 57.803 136.352 57.485C135.866 57.167 135.32 57.008 134.714 57.008C134.102 57.008 133.55 57.17 133.058 57.494C132.572 57.812 132.185 58.235 131.897 58.763C131.615 59.291 131.474 59.87 131.474 60.5C131.474 61.148 131.621 61.736 131.915 62.264C132.209 62.786 132.602 63.203 133.094 63.515C133.586 63.821 134.126 63.974 134.714 63.974ZM140.738 65L140.738 56L141.998 56L141.998 57.242C142.316 56.786 142.73 56.423 143.24 56.153C143.75 55.883 144.305 55.748 144.905 55.748C145.253 55.748 145.589 55.793 145.913 55.883L145.4 57.134C145.148 57.056 144.902 57.017 144.662 57.017C144.176 57.017 143.729 57.137 143.321 57.377C142.919 57.617 142.598 57.938 142.358 58.34C142.118 58.742 141.998 59.189 141.998 59.681L141.998 65L140.738 65ZM154.277 65.171C153.785 65.159 153.305 65.069 152.837 64.901C152.369 64.733 151.961 64.505 151.613 64.217C151.265 63.929 151.016 63.602 150.866 63.236L151.955 62.768C152.051 63.002 152.228 63.218 152.486 63.416C152.75 63.608 153.05 63.764 153.386 63.884C153.722 63.998 154.055 64.055 154.385 64.055C154.751 64.055 155.093 63.995 155.411 63.875C155.729 63.755 155.987 63.584 156.185 63.362C156.389 63.134 156.491 62.867 156.491 62.561C156.491 62.231 156.383 61.973 156.167 61.787C155.951 61.595 155.678 61.445 155.348 61.337C155.018 61.223 154.679 61.115 154.331 61.013C153.695 60.839 153.134 60.647 152.648 60.437C152.162 60.227 151.781 59.96 151.505 59.636C151.235 59.306 151.1 58.883 151.1 58.367C151.1 57.821 151.253 57.35 151.559 56.954C151.871 56.552 152.276 56.243 152.774 56.027C153.278 55.805 153.815 55.694 154.385 55.694C155.117 55.694 155.783 55.853 156.383 56.171C156.989 56.489 157.427 56.912 157.697 57.44L156.68 58.043C156.572 57.797 156.401 57.584 156.167 57.404C155.933 57.224 155.666 57.083 155.366 56.981C155.072 56.879 154.772 56.825 154.466 56.819C154.082 56.813 153.725 56.87 153.395 56.99C153.065 57.104 152.798 57.275 152.594 57.503C152.396 57.731 152.297 58.01 152.297 58.34C152.297 58.67 152.396 58.922 152.594 59.096C152.792 59.264 153.059 59.402 153.395 59.51C153.737 59.612 154.121 59.732 154.547 59.87C155.093 60.044 155.606 60.242 156.086 60.464C156.566 60.686 156.953 60.962 157.247 61.292C157.541 61.622 157.685 62.039 157.679 62.543C157.679 63.083 157.517 63.554 157.193 63.956C156.869 64.358 156.449 64.667 155.933 64.883C155.417 65.093 154.865 65.189 154.277 65.171ZM159.142 56L160.403 56L160.402 65L159.142 65L159.142 56ZM159.782 54.425C159.577 54.425 159.403 54.359 159.259 54.227C159.121 54.089 159.052 53.918 159.052 53.714C159.052 53.51 159.121 53.342 159.259 53.21C159.403 53.072 159.578 53.003 159.782 53.003C159.98 53.003 160.147 53.072 160.286 53.21C160.43 53.342 160.502 53.51 160.502 53.714C160.502 53.918 160.433 54.089 160.295 54.227C160.156 54.359 159.986 54.425 159.782 54.425ZM167.169 57.26L165.018 57.26L165.009 65L163.749 65L163.758 57.26L162.129 57.26L162.129 56L163.758 56L163.749 53.174L165.009 53.174L165.018 56L167.169 56L167.169 57.26ZM180.498 56L181.758 56L181.758 65L180.498 65L180.453 63.326C180.159 63.896 179.748 64.358 179.22 64.712C178.692 65.06 178.062 65.234 177.33 65.234C176.67 65.234 176.052 65.111 175.476 64.865C174.9 64.613 174.393 64.268 173.955 63.83C173.517 63.392 173.175 62.885 172.929 62.309C172.683 61.733 172.56 61.115 172.56 60.455C172.56 59.807 172.68 59.198 172.92 58.628C173.166 58.058 173.502 57.557 173.928 57.125C174.36 56.693 174.858 56.357 175.422 56.117C175.992 55.871 176.601 55.748 177.249 55.748C177.999 55.748 178.653 55.928 179.211 56.288C179.769 56.642 180.213 57.107 180.543 57.683L180.498 56ZM177.303 64.01C177.945 64.01 178.497 63.854 178.959 63.542C179.421 63.224 179.775 62.798 180.021 62.264C180.273 61.73 180.399 61.142 180.399 60.5C180.399 59.84 180.273 59.246 180.021 58.718C179.769 58.184 179.412 57.761 178.95 57.449C178.488 57.137 177.939 56.981 177.303 56.981C176.667 56.981 176.085 57.14 175.557 57.458C175.035 57.77 174.618 58.193 174.306 58.727C174 59.261 173.847 59.852 173.847 60.5C173.847 61.154 174.006 61.748 174.324 62.282C174.642 62.81 175.062 63.23 175.584 63.542C176.112 63.854 176.685 64.01 177.303 64.01ZM183.559 65L183.559 56L184.819 56L184.819 57.242C185.143 56.786 185.557 56.423 186.061 56.153C186.565 55.883 187.117 55.748 187.717 55.748C188.395 55.748 189.016 55.916 189.58 56.252C190.144 56.582 190.585 57.023 190.903 57.575C191.221 57.023 191.659 56.582 192.217 56.252C192.775 55.916 193.393 55.748 194.071 55.748C194.749 55.748 195.367 55.913 195.925 56.243C196.483 56.573 196.927 57.017 197.257 57.575C197.587 58.133 197.752 58.751 197.752 59.429L197.752 65L196.492 65L196.492 59.708C196.492 59.228 196.375 58.784 196.141 58.376C195.907 57.968 195.592 57.641 195.196 57.395C194.806 57.143 194.371 57.017 193.891 57.017C193.411 57.017 192.973 57.134 192.577 57.368C192.187 57.596 191.875 57.914 191.641 58.322C191.407 58.724 191.29 59.186 191.29 59.708L191.29 65L190.03 65L190.03 59.708C190.03 59.186 189.913 58.724 189.679 58.322C189.445 57.914 189.13 57.596 188.734 57.368C188.338 57.134 187.9 57.017 187.42 57.017C186.946 57.017 186.511 57.143 186.115 57.395C185.719 57.641 185.404 57.968 185.17 58.376C184.936 58.784 184.819 59.228 184.819 59.708L184.819 65L183.559 65ZM203.339 65.234C202.511 65.234 201.755 65.021 201.071 64.595C200.393 64.169 199.85 63.599 199.442 62.885C199.04 62.165 198.839 61.37 198.839 60.5C198.839 59.84 198.956 59.225 199.19 58.655C199.424 58.079 199.745 57.575 200.153 57.143C200.567 56.705 201.047 56.363 201.593 56.117C202.139 55.871 202.721 55.748 203.339 55.748C204.005 55.748 204.617 55.88 205.175 56.144C205.739 56.408 206.222 56.777 206.624 57.251C207.032 57.725 207.338 58.28 207.542 58.916C207.752 59.552 207.839 60.239 207.803 60.977L200.171 60.977C200.243 61.547 200.423 62.057 200.711 62.507C201.005 62.957 201.377 63.314 201.827 63.578C202.283 63.836 202.787 63.968 203.339 63.974C203.939 63.974 204.479 63.818 204.959 63.506C205.445 63.194 205.835 62.765 206.129 62.219L207.407 62.516C207.047 63.314 206.504 63.968 205.778 64.478C205.052 64.982 204.239 65.234 203.339 65.234ZM200.135 59.96L206.534 59.96C206.492 59.402 206.321 58.892 206.021 58.43C205.727 57.962 205.346 57.59 204.878 57.314C204.41 57.032 203.897 56.891 203.339 56.891C202.781 56.891 202.271 57.029 201.809 57.305C201.347 57.575 200.969 57.944 200.675 58.412C200.381 58.874 200.201 59.39 200.135 59.96ZM213.786 57.26L211.635 57.26L211.626 65L210.366 65L210.375 57.26L208.746 57.26L208.746 56L210.375 56L210.366 53.174L211.626 53.174L211.635 56L213.786 56L213.786 57.26ZM226.143 62.741L227.268 63.353C226.86 63.923 226.341 64.379 225.711 64.721C225.087 65.063 224.409 65.234 223.677 65.234C222.849 65.234 222.093 65.021 221.409 64.595C220.731 64.169 220.188 63.599 219.78 62.885C219.378 62.165 219.177 61.37 219.177 60.5C219.177 59.84 219.294 59.225 219.528 58.655C219.762 58.079 220.083 57.575 220.491 57.143C220.905 56.705 221.385 56.363 221.931 56.117C222.477 55.871 223.059 55.748 223.677 55.748C224.409 55.748 225.087 55.919 225.711 56.261C226.341 56.603 226.86 57.062 227.268 57.638L226.143 58.241C225.831 57.845 225.456 57.542 225.018 57.332C224.58 57.116 224.133 57.008 223.677 57.008C223.071 57.008 222.522 57.17 222.03 57.494C221.538 57.812 221.148 58.235 220.86 58.763C220.578 59.291 220.437 59.87 220.437 60.5C220.437 61.13 220.581 61.709 220.869 62.237C221.163 62.765 221.556 63.188 222.048 63.506C222.54 63.818 223.083 63.974 223.677 63.974C224.169 63.974 224.631 63.86 225.063 63.632C225.495 63.404 225.855 63.107 226.143 62.741ZM232.729 65.234C231.901 65.234 231.145 65.021 230.461 64.595C229.783 64.169 229.24 63.599 228.832 62.885C228.43 62.165 228.229 61.37 228.229 60.5C228.229 59.84 228.346 59.225 228.58 58.655C228.814 58.079 229.135 57.575 229.543 57.143C229.957 56.705 230.437 56.363 230.983 56.117C231.529 55.871 232.111 55.748 232.729 55.748C233.557 55.748 234.31 55.961 234.988 56.387C235.672 56.813 236.215 57.386 236.617 58.106C237.025 58.826 237.229 59.624 237.229 60.5C237.229 61.154 237.112 61.766 236.878 62.336C236.644 62.906 236.32 63.41 235.906 63.848C235.498 64.28 235.021 64.619 234.475 64.865C233.935 65.111 233.353 65.234 232.729 65.234ZM232.729 63.974C233.341 63.974 233.89 63.815 234.376 63.497C234.868 63.173 235.255 62.747 235.537 62.219C235.825 61.691 235.969 61.118 235.969 60.5C235.969 59.87 235.825 59.291 235.537 58.763C235.249 58.229 234.859 57.803 234.367 57.485C233.881 57.167 233.335 57.008 232.729 57.008C232.117 57.008 231.565 57.17 231.073 57.494C230.587 57.812 230.2 58.235 229.912 58.763C229.63 59.291 229.489 59.87 229.489 60.5C229.489 61.148 229.636 61.736 229.93 62.264C230.224 62.786 230.617 63.203 231.109 63.515C231.601 63.821 232.141 63.974 232.729 63.974ZM246.602 59.429L246.602 65L245.342 65L245.342 59.681C245.342 59.189 245.222 58.742 244.982 58.34C244.742 57.938 244.421 57.617 244.019 57.377C243.617 57.137 243.17 57.017 242.678 57.017C242.192 57.017 241.745 57.137 241.337 57.377C240.935 57.617 240.614 57.938 240.374 58.34C240.134 58.742 240.014 59.189 240.014 59.681L240.014 65L238.754 65L238.754 56L240.014 56L240.014 57.242C240.332 56.786 240.746 56.423 241.256 56.153C241.766 55.883 242.321 55.748 242.921 55.748C243.599 55.748 244.217 55.913 244.775 56.243C245.333 56.573 245.777 57.017 246.107 57.575C246.437 58.133 246.602 58.751 246.602 59.429ZM251.185 65.171C250.693 65.159 250.213 65.069 249.745 64.901C249.277 64.733 248.869 64.505 248.521 64.217C248.173 63.929 247.924 63.602 247.774 63.236L248.863 62.768C248.959 63.002 249.136 63.218 249.394 63.416C249.658 63.608 249.958 63.764 250.294 63.884C250.63 63.998 250.963 64.055 251.293 64.055C251.659 64.055 252.001 63.995 252.319 63.875C252.637 63.755 252.895 63.584 253.093 63.362C253.297 63.134 253.399 62.867 253.399 62.561C253.399 62.231 253.291 61.973 253.075 61.787C252.859 61.595 252.586 61.445 252.256 61.337C251.926 61.223 251.587 61.115 251.239 61.013C250.603 60.839 250.042 60.647 249.556 60.437C249.07 60.227 248.689 59.96 248.413 59.636C248.143 59.306 248.008 58.883 248.008 58.367C248.008 57.821 248.161 57.35 248.467 56.954C248.779 56.552 249.184 56.243 249.682 56.027C250.186 55.805 250.723 55.694 251.293 55.694C252.025 55.694 252.691 55.853 253.291 56.171C253.897 56.489 254.335 56.912 254.605 57.44L253.588 58.043C253.48 57.797 253.309 57.584 253.075 57.404C252.841 57.224 252.574 57.083 252.274 56.981C251.98 56.879 251.68 56.825 251.374 56.819C250.99 56.813 250.633 56.87 250.303 56.99C249.973 57.104 249.706 57.275 249.502 57.503C249.304 57.731 249.205 58.01 249.205 58.34C249.205 58.67 249.304 58.922 249.502 59.096C249.7 59.264 249.967 59.402 250.303 59.51C250.645 59.612 251.029 59.732 251.455 59.87C252.001 60.044 252.514 60.242 252.994 60.464C253.474 60.686 253.861 60.962 254.155 61.292C254.449 61.622 254.593 62.039 254.587 62.543C254.587 63.083 254.425 63.554 254.101 63.956C253.777 64.358 253.357 64.667 252.841 64.883C252.325 65.093 251.773 65.189 251.185 65.171ZM260.028 65.234C259.2 65.234 258.444 65.021 257.76 64.595C257.082 64.169 256.539 63.599 256.131 62.885C255.729 62.165 255.528 61.37 255.528 60.5C255.528 59.84 255.645 59.225 255.879 58.655C256.113 58.079 256.434 57.575 256.842 57.143C257.256 56.705 257.736 56.363 258.282 56.117C258.828 55.871 259.41 55.748 260.028 55.748C260.694 55.748 261.306 55.88 261.864 56.144C262.428 56.408 262.911 56.777 263.313 57.251C263.721 57.725 264.027 58.28 264.231 58.916C264.441 59.552 264.528 60.239 264.492 60.977L256.86 60.977C256.932 61.547 257.112 62.057 257.4 62.507C257.694 62.957 258.066 63.314 258.516 63.578C258.972 63.836 259.476 63.968 260.028 63.974C260.628 63.974 261.168 63.818 261.648 63.506C262.134 63.194 262.524 62.765 262.818 62.219L264.096 62.516C263.736 63.314 263.193 63.968 262.467 64.478C261.741 64.982 260.928 65.234 260.028 65.234ZM256.824 59.96L263.223 59.96C263.181 59.402 263.01 58.892 262.71 58.43C262.416 57.962 262.035 57.59 261.567 57.314C261.099 57.032 260.586 56.891 260.028 56.891C259.47 56.891 258.96 57.029 258.498 57.305C258.036 57.575 257.658 57.944 257.364 58.412C257.07 58.874 256.89 59.39 256.824 59.96ZM272.373 62.741L273.498 63.353C273.09 63.923 272.571 64.379 271.941 64.721C271.317 65.063 270.639 65.234 269.907 65.234C269.079 65.234 268.323 65.021 267.639 64.595C266.961 64.169 266.418 63.599 266.01 62.885C265.608 62.165 265.407 61.37 265.407 60.5C265.407 59.84 265.524 59.225 265.758 58.655C265.992 58.079 266.313 57.575 266.721 57.143C267.135 56.705 267.615 56.363 268.161 56.117C268.707 55.871 269.289 55.748 269.907 55.748C270.639 55.748 271.317 55.919 271.941 56.261C272.571 56.603 273.09 57.062 273.498 57.638L272.373 58.241C272.061 57.845 271.686 57.542 271.248 57.332C270.81 57.116 270.363 57.008 269.907 57.008C269.301 57.008 268.752 57.17 268.26 57.494C267.768 57.812 267.378 58.235 267.09 58.763C266.808 59.291 266.667 59.87 266.667 60.5C266.667 61.13 266.811 61.709 267.099 62.237C267.393 62.765 267.786 63.188 268.278 63.506C268.77 63.818 269.313 63.974 269.907 63.974C270.399 63.974 270.861 63.86 271.293 63.632C271.725 63.404 272.085 63.107 272.373 62.741ZM279.722 57.26L277.571 57.26L277.562 65L276.302 65L276.311 57.26L274.682 57.26L274.682 56L276.311 56L276.302 53.174L277.562 53.174L277.571 56L279.722 56L279.722 57.26ZM285.042 65.234C284.214 65.234 283.458 65.021 282.774 64.595C282.096 64.169 281.553 63.599 281.145 62.885C280.743 62.165 280.542 61.37 280.542 60.5C280.542 59.84 280.659 59.225 280.893 58.655C281.127 58.079 281.448 57.575 281.856 57.143C282.27 56.705 282.75 56.363 283.296 56.117C283.842 55.871 284.424 55.748 285.042 55.748C285.708 55.748 286.32 55.88 286.878 56.144C287.442 56.408 287.925 56.777 288.327 57.251C288.735 57.725 289.041 58.28 289.245 58.916C289.455 59.552 289.542 60.239 289.506 60.977L281.874 60.977C281.946 61.547 282.126 62.057 282.414 62.507C282.708 62.957 283.08 63.314 283.53 63.578C283.986 63.836 284.49 63.968 285.042 63.974C285.642 63.974 286.182 63.818 286.662 63.506C287.148 63.194 287.538 62.765 287.832 62.219L289.11 62.516C288.75 63.314 288.207 63.968 287.481 64.478C286.755 64.982 285.942 65.234 285.042 65.234ZM281.838 59.96L288.237 59.96C288.195 59.402 288.024 58.892 287.724 58.43C287.43 57.962 287.049 57.59 286.581 57.314C286.113 57.032 285.6 56.891 285.042 56.891C284.484 56.891 283.974 57.029 283.512 57.305C283.05 57.575 282.672 57.944 282.378 58.412C282.084 58.874 281.904 59.39 281.838 59.96ZM295.49 57.26L293.339 57.26L293.33 65L292.07 65L292.079 57.26L290.45 57.26L290.45 56L292.079 56L292.07 53.174L293.33 53.174L293.339 56L295.49 56L295.49 57.26ZM296.736 61.553L296.736 56L297.996 56L297.996 61.301C297.996 61.793 298.116 62.24 298.356 62.642C298.596 63.044 298.917 63.365 299.319 63.605C299.727 63.845 300.174 63.965 300.66 63.965C301.152 63.965 301.596 63.845 301.992 63.605C302.394 63.365 302.715 63.044 302.955 62.642C303.195 62.24 303.315 61.793 303.315 61.301L303.315 56L304.575 56L304.584 65L303.324 65L303.315 63.74C302.997 64.196 302.583 64.559 302.073 64.829C301.569 65.099 301.017 65.234 300.417 65.234C299.739 65.234 299.121 65.069 298.563 64.739C298.005 64.409 297.561 63.965 297.231 63.407C296.901 62.849 296.736 62.231 296.736 61.553ZM306.377 65L306.377 56L307.637 56L307.637 57.242C307.955 56.786 308.369 56.423 308.879 56.153C309.389 55.883 309.944 55.748 310.544 55.748C310.892 55.748 311.228 55.793 311.552 55.883L311.039 57.134C310.787 57.056 310.541 57.017 310.301 57.017C309.815 57.017 309.368 57.137 308.96 57.377C308.558 57.617 308.237 57.938 307.997 58.34C307.757 58.742 307.637 59.189 307.637 59.681L307.637 65L306.377 65ZM312.564 65.234C312.366 65.234 312.198 65.162 312.06 65.018C311.922 64.88 311.853 64.709 311.853 64.505C311.853 64.313 311.922 64.148 312.06 64.01C312.198 63.866 312.366 63.794 312.564 63.794C312.768 63.794 312.939 63.866 313.077 64.01C313.221 64.148 313.293 64.313 313.293 64.505C313.293 64.709 313.221 64.88 313.077 65.018C312.939 65.162 312.768 65.234 312.564 65.234ZM319.771 65L319.771 52.4L321.031 52.4L321.031 63.74L326.818 63.74L326.818 65L319.771 65ZM327.304 61.553L327.304 56L328.564 56L328.564 61.301C328.564 61.793 328.684 62.24 328.924 62.642C329.164 63.044 329.485 63.365 329.887 63.605C330.295 63.845 330.742 63.965 331.228 63.965C331.72 63.965 332.164 63.845 332.56 63.605C332.962 63.365 333.283 63.044 333.523 62.642C333.763 62.24 333.883 61.793 333.883 61.301L333.883 56L335.143 56L335.152 65L333.892 65L333.883 63.74C333.565 64.196 333.151 64.559 332.641 64.829C332.137 65.099 331.585 65.234 330.985 65.234C330.307 65.234 329.689 65.069 329.131 64.739C328.573 64.409 328.129 63.965 327.799 63.407C327.469 62.849 327.304 62.231 327.304 61.553ZM343.301 62.741L344.426 63.353C344.018 63.923 343.499 64.379 342.869 64.721C342.245 65.063 341.567 65.234 340.835 65.234C340.007 65.234 339.251 65.021 338.567 64.595C337.889 64.169 337.346 63.599 336.938 62.885C336.536 62.165 336.335 61.37 336.335 60.5C336.335 59.84 336.452 59.225 336.686 58.655C336.92 58.079 337.241 57.575 337.649 57.143C338.063 56.705 338.543 56.363 339.089 56.117C339.635 55.871 340.217 55.748 340.835 55.748C341.567 55.748 342.245 55.919 342.869 56.261C343.499 56.603 344.018 57.062 344.426 57.638L343.301 58.241C342.989 57.845 342.614 57.542 342.176 57.332C341.738 57.116 341.291 57.008 340.835 57.008C340.229 57.008 339.68 57.17 339.188 57.494C338.696 57.812 338.306 58.235 338.018 58.763C337.736 59.291 337.595 59.87 337.595 60.5C337.595 61.13 337.739 61.709 338.027 62.237C338.321 62.765 338.714 63.188 339.206 63.506C339.698 63.818 340.241 63.974 340.835 63.974C341.327 63.974 341.789 63.86 342.221 63.632C342.653 63.404 343.013 63.107 343.301 62.741ZM350.65 57.26L348.499 57.26L348.49 65L347.23 65L347.239 57.26L345.61 57.26L345.61 56L347.239 56L347.23 53.174L348.49 53.174L348.499 56L350.65 56L350.65 57.26ZM351.896 61.553L351.896 56L353.156 56L353.156 61.301C353.156 61.793 353.276 62.24 353.516 62.642C353.756 63.044 354.077 63.365 354.479 63.605C354.887 63.845 355.334 63.965 355.82 63.965C356.312 63.965 356.756 63.845 357.152 63.605C357.554 63.365 357.875 63.044 358.115 62.642C358.355 62.24 358.475 61.793 358.475 61.301L358.475 56L359.735 56L359.744 65L358.484 65L358.475 63.74C358.157 64.196 357.743 64.559 357.233 64.829C356.729 65.099 356.177 65.234 355.577 65.234C354.899 65.234 354.281 65.069 353.723 64.739C353.165 64.409 352.721 63.965 352.391 63.407C352.061 62.849 351.896 62.231 351.896 61.553ZM364.318 65.171C363.826 65.159 363.346 65.069 362.878 64.901C362.41 64.733 362.002 64.505 361.654 64.217C361.306 63.929 361.057 63.602 360.907 63.236L361.996 62.768C362.092 63.002 362.269 63.218 362.527 63.416C362.791 63.608 363.091 63.764 363.427 63.884C363.763 63.998 364.096 64.055 364.426 64.055C364.792 64.055 365.134 63.995 365.452 63.875C365.77 63.755 366.028 63.584 366.226 63.362C366.43 63.134 366.532 62.867 366.532 62.561C366.532 62.231 366.424 61.973 366.208 61.787C365.992 61.595 365.719 61.445 365.389 61.337C365.059 61.223 364.72 61.115 364.372 61.013C363.736 60.839 363.175 60.647 362.689 60.437C362.203 60.227 361.822 59.96 361.546 59.636C361.276 59.306 361.141 58.883 361.141 58.367C361.141 57.821 361.294 57.35 361.6 56.954C361.912 56.552 362.317 56.243 362.815 56.027C363.319 55.805 363.856 55.694 364.426 55.694C365.158 55.694 365.824 55.853 366.424 56.171C367.03 56.489 367.468 56.912 367.738 57.44L366.721 58.043C366.613 57.797 366.442 57.584 366.208 57.404C365.974 57.224 365.707 57.083 365.407 56.981C365.113 56.879 364.813 56.825 364.507 56.819C364.123 56.813 363.766 56.87 363.436 56.99C363.106 57.104 362.839 57.275 362.635 57.503C362.437 57.731 362.338 58.01 362.338 58.34C362.338 58.67 362.437 58.922 362.635 59.096C362.833 59.264 363.1 59.402 363.436 59.51C363.778 59.612 364.162 59.732 364.588 59.87C365.134 60.044 365.647 60.242 366.127 60.464C366.607 60.686 366.994 60.962 367.288 61.292C367.582 61.622 367.726 62.039 367.72 62.543C367.72 63.083 367.558 63.554 367.234 63.956C366.91 64.358 366.49 64.667 365.974 64.883C365.458 65.093 364.906 65.189 364.318 65.171ZM377.943 65L376.341 65L373.056 55.973L374.397 55.973L377.142 63.524L379.887 55.973L381.228 55.973L377.943 65ZM382.719 56L383.979 56L383.979 65L382.719 65L382.719 56ZM383.358 54.425C383.154 54.425 382.98 54.359 382.836 54.227C382.698 54.089 382.629 53.918 382.629 53.714C382.629 53.51 382.698 53.342 382.836 53.21C382.98 53.072 383.154 53.003 383.358 53.003C383.556 53.003 383.724 53.072 383.862 53.21C384.006 53.342 384.078 53.51 384.078 53.714C384.078 53.918 384.009 54.089 383.871 54.227C383.733 54.359 383.562 54.425 383.358 54.425ZM390.745 57.26L388.594 57.26L388.585 65L387.325 65L387.334 57.26L385.705 57.26L385.705 56L387.334 56L387.325 53.174L388.585 53.174L388.594 56L390.745 56L390.745 57.26ZM399.503 56L400.763 56L400.763 65L399.503 65L399.458 63.326C399.164 63.896 398.753 64.358 398.225 64.712C397.697 65.06 397.067 65.234 396.335 65.234C395.675 65.234 395.057 65.111 394.481 64.865C393.905 64.613 393.398 64.268 392.96 63.83C392.522 63.392 392.18 62.885 391.934 62.309C391.688 61.733 391.565 61.115 391.565 60.455C391.565 59.807 391.685 59.198 391.925 58.628C392.171 58.058 392.507 57.557 392.933 57.125C393.365 56.693 393.863 56.357 394.427 56.117C394.997 55.871 395.606 55.748 396.254 55.748C397.004 55.748 397.658 55.928 398.216 56.288C398.774 56.642 399.218 57.107 399.548 57.683L399.503 56ZM396.308 64.01C396.95 64.01 397.502 63.854 397.964 63.542C398.426 63.224 398.78 62.798 399.026 62.264C399.278 61.73 399.404 61.142 399.404 60.5C399.404 59.84 399.278 59.246 399.026 58.718C398.774 58.184 398.417 57.761 397.955 57.449C397.493 57.137 396.944 56.981 396.308 56.981C395.672 56.981 395.09 57.14 394.562 57.458C394.04 57.77 393.623 58.193 393.311 58.727C393.005 59.261 392.852 59.852 392.852 60.5C392.852 61.154 393.011 61.748 393.329 62.282C393.647 62.81 394.067 63.23 394.589 63.542C395.117 63.854 395.69 64.01 396.308 64.01ZM406.349 65.234C405.521 65.234 404.765 65.021 404.081 64.595C403.403 64.169 402.86 63.599 402.452 62.885C402.05 62.165 401.849 61.37 401.849 60.5C401.849 59.84 401.966 59.225 402.2 58.655C402.434 58.079 402.755 57.575 403.163 57.143C403.577 56.705 404.057 56.363 404.603 56.117C405.149 55.871 405.731 55.748 406.349 55.748C407.015 55.748 407.627 55.88 408.185 56.144C408.749 56.408 409.232 56.777 409.634 57.251C410.042 57.725 410.348 58.28 410.552 58.916C410.762 59.552 410.849 60.239 410.813 60.977L403.181 60.977C403.253 61.547 403.433 62.057 403.721 62.507C404.015 62.957 404.387 63.314 404.837 63.578C405.293 63.836 405.797 63.968 406.349 63.974C406.949 63.974 407.489 63.818 407.969 63.506C408.455 63.194 408.845 62.765 409.139 62.219L410.417 62.516C410.057 63.314 409.514 63.968 408.788 64.478C408.062 64.982 407.249 65.234 406.349 65.234ZM403.145 59.96L409.544 59.96C409.502 59.402 409.331 58.892 409.031 58.43C408.737 57.962 408.356 57.59 407.888 57.314C407.42 57.032 406.907 56.891 406.349 56.891C405.791 56.891 405.281 57.029 404.819 57.305C404.357 57.575 403.979 57.944 403.685 58.412C403.391 58.874 403.211 59.39 403.145 59.96ZM418.027 69.5L416.767 69.5L416.767 56L418.028 56L418.028 57.683C418.339 57.113 418.765 56.651 419.305 56.297C419.846 55.943 420.488 55.766 421.232 55.766C421.886 55.766 422.498 55.889 423.068 56.135C423.644 56.381 424.148 56.723 424.58 57.161C425.012 57.593 425.351 58.094 425.597 58.664C425.843 59.234 425.966 59.846 425.966 60.5C425.966 61.154 425.843 61.769 425.597 62.345C425.351 62.921 425.012 63.428 424.58 63.866C424.148 64.298 423.644 64.637 423.068 64.883C422.498 65.129 421.886 65.252 421.232 65.252C420.488 65.252 419.845 65.075 419.305 64.721C418.765 64.367 418.339 63.905 418.028 63.335L418.027 69.5ZM421.222 56.99C420.593 56.99 420.044 57.149 419.575 57.467C419.114 57.779 418.757 58.199 418.505 58.727C418.253 59.255 418.127 59.846 418.127 60.5C418.127 61.142 418.25 61.73 418.495 62.264C418.747 62.798 419.104 63.224 419.567 63.542C420.034 63.86 420.586 64.019 421.222 64.019C421.847 64.019 422.42 63.863 422.942 63.551C423.47 63.239 423.893 62.819 424.211 62.291C424.528 61.757 424.687 61.16 424.687 60.5C424.687 59.858 424.532 59.273 424.22 58.745C423.908 58.211 423.491 57.785 422.969 57.467C422.447 57.149 421.865 56.99 421.222 56.99ZM427.49 65L427.49 56L428.75 56L428.75 57.242C429.068 56.786 429.482 56.423 429.992 56.153C430.502 55.883 431.057 55.748 431.657 55.748C432.005 55.748 432.341 55.793 432.665 55.883L432.152 57.134C431.9 57.056 431.654 57.017 431.414 57.017C430.928 57.017 430.481 57.137 430.073 57.377C429.671 57.617 429.35 57.938 429.11 58.34C428.87 58.742 428.75 59.189 428.75 59.681L428.75 65L427.49 65ZM437.286 65.234C436.458 65.234 435.702 65.021 435.018 64.595C434.34 64.169 433.797 63.599 433.389 62.885C432.987 62.165 432.786 61.37 432.786 60.5C432.786 59.84 432.903 59.225 433.137 58.655C433.371 58.079 433.692 57.575 434.1 57.143C434.514 56.705 434.994 56.363 435.54 56.117C436.086 55.871 436.668 55.748 437.286 55.748C437.952 55.748 438.564 55.88 439.122 56.144C439.686 56.408 440.169 56.777 440.571 57.251C440.979 57.725 441.285 58.28 441.489 58.916C441.699 59.552 441.786 60.239 441.75 60.977L434.118 60.977C434.19 61.547 434.37 62.057 434.658 62.507C434.952 62.957 435.324 63.314 435.774 63.578C436.23 63.836 436.734 63.968 437.286 63.974C437.886 63.974 438.426 63.818 438.906 63.506C439.392 63.194 439.782 62.765 440.076 62.219L441.354 62.516C440.994 63.314 440.451 63.968 439.725 64.478C438.999 64.982 438.186 65.234 437.286 65.234ZM434.082 59.96L440.481 59.96C440.439 59.402 440.268 58.892 439.968 58.43C439.674 57.962 439.293 57.59 438.825 57.314C438.357 57.032 437.844 56.891 437.286 56.891C436.728 56.891 436.218 57.029 435.756 57.305C435.294 57.575 434.916 57.944 434.622 58.412C434.328 58.874 434.148 59.39 434.082 59.96ZM447.734 57.26L445.583 57.26L445.574 65L444.314 65L444.323 57.26L442.694 57.26L442.694 56L444.323 56L444.314 53.174L445.574 53.174L445.583 56L447.734 56L447.734 57.26ZM449.269 56L450.529 56L450.529 65L449.269 65L449.269 56ZM449.908 54.425C449.704 54.425 449.53 54.359 449.386 54.227C449.248 54.089 449.179 53.918 449.179 53.714C449.179 53.51 449.248 53.342 449.386 53.21C449.53 53.072 449.704 53.003 449.908 53.003C450.106 53.003 450.274 53.072 450.412 53.21C450.556 53.342 450.628 53.51 450.628 53.714C450.628 53.918 450.559 54.089 450.421 54.227C450.283 54.359 450.112 54.425 449.908 54.425ZM452.337 61.553L452.337 56L453.597 56L453.597 61.301C453.597 61.793 453.717 62.24 453.957 62.642C454.197 63.044 454.518 63.365 454.92 63.605C455.328 63.845 455.775 63.965 456.261 63.965C456.753 63.965 457.197 63.845 457.593 63.605C457.995 63.365 458.316 63.044 458.556 62.642C458.796 62.24 458.916 61.793 458.916 61.301L458.916 56L460.176 56L460.185 65L458.925 65L458.916 63.74C458.598 64.196 458.184 64.559 457.674 64.829C457.17 65.099 456.618 65.234 456.018 65.234C455.34 65.234 454.722 65.069 454.164 64.739C453.606 64.409 453.162 63.965 452.832 63.407C452.502 62.849 452.337 62.231 452.337 61.553ZM461.978 65L461.978 56L463.238 56L463.238 57.242C463.562 56.786 463.976 56.423 464.48 56.153C464.984 55.883 465.536 55.748 466.136 55.748C466.814 55.748 467.435 55.916 467.999 56.252C468.563 56.582 469.004 57.023 469.322 57.575C469.64 57.023 470.078 56.582 470.636 56.252C471.194 55.916 471.812 55.748 472.49 55.748C473.168 55.748 473.786 55.913 474.344 56.243C474.902 56.573 475.346 57.017 475.676 57.575C476.006 58.133 476.171 58.751 476.171 59.429L476.171 65L474.911 65L474.911 59.708C474.911 59.228 474.794 58.784 474.56 58.376C474.326 57.968 474.011 57.641 473.615 57.395C473.225 57.143 472.79 57.017 472.31 57.017C471.83 57.017 471.392 57.134 470.996 57.368C470.606 57.596 470.294 57.914 470.06 58.322C469.826 58.724 469.709 59.186 469.709 59.708L469.709 65L468.449 65L468.449 59.708C468.449 59.186 468.332 58.724 468.098 58.322C467.864 57.914 467.549 57.596 467.153 57.368C466.757 57.134 466.319 57.017 465.839 57.017C465.365 57.017 464.93 57.143 464.534 57.395C464.138 57.641 463.823 57.968 463.589 58.376C463.355 58.784 463.238 59.228 463.238 59.708L463.238 65L461.978 65ZM1.08 90L1.08 76.5L2.34 76.5L2.34 90L1.08 90ZM8.39742 90.234C7.56942 90.234 6.81342 90.021 6.12942 89.595C5.45142 89.169 4.90842 88.599 4.50042 87.885C4.09842 87.165 3.89742 86.37 3.89742 85.5C3.89742 84.84 4.01442 84.225 4.24842 83.655C4.48242 83.079 4.80342 82.575 5.21142 82.143C5.62542 81.705 6.10542 81.363 6.65142 81.117C7.19742 80.871 7.77942 80.748 8.39742 80.748C9.22542 80.748 9.97842 80.961 10.6564 81.387C11.3404 81.813 11.8834 82.386 12.2854 83.106C12.6934 83.826 12.8974 84.624 12.8974 85.5C12.8974 86.154 12.7804 86.766 12.5464 87.336C12.3124 87.906 11.9884 88.41 11.5744 88.848C11.1664 89.28 10.6894 89.619 10.1434 89.865C9.60342 90.111 9.02142 90.234 8.39742 90.234ZM8.39742 88.974C9.00942 88.974 9.55842 88.815 10.0444 88.497C10.5364 88.173 10.9234 87.747 11.2054 87.219C11.4934 86.691 11.6374 86.118 11.6374 85.5C11.6374 84.87 11.4934 84.291 11.2054 83.763C10.9174 83.229 10.5274 82.803 10.0354 82.485C9.54942 82.167 9.00342 82.008 8.39742 82.008C7.78542 82.008 7.23342 82.17 6.74142 82.494C6.25542 82.812 5.86842 83.235 5.58042 83.763C5.29842 84.291 5.15742 84.87 5.15742 85.5C5.15742 86.148 5.30442 86.736 5.59842 87.264C5.89242 87.786 6.28542 88.203 6.77742 88.515C7.26942 88.821 7.80942 88.974 8.39742 88.974ZM14.4218 90L14.4218 81L15.6818 81L15.6818 82.242C15.9998 81.786 16.4138 81.423 16.9238 81.153C17.4338 80.883 17.9888 80.748 18.5888 80.748C18.9368 80.748 19.2728 80.793 19.5968 80.883L19.0838 82.134C18.8318 82.056 18.5858 82.017 18.3458 82.017C17.8598 82.017 17.4128 82.137 17.0048 82.377C16.6028 82.617 16.2818 82.938 16.0418 83.34C15.8018 83.742 15.6818 84.189 15.6818 84.681L15.6818 90L14.4218 90ZM24.2177 90.234C23.3897 90.234 22.6337 90.021 21.9497 89.595C21.2717 89.169 20.7287 88.599 20.3207 87.885C19.9187 87.165 19.7177 86.37 19.7177 85.5C19.7177 84.84 19.8347 84.225 20.0687 83.655C20.3027 83.079 20.6237 82.575 21.0317 82.143C21.4457 81.705 21.9257 81.363 22.4717 81.117C23.0177 80.871 23.5997 80.748 24.2177 80.748C24.8837 80.748 25.4957 80.88 26.0537 81.144C26.6177 81.408 27.1007 81.777 27.5027 82.251C27.9107 82.725 28.2167 83.28 28.4207 83.916C28.6307 84.552 28.7177 85.239 28.6817 85.977L21.0497 85.977C21.1217 86.547 21.3017 87.057 21.5897 87.507C21.8837 87.957 22.2557 88.314 22.7057 88.578C23.1617 88.836 23.6657 88.968 24.2177 88.974C24.8177 88.974 25.3577 88.818 25.8377 88.506C26.3237 88.194 26.7137 87.765 27.0077 87.219L28.2857 87.516C27.9257 88.314 27.3827 88.968 26.6567 89.478C25.9307 89.982 25.1177 90.234 24.2177 90.234ZM21.0137 84.96L27.4127 84.96C27.3707 84.402 27.1997 83.892 26.8997 83.43C26.6057 82.962 26.2247 82.59 25.7567 82.314C25.2887 82.032 24.7757 81.891 24.2177 81.891C23.6597 81.891 23.1497 82.029 22.6877 82.305C22.2257 82.575 21.8477 82.944 21.5537 83.412C21.2597 83.874 21.0797 84.39 21.0137 84.96ZM30.2245 90L30.2245 81L31.4845 81L31.4845 82.242C31.8085 81.786 32.2225 81.423 32.7265 81.153C33.2305 80.883 33.7825 80.748 34.3825 80.748C35.0605 80.748 35.6815 80.916 36.2455 81.252C36.8095 81.582 37.2505 82.023 37.5685 82.575C37.8865 82.023 38.3245 81.582 38.8825 81.252C39.4405 80.916 40.0585 80.748 40.7365 80.748C41.4145 80.748 42.0325 80.913 42.5905 81.243C43.1485 81.573 43.5925 82.017 43.9225 82.575C44.2525 83.133 44.4175 83.751 44.4175 84.429L44.4175 90L43.1575 90L43.1575 84.708C43.1575 84.228 43.0405 83.784 42.8065 83.376C42.5725 82.968 42.2575 82.641 41.8615 82.395C41.4715 82.143 41.0365 82.017 40.5565 82.017C40.0765 82.017 39.6385 82.134 39.2425 82.368C38.8525 82.596 38.5405 82.914 38.3065 83.322C38.0725 83.724 37.9555 84.186 37.9555 84.708L37.9555 90L36.6955 90L36.6955 84.708C36.6955 84.186 36.5785 83.724 36.3445 83.322C36.1105 82.914 35.7955 82.596 35.3995 82.368C35.0035 82.134 34.5655 82.017 34.0855 82.017C33.6115 82.017 33.1765 82.143 32.7805 82.395C32.3845 82.641 32.0695 82.968 31.8355 83.376C31.6015 83.784 31.4845 84.228 31.4845 84.708L31.4845 90L30.2245 90ZM55.1438 82.26L52.9928 82.26L52.9838 90L51.7238 90L51.7328 82.26L50.1038 82.26L50.1038 81L51.7328 81L51.7238 78.174L52.9838 78.174L52.9928 81L55.1438 81L55.1438 82.26ZM60.4638 90.234C59.6358 90.234 58.8798 90.021 58.1958 89.595C57.5178 89.169 56.9748 88.599 56.5668 87.885C56.1648 87.165 55.9638 86.37 55.9638 85.5C55.9638 84.84 56.0808 84.225 56.3148 83.655C56.5488 83.079 56.8698 82.575 57.2778 82.143C57.6918 81.705 58.1718 81.363 58.7178 81.117C59.2638 80.871 59.8458 80.748 60.4638 80.748C61.1298 80.748 61.7418 80.88 62.2998 81.144C62.8638 81.408 63.3468 81.777 63.7488 82.251C64.1568 82.725 64.4628 83.28 64.6668 83.916C64.8768 84.552 64.9638 85.239 64.9278 85.977L57.2958 85.977C57.3678 86.547 57.5478 87.057 57.8358 87.507C58.1298 87.957 58.5018 88.314 58.9518 88.578C59.4078 88.836 59.9118 88.968 60.4638 88.974C61.0638 88.974 61.6038 88.818 62.0838 88.506C62.5698 88.194 62.9598 87.765 63.2538 87.219L64.5318 87.516C64.1718 88.314 63.6288 88.968 62.9028 89.478C62.1768 89.982 61.3638 90.234 60.4638 90.234ZM57.2598 84.96L63.6588 84.96C63.6168 84.402 63.4458 83.892 63.1458 83.43C62.8518 82.962 62.4708 82.59 62.0028 82.314C61.5348 82.032 61.0218 81.891 60.4638 81.891C59.9058 81.891 59.3958 82.029 58.9338 82.305C58.4718 82.575 58.0938 82.944 57.7998 83.412C57.5058 83.874 57.3258 84.39 57.2598 84.96ZM66.4003 90L66.4003 76.5L67.6603 76.5L67.6603 90L66.4003 90ZM69.828 90L69.828 76.5L71.088 76.5L71.088 90L69.828 90ZM72.8958 86.553L72.8958 81L74.1558 81L74.1558 86.301C74.1558 86.793 74.2758 87.24 74.5158 87.642C74.7558 88.044 75.0768 88.365 75.4788 88.605C75.8868 88.845 76.3338 88.965 76.8198 88.965C77.3118 88.965 77.7558 88.845 78.1518 88.605C78.5538 88.365 78.8748 88.044 79.1148 87.642C79.3548 87.24 79.4748 86.793 79.4748 86.301L79.4748 81L80.7348 81L80.7438 90L79.4838 90L79.4748 88.74C79.1568 89.196 78.7428 89.559 78.2328 89.829C77.7288 90.099 77.1768 90.234 76.5768 90.234C75.8988 90.234 75.2808 90.069 74.7228 89.739C74.1648 89.409 73.7208 88.965 73.3908 88.407C73.0608 87.849 72.8958 87.231 72.8958 86.553ZM85.318 90.171C84.826 90.159 84.346 90.069 83.878 89.901C83.41 89.733 83.002 89.505 82.654 89.217C82.306 88.929 82.057 88.602 81.907 88.236L82.996 87.768C83.092 88.002 83.269 88.218 83.527 88.416C83.791 88.608 84.091 88.764 84.427 88.884C84.763 88.998 85.096 89.055 85.426 89.055C85.792 89.055 86.134 88.995 86.452 88.875C86.77 88.755 87.028 88.584 87.226 88.362C87.43 88.134 87.532 87.867 87.532 87.561C87.532 87.231 87.424 86.973 87.208 86.787C86.992 86.595 86.719 86.445 86.389 86.337C86.059 86.223 85.72 86.115 85.372 86.013C84.736 85.839 84.175 85.647 83.689 85.437C83.203 85.227 82.822 84.96 82.546 84.636C82.276 84.306 82.141 83.883 82.141 83.367C82.141 82.821 82.294 82.35 82.6 81.954C82.912 81.552 83.317 81.243 83.815 81.027C84.319 80.805 84.856 80.694 85.426 80.694C86.158 80.694 86.824 80.853 87.424 81.171C88.03 81.489 88.468 81.912 88.738 82.44L87.721 83.043C87.613 82.797 87.442 82.584 87.208 82.404C86.974 82.224 86.707 82.083 86.407 81.981C86.113 81.879 85.813 81.825 85.507 81.819C85.123 81.813 84.766 81.87 84.436 81.99C84.106 82.104 83.839 82.275 83.635 82.503C83.437 82.731 83.338 83.01 83.338 83.34C83.338 83.67 83.437 83.922 83.635 84.096C83.833 84.264 84.1 84.402 84.436 84.51C84.778 84.612 85.162 84.732 85.588 84.87C86.134 85.044 86.647 85.242 87.127 85.464C87.607 85.686 87.994 85.962 88.288 86.292C88.582 86.622 88.726 87.039 88.72 87.543C88.72 88.083 88.558 88.554 88.234 88.956C87.91 89.358 87.49 89.667 86.974 89.883C86.458 90.093 85.906 90.189 85.318 90.171ZM97.3766 90.171C96.8846 90.159 96.4046 90.069 95.9366 89.901C95.4686 89.733 95.0606 89.505 94.7126 89.217C94.3646 88.929 94.1156 88.602 93.9656 88.236L95.0546 87.768C95.1506 88.002 95.3276 88.218 95.5856 88.416C95.8496 88.608 96.1496 88.764 96.4856 88.884C96.8216 88.998 97.1546 89.055 97.4846 89.055C97.8506 89.055 98.1926 88.995 98.5106 88.875C98.8286 88.755 99.0866 88.584 99.2846 88.362C99.4886 88.134 99.5906 87.867 99.5906 87.561C99.5906 87.231 99.4826 86.973 99.2666 86.787C99.0506 86.595 98.7776 86.445 98.4476 86.337C98.1176 86.223 97.7786 86.115 97.4306 86.013C96.7946 85.839 96.2336 85.647 95.7476 85.437C95.2616 85.227 94.8806 84.96 94.6046 84.636C94.3346 84.306 94.1996 83.883 94.1996 83.367C94.1996 82.821 94.3526 82.35 94.6586 81.954C94.9706 81.552 95.3756 81.243 95.8736 81.027C96.3776 80.805 96.9146 80.694 97.4846 80.694C98.2166 80.694 98.8826 80.853 99.4826 81.171C100.089 81.489 100.527 81.912 100.797 82.44L99.7796 83.043C99.6716 82.797 99.5006 82.584 99.2666 82.404C99.0326 82.224 98.7656 82.083 98.4656 81.981C98.1716 81.879 97.8716 81.825 97.5656 81.819C97.1816 81.813 96.8246 81.87 96.4946 81.99C96.1646 82.104 95.8976 82.275 95.6936 82.503C95.4956 82.731 95.3966 83.01 95.3966 83.34C95.3966 83.67 95.4956 83.922 95.6936 84.096C95.8916 84.264 96.1586 84.402 96.4946 84.51C96.8366 84.612 97.2206 84.732 97.6466 84.87C98.1926 85.044 98.7056 85.242 99.1856 85.464C99.6656 85.686 100.053 85.962 100.347 86.292C100.641 86.622 100.785 87.039 100.779 87.543C100.779 88.083 100.617 88.554 100.293 88.956C99.9686 89.358 99.5486 89.667 99.0326 89.883C98.5166 90.093 97.9646 90.189 97.3766 90.171ZM106.22 90.234C105.392 90.234 104.636 90.021 103.952 89.595C103.274 89.169 102.731 88.599 102.323 87.885C101.921 87.165 101.72 86.37 101.72 85.5C101.72 84.84 101.837 84.225 102.071 83.655C102.305 83.079 102.626 82.575 103.034 82.143C103.448 81.705 103.928 81.363 104.474 81.117C105.02 80.871 105.602 80.748 106.22 80.748C106.886 80.748 107.498 80.88 108.056 81.144C108.62 81.408 109.103 81.777 109.505 82.251C109.913 82.725 110.219 83.28 110.423 83.916C110.633 84.552 110.72 85.239 110.684 85.977L103.052 85.977C103.124 86.547 103.304 87.057 103.592 87.507C103.886 87.957 104.258 88.314 104.708 88.578C105.164 88.836 105.668 88.968 106.22 88.974C106.82 88.974 107.36 88.818 107.84 88.506C108.326 88.194 108.716 87.765 109.01 87.219L110.288 87.516C109.928 88.314 109.385 88.968 108.659 89.478C107.933 89.982 107.12 90.234 106.22 90.234ZM103.016 84.96L109.415 84.96C109.373 84.402 109.202 83.892 108.902 83.43C108.608 82.962 108.227 82.59 107.759 82.314C107.291 82.032 106.778 81.891 106.22 81.891C105.662 81.891 105.152 82.029 104.69 82.305C104.228 82.575 103.85 82.944 103.556 83.412C103.262 83.874 103.082 84.39 103.016 84.96ZM119.546 76.5L120.806 76.5L120.806 90L119.546 90L119.546 88.317C119.234 88.893 118.805 89.358 118.259 89.712C117.719 90.06 117.077 90.234 116.333 90.234C115.679 90.234 115.067 90.111 114.497 89.865C113.927 89.619 113.423 89.28 112.985 88.848C112.553 88.41 112.214 87.906 111.968 87.336C111.722 86.766 111.599 86.154 111.599 85.5C111.599 84.846 111.722 84.234 111.968 83.664C112.214 83.088 112.553 82.584 112.985 82.152C113.423 81.714 113.927 81.372 114.497 81.126C115.067 80.88 115.679 80.757 116.333 80.757C117.077 80.757 117.719 80.934 118.259 81.288C118.805 81.636 119.234 82.095 119.546 82.665L119.546 76.5ZM116.342 89.01C116.984 89.01 117.536 88.854 117.998 88.542C118.46 88.224 118.814 87.798 119.06 87.264C119.312 86.73 119.438 86.142 119.438 85.5C119.438 84.84 119.312 84.246 119.06 83.718C118.808 83.184 118.451 82.761 117.989 82.449C117.527 82.137 116.978 81.981 116.342 81.981C115.706 81.981 115.127 82.14 114.605 82.458C114.083 82.77 113.666 83.193 113.354 83.727C113.042 84.261 112.886 84.852 112.886 85.5C112.886 86.154 113.045 86.748 113.363 87.282C113.681 87.81 114.101 88.23 114.623 88.542C115.151 88.854 115.724 89.01 116.342 89.01ZM134.689 81L135.949 81L135.949 90L134.689 90L134.644 88.326C134.35 88.896 133.939 89.358 133.411 89.712C132.883 90.06 132.253 90.234 131.521 90.234C130.861 90.234 130.243 90.111 129.667 89.865C129.091 89.613 128.584 89.268 128.146 88.83C127.708 88.392 127.366 87.885 127.12 87.309C126.874 86.733 126.751 86.115 126.751 85.455C126.751 84.807 126.871 84.198 127.111 83.628C127.357 83.058 127.693 82.557 128.119 82.125C128.551 81.693 129.049 81.357 129.613 81.117C130.183 80.871 130.792 80.748 131.44 80.748C132.19 80.748 132.844 80.928 133.402 81.288C133.96 81.642 134.404 82.107 134.734 82.683L134.689 81ZM131.494 89.01C132.136 89.01 132.688 88.854 133.15 88.542C133.612 88.224 133.966 87.798 134.212 87.264C134.464 86.73 134.59 86.142 134.59 85.5C134.59 84.84 134.464 84.246 134.212 83.718C133.96 83.184 133.603 82.761 133.141 82.449C132.679 82.137 132.13 81.981 131.494 81.981C130.858 81.981 130.276 82.14 129.748 82.458C129.226 82.77 128.809 83.193 128.497 83.727C128.191 84.261 128.038 84.852 128.038 85.5C128.038 86.154 128.197 86.748 128.515 87.282C128.833 87.81 129.253 88.23 129.775 88.542C130.303 88.854 130.876 89.01 131.494 89.01ZM144 87.741L145.125 88.353C144.717 88.923 144.198 89.379 143.568 89.721C142.944 90.063 142.266 90.234 141.534 90.234C140.706 90.234 139.95 90.021 139.266 89.595C138.588 89.169 138.045 88.599 137.637 87.885C137.235 87.165 137.034 86.37 137.034 85.5C137.034 84.84 137.151 84.225 137.385 83.655C137.619 83.079 137.94 82.575 138.348 82.143C138.762 81.705 139.242 81.363 139.788 81.117C140.334 80.871 140.916 80.748 141.534 80.748C142.266 80.748 142.944 80.919 143.568 81.261C144.198 81.603 144.717 82.062 145.125 82.638L144 83.241C143.688 82.845 143.313 82.542 142.875 82.332C142.437 82.116 141.99 82.008 141.534 82.008C140.928 82.008 140.379 82.17 139.887 82.494C139.395 82.812 139.005 83.235 138.717 83.763C138.435 84.291 138.294 84.87 138.294 85.5C138.294 86.13 138.438 86.709 138.726 87.237C139.02 87.765 139.413 88.188 139.905 88.506C140.397 88.818 140.94 88.974 141.534 88.974C142.026 88.974 142.488 88.86 142.92 88.632C143.352 88.404 143.712 88.107 144 87.741ZM158.481 76.5L159.741 76.5L159.741 90L158.481 90L158.481 88.317C158.169 88.893 157.74 89.358 157.194 89.712C156.654 90.06 156.012 90.234 155.268 90.234C154.614 90.234 154.002 90.111 153.432 89.865C152.862 89.619 152.358 89.28 151.92 88.848C151.488 88.41 151.149 87.906 150.903 87.336C150.657 86.766 150.534 86.154 150.534 85.5C150.534 84.846 150.657 84.234 150.903 83.664C151.149 83.088 151.488 82.584 151.92 82.152C152.358 81.714 152.862 81.372 153.432 81.126C154.002 80.88 154.614 80.757 155.268 80.757C156.012 80.757 156.654 80.934 157.194 81.288C157.74 81.636 158.169 82.095 158.481 82.665L158.481 76.5ZM155.277 89.01C155.919 89.01 156.471 88.854 156.933 88.542C157.395 88.224 157.749 87.798 157.995 87.264C158.247 86.73 158.373 86.142 158.373 85.5C158.373 84.84 158.247 84.246 157.995 83.718C157.743 83.184 157.386 82.761 156.924 82.449C156.462 82.137 155.913 81.981 155.277 81.981C154.641 81.981 154.062 82.14 153.54 82.458C153.018 82.77 152.601 83.193 152.289 83.727C151.977 84.261 151.821 84.852 151.821 85.5C151.821 86.154 151.98 86.748 152.298 87.282C152.616 87.81 153.036 88.23 153.558 88.542C154.086 88.854 154.659 89.01 155.277 89.01ZM161.542 86.553L161.542 81L162.802 81L162.802 86.301C162.802 86.793 162.922 87.24 163.162 87.642C163.402 88.044 163.723 88.365 164.125 88.605C164.533 88.845 164.98 88.965 165.466 88.965C165.958 88.965 166.402 88.845 166.798 88.605C167.2 88.365 167.521 88.044 167.761 87.642C168.001 87.24 168.121 86.793 168.121 86.301L168.121 81L169.381 81L169.39 90L168.13 90L168.121 88.74C167.803 89.196 167.389 89.559 166.879 89.829C166.375 90.099 165.823 90.234 165.223 90.234C164.545 90.234 163.927 90.069 163.369 89.739C162.811 89.409 162.367 88.965 162.037 88.407C161.707 87.849 161.542 87.231 161.542 86.553ZM171.184 81L172.444 81L172.444 90L171.184 90L171.184 81ZM171.823 79.425C171.619 79.425 171.445 79.359 171.301 79.227C171.163 79.089 171.094 78.918 171.094 78.714C171.094 78.51 171.163 78.342 171.301 78.21C171.445 78.072 171.619 78.003 171.823 78.003C172.021 78.003 172.189 78.072 172.327 78.21C172.471 78.342 172.543 78.51 172.543 78.714C172.543 78.918 172.474 79.089 172.336 79.227C172.198 79.359 172.027 79.425 171.823 79.425ZM177.322 90.171C176.83 90.159 176.35 90.069 175.882 89.901C175.414 89.733 175.006 89.505 174.658 89.217C174.31 88.929 174.061 88.602 173.911 88.236L175 87.768C175.096 88.002 175.273 88.218 175.531 88.416C175.795 88.608 176.095 88.764 176.431 88.884C176.767 88.998 177.1 89.055 177.43 89.055C177.796 89.055 178.138 88.995 178.456 88.875C178.774 88.755 179.032 88.584 179.23 88.362C179.434 88.134 179.536 87.867 179.536 87.561C179.536 87.231 179.428 86.973 179.212 86.787C178.996 86.595 178.723 86.445 178.393 86.337C178.063 86.223 177.724 86.115 177.376 86.013C176.74 85.839 176.179 85.647 175.693 85.437C175.207 85.227 174.826 84.96 174.55 84.636C174.28 84.306 174.145 83.883 174.145 83.367C174.145 82.821 174.298 82.35 174.604 81.954C174.916 81.552 175.321 81.243 175.819 81.027C176.323 80.805 176.86 80.694 177.43 80.694C178.162 80.694 178.828 80.853 179.428 81.171C180.034 81.489 180.472 81.912 180.742 82.44L179.725 83.043C179.617 82.797 179.446 82.584 179.212 82.404C178.978 82.224 178.711 82.083 178.411 81.981C178.117 81.879 177.817 81.825 177.511 81.819C177.127 81.813 176.77 81.87 176.44 81.99C176.11 82.104 175.843 82.275 175.639 82.503C175.441 82.731 175.342 83.01 175.342 83.34C175.342 83.67 175.441 83.922 175.639 84.096C175.837 84.264 176.104 84.402 176.44 84.51C176.782 84.612 177.166 84.732 177.592 84.87C178.138 85.044 178.651 85.242 179.131 85.464C179.611 85.686 179.998 85.962 180.292 86.292C180.586 86.622 180.73 87.039 180.724 87.543C180.724 88.083 180.562 88.554 180.238 88.956C179.914 89.358 179.494 89.667 178.978 89.883C178.462 90.093 177.91 90.189 177.322 90.171ZM190.56 90.234C189.732 90.234 188.976 90.021 188.292 89.595C187.614 89.169 187.071 88.599 186.663 87.885C186.261 87.165 186.06 86.37 186.06 85.5C186.06 84.84 186.177 84.225 186.411 83.655C186.645 83.079 186.966 82.575 187.374 82.143C187.788 81.705 188.268 81.363 188.814 81.117C189.36 80.871 189.942 80.748 190.56 80.748C191.226 80.748 191.838 80.88 192.396 81.144C192.96 81.408 193.443 81.777 193.845 82.251C194.253 82.725 194.559 83.28 194.763 83.916C194.973 84.552 195.06 85.239 195.024 85.977L187.392 85.977C187.464 86.547 187.644 87.057 187.932 87.507C188.226 87.957 188.598 88.314 189.048 88.578C189.504 88.836 190.008 88.968 190.56 88.974C191.16 88.974 191.7 88.818 192.18 88.506C192.666 88.194 193.056 87.765 193.35 87.219L194.628 87.516C194.268 88.314 193.725 88.968 192.999 89.478C192.273 89.982 191.46 90.234 190.56 90.234ZM187.356 84.96L193.755 84.96C193.713 84.402 193.542 83.892 193.242 83.43C192.948 82.962 192.567 82.59 192.099 82.314C191.631 82.032 191.118 81.891 190.56 81.891C190.002 81.891 189.492 82.029 189.03 82.305C188.568 82.575 188.19 82.944 187.896 83.412C187.602 83.874 187.422 84.39 187.356 84.96ZM199.365 90.171C198.873 90.159 198.393 90.069 197.925 89.901C197.457 89.733 197.049 89.505 196.701 89.217C196.353 88.929 196.104 88.602 195.954 88.236L197.043 87.768C197.139 88.002 197.316 88.218 197.574 88.416C197.838 88.608 198.138 88.764 198.474 88.884C198.81 88.998 199.143 89.055 199.473 89.055C199.839 89.055 200.181 88.995 200.499 88.875C200.817 88.755 201.075 88.584 201.273 88.362C201.477 88.134 201.579 87.867 201.579 87.561C201.579 87.231 201.471 86.973 201.255 86.787C201.039 86.595 200.766 86.445 200.436 86.337C200.106 86.223 199.767 86.115 199.419 86.013C198.783 85.839 198.222 85.647 197.736 85.437C197.25 85.227 196.869 84.96 196.593 84.636C196.323 84.306 196.188 83.883 196.188 83.367C196.188 82.821 196.341 82.35 196.647 81.954C196.959 81.552 197.364 81.243 197.862 81.027C198.366 80.805 198.903 80.694 199.473 80.694C200.205 80.694 200.871 80.853 201.471 81.171C202.077 81.489 202.515 81.912 202.785 82.44L201.768 83.043C201.66 82.797 201.489 82.584 201.255 82.404C201.021 82.224 200.754 82.083 200.454 81.981C200.16 81.879 199.86 81.825 199.554 81.819C199.17 81.813 198.813 81.87 198.483 81.99C198.153 82.104 197.886 82.275 197.682 82.503C197.484 82.731 197.385 83.01 197.385 83.34C197.385 83.67 197.484 83.922 197.682 84.096C197.88 84.264 198.147 84.402 198.483 84.51C198.825 84.612 199.209 84.732 199.635 84.87C200.181 85.044 200.694 85.242 201.174 85.464C201.654 85.686 202.041 85.962 202.335 86.292C202.629 86.622 202.773 87.039 202.767 87.543C202.767 88.083 202.605 88.554 202.281 88.956C201.957 89.358 201.537 89.667 201.021 89.883C200.505 90.093 199.953 90.189 199.365 90.171ZM208.917 82.26L206.766 82.26L206.757 90L205.497 90L205.506 82.26L203.877 82.26L203.877 81L205.506 81L205.497 78.174L206.757 78.174L206.766 81L208.917 81L208.917 82.26ZM210.699 90.234C210.501 90.234 210.333 90.162 210.195 90.018C210.057 89.88 209.988 89.709 209.988 89.505C209.988 89.313 210.057 89.148 210.195 89.01C210.333 88.866 210.501 88.794 210.699 88.794C210.903 88.794 211.074 88.866 211.212 89.01C211.356 89.148 211.428 89.313 211.428 89.505C211.428 89.709 211.356 89.88 211.212 90.018C211.074 90.162 210.903 90.234 210.699 90.234ZM217.906 90L217.906 77.4L219.166 77.4L219.166 88.74L224.953 88.74L224.953 90L217.906 90ZM229.97 90.234C229.142 90.234 228.386 90.021 227.702 89.595C227.024 89.169 226.481 88.599 226.073 87.885C225.671 87.165 225.47 86.37 225.47 85.5C225.47 84.84 225.587 84.225 225.821 83.655C226.055 83.079 226.376 82.575 226.784 82.143C227.198 81.705 227.678 81.363 228.224 81.117C228.77 80.871 229.352 80.748 229.97 80.748C230.798 80.748 231.551 80.961 232.229 81.387C232.913 81.813 233.456 82.386 233.858 83.106C234.266 83.826 234.47 84.624 234.47 85.5C234.47 86.154 234.353 86.766 234.119 87.336C233.885 87.906 233.561 88.41 233.147 88.848C232.739 89.28 232.262 89.619 231.716 89.865C231.176 90.111 230.594 90.234 229.97 90.234ZM229.97 88.974C230.582 88.974 231.131 88.815 231.617 88.497C232.109 88.173 232.496 87.747 232.778 87.219C233.066 86.691 233.21 86.118 233.21 85.5C233.21 84.87 233.066 84.291 232.778 83.763C232.49 83.229 232.1 82.803 231.608 82.485C231.122 82.167 230.576 82.008 229.97 82.008C229.358 82.008 228.806 82.17 228.314 82.494C227.828 82.812 227.441 83.235 227.153 83.763C226.871 84.291 226.73 84.87 226.73 85.5C226.73 86.148 226.877 86.736 227.171 87.264C227.465 87.786 227.858 88.203 228.35 88.515C228.842 88.821 229.382 88.974 229.97 88.974ZM235.994 90L235.994 81L237.254 81L237.254 82.242C237.572 81.786 237.986 81.423 238.496 81.153C239.006 80.883 239.561 80.748 240.161 80.748C240.509 80.748 240.845 80.793 241.169 80.883L240.656 82.134C240.404 82.056 240.158 82.017 239.918 82.017C239.432 82.017 238.985 82.137 238.577 82.377C238.175 82.617 237.854 82.938 237.614 83.34C237.374 83.742 237.254 84.189 237.254 84.681L237.254 90L235.994 90ZM245.79 90.234C244.962 90.234 244.206 90.021 243.522 89.595C242.844 89.169 242.301 88.599 241.893 87.885C241.491 87.165 241.29 86.37 241.29 85.5C241.29 84.84 241.407 84.225 241.641 83.655C241.875 83.079 242.196 82.575 242.604 82.143C243.018 81.705 243.498 81.363 244.044 81.117C244.59 80.871 245.172 80.748 245.79 80.748C246.456 80.748 247.068 80.88 247.626 81.144C248.19 81.408 248.673 81.777 249.075 82.251C249.483 82.725 249.789 83.28 249.993 83.916C250.203 84.552 250.29 85.239 250.254 85.977L242.622 85.977C242.694 86.547 242.874 87.057 243.162 87.507C243.456 87.957 243.828 88.314 244.278 88.578C244.734 88.836 245.238 88.968 245.79 88.974C246.39 88.974 246.93 88.818 247.41 88.506C247.896 88.194 248.286 87.765 248.58 87.219L249.858 87.516C249.498 88.314 248.955 88.968 248.229 89.478C247.503 89.982 246.69 90.234 245.79 90.234ZM242.586 84.96L248.985 84.96C248.943 84.402 248.772 83.892 248.472 83.43C248.178 82.962 247.797 82.59 247.329 82.314C246.861 82.032 246.348 81.891 245.79 81.891C245.232 81.891 244.722 82.029 244.26 82.305C243.798 82.575 243.42 82.944 243.126 83.412C242.832 83.874 242.652 84.39 242.586 84.96ZM251.797 90L251.797 81L253.057 81L253.057 82.242C253.381 81.786 253.795 81.423 254.299 81.153C254.803 80.883 255.355 80.748 255.955 80.748C256.633 80.748 257.254 80.916 257.818 81.252C258.382 81.582 258.823 82.023 259.141 82.575C259.459 82.023 259.897 81.582 260.455 81.252C261.013 80.916 261.631 80.748 262.309 80.748C262.987 80.748 263.605 80.913 264.163 81.243C264.721 81.573 265.165 82.017 265.495 82.575C265.825 83.133 265.99 83.751 265.99 84.429L265.99 90L264.73 90L264.73 84.708C264.73 84.228 264.613 83.784 264.379 83.376C264.145 82.968 263.83 82.641 263.434 82.395C263.044 82.143 262.609 82.017 262.129 82.017C261.649 82.017 261.211 82.134 260.815 82.368C260.425 82.596 260.113 82.914 259.879 83.322C259.645 83.724 259.528 84.186 259.528 84.708L259.528 90L258.268 90L258.268 84.708C258.268 84.186 258.151 83.724 257.917 83.322C257.683 82.914 257.368 82.596 256.972 82.368C256.576 82.134 256.138 82.017 255.658 82.017C255.184 82.017 254.749 82.143 254.353 82.395C253.957 82.641 253.642 82.968 253.408 83.376C253.174 83.784 253.057 84.228 253.057 84.708L253.057 90L251.797 90ZM272.117 81L273.377 81L273.377 90L272.117 90L272.117 81ZM272.756 79.425C272.552 79.425 272.378 79.359 272.234 79.227C272.096 79.089 272.027 78.918 272.027 78.714C272.027 78.51 272.096 78.342 272.234 78.21C272.378 78.072 272.552 78.003 272.756 78.003C272.954 78.003 273.122 78.072 273.26 78.21C273.404 78.342 273.476 78.51 273.476 78.714C273.476 78.918 273.407 79.089 273.269 79.227C273.131 79.359 272.96 79.425 272.756 79.425ZM276.735 94.5L275.475 94.5L275.475 81L276.735 81L276.735 82.683C277.047 82.113 277.473 81.651 278.013 81.297C278.553 80.943 279.195 80.766 279.939 80.766C280.593 80.766 281.205 80.889 281.775 81.135C282.351 81.381 282.855 81.723 283.287 82.161C283.719 82.593 284.058 83.094 284.304 83.664C284.55 84.234 284.673 84.846 284.673 85.5C284.673 86.154 284.55 86.769 284.304 87.345C284.058 87.921 283.719 88.428 283.287 88.866C282.855 89.298 282.351 89.637 281.775 89.883C281.205 90.129 280.593 90.252 279.939 90.252C279.195 90.252 278.553 90.075 278.013 89.721C277.473 89.367 277.047 88.905 276.735 88.335L276.735 94.5ZM279.93 81.99C279.3 81.99 278.751 82.149 278.283 82.467C277.821 82.779 277.464 83.199 277.212 83.727C276.96 84.255 276.834 84.846 276.834 85.5C276.834 86.142 276.957 86.73 277.203 87.264C277.455 87.798 277.812 88.224 278.274 88.542C278.742 88.86 279.294 89.019 279.93 89.019C280.554 89.019 281.127 88.863 281.649 88.551C282.177 88.239 282.6 87.819 282.918 87.291C283.236 86.757 283.395 86.16 283.395 85.5C283.395 84.858 283.239 84.273 282.927 83.745C282.615 83.211 282.198 82.785 281.676 82.467C281.154 82.149 280.572 81.99 279.93 81.99ZM288.996 90.171C288.504 90.159 288.024 90.069 287.556 89.901C287.088 89.733 286.68 89.505 286.332 89.217C285.984 88.929 285.735 88.602 285.585 88.236L286.674 87.768C286.77 88.002 286.947 88.218 287.205 88.416C287.469 88.608 287.769 88.764 288.105 88.884C288.441 88.998 288.774 89.055 289.104 89.055C289.47 89.055 289.812 88.995 290.13 88.875C290.448 88.755 290.706 88.584 290.904 88.362C291.108 88.134 291.21 87.867 291.21 87.561C291.21 87.231 291.102 86.973 290.886 86.787C290.67 86.595 290.397 86.445 290.067 86.337C289.737 86.223 289.398 86.115 289.05 86.013C288.414 85.839 287.853 85.647 287.367 85.437C286.881 85.227 286.5 84.96 286.224 84.636C285.954 84.306 285.819 83.883 285.819 83.367C285.819 82.821 285.972 82.35 286.278 81.954C286.59 81.552 286.995 81.243 287.493 81.027C287.997 80.805 288.534 80.694 289.104 80.694C289.836 80.694 290.502 80.853 291.102 81.171C291.708 81.489 292.146 81.912 292.416 82.44L291.399 83.043C291.291 82.797 291.12 82.584 290.886 82.404C290.652 82.224 290.385 82.083 290.085 81.981C289.791 81.879 289.491 81.825 289.185 81.819C288.801 81.813 288.444 81.87 288.114 81.99C287.784 82.104 287.517 82.275 287.313 82.503C287.115 82.731 287.016 83.01 287.016 83.34C287.016 83.67 287.115 83.922 287.313 84.096C287.511 84.264 287.778 84.402 288.114 84.51C288.456 84.612 288.84 84.732 289.266 84.87C289.812 85.044 290.325 85.242 290.805 85.464C291.285 85.686 291.672 85.962 291.966 86.292C292.26 86.622 292.404 87.039 292.398 87.543C292.398 88.083 292.236 88.554 291.912 88.956C291.588 89.358 291.168 89.667 290.652 89.883C290.136 90.093 289.584 90.189 288.996 90.171ZM293.589 86.553L293.589 81L294.849 81L294.849 86.301C294.849 86.793 294.969 87.24 295.209 87.642C295.449 88.044 295.77 88.365 296.172 88.605C296.58 88.845 297.027 88.965 297.513 88.965C298.005 88.965 298.449 88.845 298.845 88.605C299.247 88.365 299.568 88.044 299.808 87.642C300.048 87.24 300.168 86.793 300.168 86.301L300.168 81L301.428 81L301.437 90L300.177 90L300.168 88.74C299.85 89.196 299.436 89.559 298.926 89.829C298.422 90.099 297.87 90.234 297.27 90.234C296.592 90.234 295.974 90.069 295.416 89.739C294.858 89.409 294.414 88.965 294.084 88.407C293.754 87.849 293.589 87.231 293.589 86.553ZM303.23 90L303.23 81L304.49 81L304.49 82.242C304.814 81.786 305.228 81.423 305.732 81.153C306.236 80.883 306.788 80.748 307.388 80.748C308.066 80.748 308.687 80.916 309.251 81.252C309.815 81.582 310.256 82.023 310.574 82.575C310.892 82.023 311.33 81.582 311.888 81.252C312.446 80.916 313.064 80.748 313.742 80.748C314.42 80.748 315.038 80.913 315.596 81.243C316.154 81.573 316.598 82.017 316.928 82.575C317.258 83.133 317.423 83.751 317.423 84.429L317.423 90L316.163 90L316.163 84.708C316.163 84.228 316.046 83.784 315.812 83.376C315.578 82.968 315.263 82.641 314.867 82.395C314.477 82.143 314.042 82.017 313.562 82.017C313.082 82.017 312.644 82.134 312.248 82.368C311.858 82.596 311.546 82.914 311.312 83.322C311.078 83.724 310.961 84.186 310.961 84.708L310.961 90L309.701 90L309.701 84.708C309.701 84.186 309.584 83.724 309.35 83.322C309.116 82.914 308.801 82.596 308.405 82.368C308.009 82.134 307.571 82.017 307.091 82.017C306.617 82.017 306.182 82.143 305.786 82.395C305.39 82.641 305.075 82.968 304.841 83.376C304.607 83.784 304.49 84.228 304.49 84.708L304.49 90L303.23 90ZM319.577 90.234C319.379 90.234 319.211 90.162 319.073 90.018C318.935 89.88 318.866 89.709 318.866 89.505C318.866 89.313 318.935 89.148 319.073 89.01C319.211 88.866 319.379 88.794 319.577 88.794C319.781 88.794 319.952 88.866 320.09 89.01C320.234 89.148 320.306 89.313 320.306 89.505C320.306 89.709 320.234 89.88 320.09 90.018C319.952 90.162 319.781 90.234 319.577 90.234Z" fill="white"/>
</svg>
