<svg width="17" height="24" viewBox="0 0 17 24" fill="none" xmlns="http://www.w3.org/2000/svg">
<path id="keyboard_voice" d="M8.48323 14.4657C7.56439 14.4657 6.78673 14.1475 6.15026 13.5111C5.51381 12.8746 5.19558 12.0969 5.19558 11.1781V3.28765C5.19558 2.36881 5.51381 1.59115 6.15026 0.954677C6.78673 0.318226 7.56439 0 8.48323 0C9.40207 0 10.1797 0.318226 10.8162 0.954677C11.4527 1.59115 11.7709 2.36881 11.7709 3.28765V11.1781C11.7709 12.0969 11.4527 12.8746 10.8162 13.5111C10.1797 14.1475 9.40207 14.4657 8.48323 14.4657ZM7.49696 23.0137V19.6653C5.53952 19.4394 3.86196 18.6352 2.46428 17.2527C1.0666 15.8701 0.248051 14.185 0.00864242 12.1972C-0.0267549 11.9174 0.0465823 11.6775 0.228654 11.4778C0.410748 11.278 0.641729 11.1781 0.921599 11.1781C1.20147 11.1781 1.43581 11.2746 1.62464 11.4676C1.81346 11.6607 1.93906 11.8971 2.00144 12.177C2.24085 13.7871 2.9772 15.1191 4.21049 16.1728C5.44379 17.2266 6.86804 17.7534 8.48323 17.7534C10.1203 17.7534 11.5501 17.2211 12.7724 16.1564C13.9947 15.0917 14.7256 13.7652 14.965 12.177C15.0274 11.8971 15.153 11.6607 15.3418 11.4676C15.5306 11.2746 15.765 11.1781 16.0449 11.1781C16.3247 11.1781 16.5557 11.278 16.7378 11.4778C16.9199 11.6775 16.9932 11.9174 16.9578 12.1972C16.7184 14.1412 15.9053 15.8132 14.5186 17.2135C13.1319 18.6137 11.4489 19.4309 9.4695 19.6653V23.0137C9.4695 23.2936 9.37509 23.5279 9.18627 23.7168C8.99744 23.9056 8.7631 24 8.48323 24C8.20336 24 7.96901 23.9056 7.78019 23.7168C7.59137 23.5279 7.49696 23.2936 7.49696 23.0137ZM8.48323 12.4932C8.85583 12.4932 9.16816 12.3671 9.42022 12.1151C9.67227 11.863 9.7983 11.5507 9.7983 11.1781V3.28765C9.7983 2.91504 9.67227 2.60271 9.42022 2.35066C9.16816 2.0986 8.85583 1.97258 8.48323 1.97258C8.11063 1.97258 7.7983 2.0986 7.54624 2.35066C7.29419 2.60271 7.16816 2.91504 7.16816 3.28765V11.1781C7.16816 11.5507 7.29419 11.863 7.54624 12.1151C7.7983 12.3671 8.11063 12.4932 8.48323 12.4932Z" fill="#FCFCFC"/>
</svg>
